<svg width="54" height="54" viewBox="0 0 54 54" fill="none" xmlns="http://www.w3.org/2000/svg">
<path fill-rule="evenodd" clip-rule="evenodd" d="M27.481 8C16.7234 8 8 16.7214 8 27.481C8 36.0886 13.5819 43.3906 21.3223 45.9668C22.2956 46.1475 22.653 45.5442 22.653 45.0297C22.653 44.5652 22.635 43.0306 22.6266 41.4027C17.2069 42.5812 16.0633 39.1042 16.0633 39.1042C15.1772 36.8525 13.9003 36.2537 13.9003 36.2537C12.1325 35.0447 14.0335 35.0698 14.0335 35.0698C15.9895 35.2069 17.0198 37.0773 17.0198 37.0773C18.7573 40.0549 21.5772 39.1942 22.6888 38.6968C22.8637 37.4377 23.3686 36.578 23.9257 36.0915C19.5987 35.5995 15.0497 33.9288 15.0497 26.4642C15.0497 24.3373 15.8111 22.5995 17.0573 21.2349C16.8547 20.7445 16.1879 18.7631 17.2456 16.0798C17.2456 16.0798 18.8812 15.5562 22.604 18.0767C24.1583 17.6447 25.8251 17.4276 27.481 17.4202C29.136 17.4276 30.8038 17.6441 32.361 18.076C36.0792 15.5556 37.7129 16.0791 37.7129 16.0791C38.7732 18.7622 38.1064 20.7439 37.9042 21.2342C39.1533 22.5988 39.9091 24.3367 39.9091 26.4636C39.9091 33.9459 35.3518 35.5931 31.0138 36.0757C31.7129 36.6802 32.3355 37.8661 32.3355 39.6833C32.3355 42.2899 32.3129 44.3877 32.3129 45.0294C32.3129 45.5478 32.6639 46.1552 33.651 45.9639C41.3869 43.3851 46.9624 36.0854 46.9624 27.481C46.9621 16.7221 38.2397 8 27.481 8Z" fill="#181616"/>
<path d="M15.3784 35.9702C15.3355 36.067 15.1833 36.096 15.0446 36.0299C14.9026 35.9666 14.8236 35.8347 14.8694 35.7376C14.9113 35.6376 15.0639 35.6102 15.2049 35.6769C15.3468 35.7405 15.4275 35.8737 15.3781 35.9705L15.3784 35.9702ZM16.1675 36.8506C16.0749 36.9367 15.8933 36.8967 15.7701 36.7602C15.6423 36.6247 15.6185 36.4431 15.713 36.3557C15.8091 36.2699 15.9853 36.3105 16.113 36.446C16.2401 36.5834 16.2653 36.7635 16.1678 36.8509L16.1675 36.8506ZM16.9359 37.9722C16.8166 38.0555 16.6211 37.9777 16.5004 37.8045C16.3811 37.6309 16.3811 37.4228 16.5037 37.3399C16.624 37.2567 16.8166 37.3319 16.9392 37.5035C17.0579 37.6793 17.0579 37.8877 16.9359 37.9722ZM17.9879 39.0565C17.8815 39.1742 17.6537 39.1426 17.4873 38.9823C17.3173 38.8252 17.2698 38.6016 17.3766 38.4842C17.485 38.3661 17.7137 38.399 17.8812 38.5584C18.0512 38.7152 18.1025 38.939 17.9886 39.0562L17.9879 39.0565ZM19.4396 39.6859C19.3922 39.8385 19.1735 39.9078 18.9525 39.8426C18.7322 39.7759 18.588 39.5975 18.6331 39.4433C18.6783 39.2894 18.8986 39.2175 19.1209 39.2868C19.3412 39.3533 19.4854 39.5307 19.4396 39.6859ZM21.0342 39.8023C21.0397 39.963 20.8526 40.0959 20.6213 40.0991C20.3881 40.1046 20.1993 39.9743 20.1971 39.8162C20.1971 39.6539 20.3803 39.5226 20.6132 39.5181C20.8445 39.5139 21.0345 39.643 21.0345 39.802L21.0342 39.8023ZM22.5175 39.55C22.5453 39.7065 22.3843 39.8675 22.1543 39.9104C21.9285 39.9523 21.7188 39.8549 21.6897 39.6997C21.662 39.5391 21.8259 39.3781 22.0517 39.3365C22.282 39.2968 22.4885 39.391 22.5175 39.55Z" fill="#181616"/>
</svg>
