<svg width="1235" height="478" viewBox="0 0 1235 478" fill="none" xmlns="http://www.w3.org/2000/svg">
<path d="M102.5 20C104.4 20 106.1 21.1 106.9 22.6L129.1 62.2L130 65L129.1 67.8L106.9 107.4C106.1 108.9 104.4 110 102.5 110H57.5C55.6 110 53.9 108.9 53.1 107.4L30.9 67.8L30 65L30.9 62.2L53.1 22.6C53.9 21.1 55.6 20 57.5 20H102.5ZM102.5 130C104.4 130 106.1 131.1 106.9 132.6L129.1 172.2L130 175L129.1 177.8L106.9 217.4C106.1 218.9 104.4 220 102.5 220H57.5C55.6 220 53.9 218.9 53.1 217.4L30.9 177.8L30 175L30.9 172.2L53.1 132.6C53.9 131.1 55.6 130 57.5 130H102.5ZM195 75C196.9 75 198.6 76.1 199.4 77.6L221.6 117.2L222.5 120L221.6 122.8L199.4 162.4C198.6 163.9 196.9 165 195 165H150C148.1 165 146.4 163.9 145.6 162.4L123.4 122.8L122.5 120L123.4 117.2L145.6 77.6C146.4 76.1 148.1 75 150 75H195Z" fill="black"/>
<path d="M359.816 93.9212C359.333 89.0514 357.26 85.2682 353.598 82.5717C349.936 79.8752 344.965 78.527 338.687 78.527C334.421 78.527 330.819 79.1307 327.881 80.3381C324.943 81.5052 322.689 83.1352 321.119 85.228C319.59 87.3208 318.825 89.6953 318.825 92.3516C318.745 94.5651 319.208 96.4969 320.214 98.147C321.26 99.7971 322.689 101.226 324.5 102.433C326.311 103.6 328.404 104.627 330.778 105.512C333.153 106.357 335.688 107.082 338.385 107.685L349.493 110.342C354.886 111.549 359.836 113.159 364.344 115.171C368.851 117.183 372.755 119.659 376.055 122.597C379.356 125.535 381.911 128.996 383.722 132.98C385.574 136.964 386.519 141.532 386.56 146.684C386.519 154.25 384.588 160.81 380.764 166.364C376.981 171.878 371.508 176.164 364.344 179.223C357.22 182.241 348.628 183.751 338.566 183.751C328.585 183.751 319.892 182.221 312.487 179.163C305.121 176.104 299.366 171.576 295.221 165.58C291.116 159.543 288.963 152.077 288.761 143.183H314.056C314.338 147.328 315.525 150.789 317.618 153.566C319.751 156.303 322.588 158.375 326.13 159.784C329.712 161.152 333.757 161.837 338.264 161.837C342.691 161.837 346.535 161.193 349.795 159.905C353.095 158.617 355.651 156.826 357.462 154.532C359.273 152.238 360.178 149.602 360.178 146.624C360.178 143.847 359.353 141.512 357.703 139.621C356.093 137.729 353.719 136.119 350.58 134.791C347.481 133.463 343.677 132.256 339.17 131.169L325.707 127.788C315.284 125.253 307.053 121.289 301.016 115.896C294.979 110.503 291.981 103.238 292.021 94.1023C291.981 86.6165 293.973 80.0765 297.998 74.4822C302.063 68.888 307.637 64.5213 314.72 61.3821C321.804 58.2429 329.853 56.6733 338.868 56.6733C348.044 56.6733 356.053 58.2429 362.895 61.3821C369.777 64.5213 375.13 68.888 378.953 74.4822C382.777 80.0765 384.749 86.5561 384.869 93.9212H359.816ZM430.282 58.3636V182H404.142V58.3636H430.282ZM451.789 58.3636H484.026L518.074 141.432H519.523L553.571 58.3636H585.809V182H560.453V101.528H559.427L527.431 181.396H510.166L478.17 101.226H477.144V182H451.789V58.3636ZM607.345 182V58.3636H689.206V79.9155H633.485V109.376H683.773V130.928H633.485V182H607.345ZM731.585 183.751C725.669 183.751 720.397 182.724 715.769 180.672C711.14 178.579 707.478 175.5 704.781 171.435C702.125 167.33 700.797 162.219 700.797 156.102C700.797 150.95 701.743 146.624 703.634 143.122C705.526 139.621 708.102 136.804 711.362 134.67C714.622 132.537 718.324 130.928 722.47 129.841C726.655 128.754 731.042 127.99 735.63 127.547C741.023 126.983 745.37 126.46 748.67 125.977C751.97 125.454 754.365 124.689 755.854 123.683C757.343 122.677 758.088 121.188 758.088 119.216V118.854C758.088 115.03 756.88 112.072 754.465 109.979C752.091 107.887 748.71 106.84 744.323 106.84C739.695 106.84 736.012 107.866 733.276 109.919C730.539 111.931 728.728 114.467 727.843 117.526L704.057 115.594C705.264 109.959 707.639 105.089 711.181 100.984C714.722 96.839 719.29 93.6596 724.884 91.446C730.519 89.1922 737.039 88.0653 744.444 88.0653C749.596 88.0653 754.526 88.669 759.235 89.8764C763.984 91.0838 768.189 92.9553 771.852 95.4908C775.554 98.0263 778.472 101.286 780.605 105.271C782.738 109.215 783.805 113.944 783.805 119.457V182H759.416V169.141H758.691C757.202 172.039 755.21 174.595 752.715 176.808C750.219 178.982 747.221 180.692 743.72 181.94C740.218 183.147 736.173 183.751 731.585 183.751ZM738.95 166.002C742.734 166.002 746.074 165.258 748.972 163.768C751.869 162.239 754.143 160.187 755.794 157.611C757.444 155.035 758.269 152.117 758.269 148.857V139.017C757.464 139.54 756.357 140.023 754.948 140.466C753.58 140.868 752.03 141.251 750.3 141.613C748.569 141.935 746.839 142.237 745.108 142.518C743.378 142.76 741.808 142.981 740.399 143.183C737.381 143.625 734.745 144.33 732.491 145.295C730.237 146.261 728.486 147.569 727.239 149.219C725.991 150.829 725.367 152.842 725.367 155.256C725.367 158.758 726.635 161.434 729.171 163.286C731.746 165.097 735.006 166.002 738.95 166.002ZM845.653 183.811C836.155 183.811 827.985 181.799 821.143 177.774C814.342 173.709 809.11 168.075 805.447 160.871C801.825 153.667 800.014 145.376 800.014 135.999C800.014 126.5 801.845 118.17 805.508 111.006C809.21 103.802 814.462 98.1873 821.264 94.1626C828.066 90.0978 836.155 88.0653 845.532 88.0653C853.622 88.0653 860.705 89.5343 866.782 92.4723C872.86 95.4103 877.669 99.5355 881.211 104.848C884.752 110.161 886.704 116.399 887.067 123.562H862.798C862.114 118.934 860.303 115.211 857.365 112.394C854.467 109.537 850.664 108.108 845.955 108.108C841.971 108.108 838.489 109.195 835.511 111.368C832.573 113.501 830.279 116.62 828.629 120.725C826.979 124.83 826.154 129.801 826.154 135.636C826.154 141.553 826.959 146.583 828.569 150.729C830.219 154.874 832.533 158.033 835.511 160.207C838.489 162.38 841.971 163.467 845.955 163.467C848.893 163.467 851.529 162.863 853.863 161.656C856.238 160.448 858.19 158.697 859.719 156.403C861.289 154.069 862.315 151.272 862.798 148.012H887.067C886.664 155.095 884.732 161.334 881.271 166.727C877.85 172.079 873.121 176.265 867.084 179.283C861.047 182.302 853.904 183.811 845.653 183.811ZM952.854 89.2727V108.591H897.012V89.2727H952.854ZM909.69 67.0568H935.407V153.506C935.407 155.88 935.77 157.732 936.494 159.06C937.218 160.348 938.225 161.253 939.512 161.776C940.841 162.299 942.37 162.561 944.1 162.561C945.308 162.561 946.515 162.46 947.723 162.259C948.93 162.018 949.856 161.837 950.5 161.716L954.544 180.853C953.257 181.255 951.445 181.718 949.111 182.241C946.777 182.805 943.94 183.147 940.599 183.268C934.401 183.509 928.968 182.684 924.299 180.793C919.671 178.901 916.069 175.963 913.493 171.979C910.917 167.994 909.65 162.964 909.69 156.886V67.0568ZM1010.51 183.811C1001.13 183.811 993.02 181.819 986.178 177.835C979.376 173.81 974.124 168.216 970.422 161.052C966.719 153.848 964.868 145.497 964.868 135.999C964.868 126.42 966.719 118.049 970.422 110.885C974.124 103.681 979.376 98.0866 986.178 94.1023C993.02 90.0776 1001.13 88.0653 1010.51 88.0653C1019.88 88.0653 1027.97 90.0776 1034.78 94.1023C1041.62 98.0866 1046.89 103.681 1050.59 110.885C1054.29 118.049 1056.15 126.42 1056.15 135.999C1056.15 145.497 1054.29 153.848 1050.59 161.052C1046.89 168.216 1041.62 173.81 1034.78 177.835C1027.97 181.819 1019.88 183.811 1010.51 183.811ZM1010.63 163.889C1014.89 163.889 1018.46 162.682 1021.31 160.267C1024.17 157.812 1026.32 154.472 1027.77 150.246C1029.26 146.02 1030.01 141.21 1030.01 135.817C1030.01 130.424 1029.26 125.615 1027.77 121.389C1026.32 117.163 1024.17 113.823 1021.31 111.368C1018.46 108.913 1014.89 107.685 1010.63 107.685C1006.32 107.685 1002.7 108.913 999.761 111.368C996.863 113.823 994.67 117.163 993.181 121.389C991.732 125.615 991.007 130.424 991.007 135.817C991.007 141.21 991.732 146.02 993.181 150.246C994.67 154.472 996.863 157.812 999.761 160.267C1002.7 162.682 1006.32 163.889 1010.63 163.889ZM1072.87 182V89.2727H1097.8V105.452H1098.77C1100.46 99.6965 1103.29 95.3499 1107.28 92.4119C1111.26 89.4337 1115.85 87.9446 1121.04 87.9446C1122.33 87.9446 1123.72 88.0251 1125.21 88.1861C1126.7 88.3471 1128.01 88.5684 1129.13 88.8501V111.67C1127.93 111.308 1126.25 110.986 1124.12 110.704C1121.99 110.422 1120.04 110.281 1118.27 110.281C1114.48 110.281 1111.1 111.106 1108.12 112.756C1105.19 114.366 1102.85 116.62 1101.12 119.518C1099.43 122.415 1098.59 125.756 1098.59 129.539V182H1072.87ZM1161.13 216.773C1157.87 216.773 1154.81 216.511 1151.95 215.988C1149.13 215.505 1146.8 214.881 1144.95 214.116L1150.74 194.919C1153.76 195.845 1156.48 196.348 1158.89 196.428C1161.35 196.509 1163.46 195.945 1165.23 194.738C1167.04 193.531 1168.51 191.478 1169.64 188.58L1171.15 184.656L1137.89 89.2727H1164.93L1184.13 157.369H1185.09L1204.47 89.2727H1231.7L1195.66 192.021C1193.93 197.012 1191.57 201.358 1188.6 205.061C1185.66 208.804 1181.94 211.682 1177.43 213.694C1172.92 215.746 1167.49 216.773 1161.13 216.773Z" fill="black"/>
<path d="M679 238C680.92 238 682.627 238.36 684.12 239.08C685.613 239.8 686.867 240.813 687.88 242.12C688.92 243.4 689.693 244.893 690.2 246.6C690.733 248.28 691 250.08 691 252C691 254.587 690.533 256.947 689.6 259.08C688.667 261.187 687.307 262.867 685.52 264.12C683.76 265.373 681.587 266 679 266H669.44C668.747 266 668.16 265.773 667.68 265.32C667.227 264.84 667 264.253 667 263.56V240.44C667 239.747 667.227 239.173 667.68 238.72C668.16 238.24 668.747 238 669.44 238H679ZM678.6 261.4C680.28 261.4 681.653 260.973 682.72 260.12C683.787 259.24 684.56 258.093 685.04 256.68C685.547 255.24 685.8 253.68 685.8 252C685.8 250.747 685.653 249.56 685.36 248.44C685.093 247.293 684.667 246.293 684.08 245.44C683.493 244.56 682.747 243.867 681.84 243.36C680.933 242.853 679.853 242.6 678.6 242.6H671.6L672 242.24V261.84L671.76 261.4H678.6ZM705.586 266.4C703.32 266.4 701.346 265.933 699.666 265C698.013 264.04 696.733 262.747 695.826 261.12C694.946 259.493 694.506 257.653 694.506 255.6C694.506 253.2 694.986 251.16 695.946 249.48C696.933 247.773 698.213 246.467 699.786 245.56C701.36 244.653 703.026 244.2 704.786 244.2C706.146 244.2 707.426 244.48 708.626 245.04C709.853 245.6 710.933 246.373 711.866 247.36C712.8 248.32 713.533 249.44 714.066 250.72C714.626 252 714.906 253.36 714.906 254.8C714.88 255.44 714.626 255.96 714.146 256.36C713.666 256.76 713.106 256.96 712.466 256.96H697.186L695.986 252.96H710.666L709.786 253.76V252.68C709.733 251.907 709.453 251.213 708.946 250.6C708.466 249.987 707.853 249.507 707.106 249.16C706.386 248.787 705.613 248.6 704.786 248.6C703.986 248.6 703.24 248.707 702.546 248.92C701.853 249.133 701.253 249.493 700.746 250C700.24 250.507 699.84 251.187 699.546 252.04C699.253 252.893 699.106 253.973 699.106 255.28C699.106 256.72 699.4 257.947 699.986 258.96C700.6 259.947 701.373 260.707 702.306 261.24C703.266 261.747 704.28 262 705.346 262C706.333 262 707.12 261.92 707.706 261.76C708.293 261.6 708.76 261.413 709.106 261.2C709.48 260.96 709.813 260.76 710.106 260.6C710.586 260.36 711.04 260.24 711.466 260.24C712.053 260.24 712.533 260.44 712.906 260.84C713.306 261.24 713.506 261.707 713.506 262.24C713.506 262.96 713.133 263.613 712.386 264.2C711.693 264.787 710.72 265.307 709.466 265.76C708.213 266.187 706.92 266.4 705.586 266.4ZM719.865 244.6C720.371 244.6 720.838 244.733 721.265 245C721.691 245.24 722.011 245.613 722.225 246.12L728.105 259.56L727.225 259.96L733.225 246.16C733.678 245.093 734.385 244.587 735.345 244.64C736.011 244.64 736.545 244.853 736.945 245.28C737.371 245.68 737.585 246.187 737.585 246.8C737.585 246.987 737.545 247.187 737.465 247.4C737.411 247.613 737.345 247.813 737.265 248L729.785 264.48C729.358 265.44 728.678 265.947 727.745 266C727.238 266.08 726.745 265.987 726.265 265.72C725.811 265.453 725.465 265.04 725.225 264.48L717.785 248C717.731 247.867 717.665 247.693 717.585 247.48C717.531 247.267 717.505 247.013 717.505 246.72C717.505 246.24 717.718 245.773 718.145 245.32C718.571 244.84 719.145 244.6 719.865 244.6ZM751.25 266.4C748.984 266.4 747.01 265.933 745.33 265C743.677 264.04 742.397 262.747 741.49 261.12C740.61 259.493 740.17 257.653 740.17 255.6C740.17 253.2 740.65 251.16 741.61 249.48C742.597 247.773 743.877 246.467 745.45 245.56C747.024 244.653 748.69 244.2 750.45 244.2C751.81 244.2 753.09 244.48 754.29 245.04C755.517 245.6 756.597 246.373 757.53 247.36C758.464 248.32 759.197 249.44 759.73 250.72C760.29 252 760.57 253.36 760.57 254.8C760.544 255.44 760.29 255.96 759.81 256.36C759.33 256.76 758.77 256.96 758.13 256.96H742.85L741.65 252.96H756.33L755.45 253.76V252.68C755.397 251.907 755.117 251.213 754.61 250.6C754.13 249.987 753.517 249.507 752.77 249.16C752.05 248.787 751.277 248.6 750.45 248.6C749.65 248.6 748.904 248.707 748.21 248.92C747.517 249.133 746.917 249.493 746.41 250C745.904 250.507 745.504 251.187 745.21 252.04C744.917 252.893 744.77 253.973 744.77 255.28C744.77 256.72 745.064 257.947 745.65 258.96C746.264 259.947 747.037 260.707 747.97 261.24C748.93 261.747 749.944 262 751.01 262C751.997 262 752.784 261.92 753.37 261.76C753.957 261.6 754.424 261.413 754.77 261.2C755.144 260.96 755.477 260.76 755.77 260.6C756.25 260.36 756.704 260.24 757.13 260.24C757.717 260.24 758.197 260.44 758.57 260.84C758.97 261.24 759.17 261.707 759.17 262.24C759.17 262.96 758.797 263.613 758.05 264.2C757.357 264.787 756.384 265.307 755.13 265.76C753.877 266.187 752.584 266.4 751.25 266.4ZM769.964 263.56C769.964 264.253 769.724 264.84 769.244 265.32C768.791 265.773 768.217 266 767.524 266C766.857 266 766.297 265.773 765.844 265.32C765.391 264.84 765.164 264.253 765.164 263.56V238.84C765.164 238.147 765.391 237.573 765.844 237.12C766.324 236.64 766.911 236.4 767.604 236.4C768.297 236.4 768.857 236.64 769.284 237.12C769.737 237.573 769.964 238.147 769.964 238.84V263.56ZM795.915 255.32C795.915 257.507 795.421 259.44 794.435 261.12C793.475 262.773 792.168 264.067 790.515 265C788.888 265.933 787.061 266.4 785.035 266.4C783.008 266.4 781.168 265.933 779.515 265C777.888 264.067 776.581 262.773 775.595 261.12C774.635 259.44 774.155 257.507 774.155 255.32C774.155 253.133 774.635 251.213 775.595 249.56C776.581 247.88 777.888 246.573 779.515 245.64C781.168 244.68 783.008 244.2 785.035 244.2C787.061 244.2 788.888 244.68 790.515 245.64C792.168 246.573 793.475 247.88 794.435 249.56C795.421 251.213 795.915 253.133 795.915 255.32ZM791.115 255.32C791.115 253.96 790.835 252.787 790.275 251.8C789.741 250.787 789.008 250 788.075 249.44C787.168 248.88 786.155 248.6 785.035 248.6C783.915 248.6 782.888 248.88 781.955 249.44C781.048 250 780.315 250.787 779.755 251.8C779.221 252.787 778.955 253.96 778.955 255.32C778.955 256.653 779.221 257.827 779.755 258.84C780.315 259.827 781.048 260.6 781.955 261.16C782.888 261.72 783.915 262 785.035 262C786.155 262 787.168 261.72 788.075 261.16C789.008 260.6 789.741 259.827 790.275 258.84C790.835 257.827 791.115 256.653 791.115 255.32ZM811.196 244.2C813.062 244.2 814.729 244.68 816.196 245.64C817.689 246.573 818.862 247.867 819.716 249.52C820.596 251.173 821.036 253.093 821.036 255.28C821.036 257.467 820.596 259.4 819.716 261.08C818.862 262.733 817.702 264.04 816.236 265C814.796 265.933 813.169 266.4 811.356 266.4C810.289 266.4 809.289 266.227 808.356 265.88C807.422 265.533 806.596 265.093 805.876 264.56C805.182 264.027 804.636 263.493 804.236 262.96C803.862 262.4 803.676 261.933 803.676 261.56L804.916 261.04V271.56C804.916 272.253 804.689 272.827 804.236 273.28C803.782 273.76 803.209 274 802.516 274C801.822 274 801.249 273.773 800.796 273.32C800.342 272.867 800.116 272.28 800.116 271.56V247.04C800.116 246.347 800.342 245.773 800.796 245.32C801.249 244.84 801.822 244.6 802.516 244.6C803.209 244.6 803.782 244.84 804.236 245.32C804.689 245.773 804.916 246.347 804.916 247.04V249L804.236 248.64C804.236 248.293 804.422 247.88 804.796 247.4C805.169 246.893 805.676 246.4 806.316 245.92C806.956 245.413 807.689 245 808.516 244.68C809.369 244.36 810.262 244.2 811.196 244.2ZM810.596 248.6C809.422 248.6 808.396 248.893 807.516 249.48C806.636 250.067 805.942 250.867 805.436 251.88C804.956 252.867 804.716 254 804.716 255.28C804.716 256.533 804.956 257.68 805.436 258.72C805.942 259.733 806.636 260.533 807.516 261.12C808.396 261.707 809.422 262 810.596 262C811.769 262 812.782 261.707 813.636 261.12C814.516 260.533 815.196 259.733 815.676 258.72C816.182 257.68 816.436 256.533 816.436 255.28C816.436 254 816.182 252.867 815.676 251.88C815.196 250.867 814.516 250.067 813.636 249.48C812.782 248.893 811.769 248.6 810.596 248.6ZM835.313 266.4C833.046 266.4 831.073 265.933 829.393 265C827.739 264.04 826.459 262.747 825.553 261.12C824.673 259.493 824.233 257.653 824.233 255.6C824.233 253.2 824.713 251.16 825.673 249.48C826.659 247.773 827.939 246.467 829.513 245.56C831.086 244.653 832.753 244.2 834.513 244.2C835.873 244.2 837.153 244.48 838.353 245.04C839.579 245.6 840.659 246.373 841.593 247.36C842.526 248.32 843.259 249.44 843.793 250.72C844.353 252 844.633 253.36 844.633 254.8C844.606 255.44 844.353 255.96 843.873 256.36C843.393 256.76 842.833 256.96 842.193 256.96H826.913L825.713 252.96H840.393L839.513 253.76V252.68C839.459 251.907 839.179 251.213 838.673 250.6C838.193 249.987 837.579 249.507 836.833 249.16C836.113 248.787 835.339 248.6 834.513 248.6C833.713 248.6 832.966 248.707 832.273 248.92C831.579 249.133 830.979 249.493 830.473 250C829.966 250.507 829.566 251.187 829.273 252.04C828.979 252.893 828.833 253.973 828.833 255.28C828.833 256.72 829.126 257.947 829.713 258.96C830.326 259.947 831.099 260.707 832.033 261.24C832.993 261.747 834.006 262 835.073 262C836.059 262 836.846 261.92 837.433 261.76C838.019 261.6 838.486 261.413 838.833 261.2C839.206 260.96 839.539 260.76 839.833 260.6C840.313 260.36 840.766 260.24 841.193 260.24C841.779 260.24 842.259 260.44 842.633 260.84C843.033 261.24 843.233 261.707 843.233 262.24C843.233 262.96 842.859 263.613 842.113 264.2C841.419 264.787 840.446 265.307 839.193 265.76C837.939 266.187 836.646 266.4 835.313 266.4ZM866.347 236.4C867.04 236.4 867.613 236.627 868.067 237.08C868.52 237.533 868.747 238.12 868.747 238.84V263.56C868.747 264.253 868.52 264.84 868.067 265.32C867.613 265.773 867.04 266 866.347 266C865.653 266 865.08 265.773 864.627 265.32C864.173 264.84 863.947 264.253 863.947 263.56V261.6L864.827 261.96C864.827 262.307 864.64 262.733 864.267 263.24C863.893 263.72 863.387 264.2 862.747 264.68C862.107 265.16 861.347 265.573 860.467 265.92C859.613 266.24 858.68 266.4 857.667 266.4C855.827 266.4 854.16 265.933 852.667 265C851.173 264.04 849.987 262.733 849.107 261.08C848.253 259.4 847.827 257.48 847.827 255.32C847.827 253.133 848.253 251.213 849.107 249.56C849.987 247.88 851.16 246.573 852.627 245.64C854.093 244.68 855.72 244.2 857.507 244.2C858.653 244.2 859.707 244.373 860.667 244.72C861.627 245.067 862.453 245.507 863.147 246.04C863.867 246.573 864.413 247.12 864.787 247.68C865.187 248.213 865.387 248.667 865.387 249.04L863.947 249.56V238.84C863.947 238.147 864.173 237.573 864.627 237.12C865.08 236.64 865.653 236.4 866.347 236.4ZM858.267 262C859.44 262 860.467 261.707 861.347 261.12C862.227 260.533 862.907 259.733 863.387 258.72C863.893 257.707 864.147 256.573 864.147 255.32C864.147 254.04 863.893 252.893 863.387 251.88C862.907 250.867 862.227 250.067 861.347 249.48C860.467 248.893 859.44 248.6 858.267 248.6C857.12 248.6 856.107 248.893 855.227 249.48C854.347 250.067 853.653 250.867 853.147 251.88C852.667 252.893 852.427 254.04 852.427 255.32C852.427 256.573 852.667 257.707 853.147 258.72C853.653 259.733 854.347 260.533 855.227 261.12C856.107 261.707 857.12 262 858.267 262ZM896.235 244.2C898.101 244.2 899.768 244.68 901.235 245.64C902.728 246.573 903.901 247.867 904.755 249.52C905.635 251.173 906.075 253.093 906.075 255.28C906.075 257.467 905.635 259.4 904.755 261.08C903.901 262.733 902.741 264.04 901.275 265C899.835 265.933 898.208 266.4 896.395 266.4C895.328 266.4 894.328 266.227 893.395 265.88C892.461 265.533 891.635 265.093 890.915 264.56C890.221 264.027 889.675 263.493 889.275 262.96C888.901 262.4 888.715 261.933 888.715 261.56L889.955 261.04V263.96C889.955 264.653 889.728 265.24 889.275 265.72C888.821 266.173 888.248 266.4 887.555 266.4C886.861 266.4 886.288 266.173 885.835 265.72C885.381 265.267 885.155 264.68 885.155 263.96V238.84C885.155 238.147 885.381 237.573 885.835 237.12C886.288 236.64 886.861 236.4 887.555 236.4C888.248 236.4 888.821 236.64 889.275 237.12C889.728 237.573 889.955 238.147 889.955 238.84V249L889.275 248.64C889.275 248.293 889.461 247.88 889.835 247.4C890.208 246.893 890.715 246.4 891.355 245.92C891.995 245.413 892.728 245 893.555 244.68C894.408 244.36 895.301 244.2 896.235 244.2ZM895.635 248.6C894.461 248.6 893.435 248.893 892.555 249.48C891.675 250.067 890.981 250.867 890.475 251.88C889.995 252.867 889.755 254 889.755 255.28C889.755 256.533 889.995 257.68 890.475 258.72C890.981 259.733 891.675 260.533 892.555 261.12C893.435 261.707 894.461 262 895.635 262C896.808 262 897.821 261.707 898.675 261.12C899.555 260.533 900.235 259.733 900.715 258.72C901.221 257.68 901.475 256.533 901.475 255.28C901.475 254 901.221 252.867 900.715 251.88C900.235 250.867 899.555 250.067 898.675 249.48C897.821 248.893 896.808 248.6 895.635 248.6ZM926.152 244.6C926.845 244.6 927.419 244.84 927.872 245.32C928.325 245.773 928.552 246.347 928.552 247.04V264.04C928.552 266.493 928.085 268.44 927.152 269.88C926.245 271.347 925.019 272.4 923.472 273.04C921.925 273.68 920.192 274 918.272 274C917.419 274 916.512 273.933 915.552 273.8C914.592 273.667 913.805 273.467 913.192 273.2C912.392 272.853 911.832 272.413 911.512 271.88C911.219 271.373 911.165 270.827 911.352 270.24C911.592 269.467 911.979 268.933 912.512 268.64C913.045 268.373 913.605 268.347 914.192 268.56C914.619 268.693 915.179 268.893 915.872 269.16C916.565 269.453 917.365 269.6 918.272 269.6C919.499 269.6 920.512 269.427 921.312 269.08C922.139 268.76 922.752 268.2 923.152 267.4C923.579 266.627 923.792 265.56 923.792 264.2V261.52L924.632 262.48C924.179 263.36 923.605 264.093 922.912 264.68C922.245 265.24 921.445 265.667 920.512 265.96C919.579 266.253 918.512 266.4 917.312 266.4C915.899 266.4 914.659 266.08 913.592 265.44C912.552 264.773 911.739 263.867 911.152 262.72C910.565 261.547 910.272 260.213 910.272 258.72V247.04C910.272 246.347 910.499 245.773 910.952 245.32C911.405 244.84 911.979 244.6 912.672 244.6C913.365 244.6 913.939 244.84 914.392 245.32C914.845 245.773 915.072 246.347 915.072 247.04V257.28C915.072 259.013 915.445 260.24 916.192 260.96C916.965 261.653 918.032 262 919.392 262C920.325 262 921.112 261.827 921.752 261.48C922.392 261.107 922.885 260.573 923.232 259.88C923.579 259.16 923.752 258.293 923.752 257.28V247.04C923.752 246.347 923.979 245.773 924.432 245.32C924.885 244.84 925.459 244.6 926.152 244.6ZM957.359 238C959.279 238 960.986 238.36 962.479 239.08C963.973 239.8 965.226 240.813 966.239 242.12C967.279 243.4 968.053 244.893 968.559 246.6C969.093 248.28 969.359 250.08 969.359 252C969.359 254.587 968.893 256.947 967.959 259.08C967.026 261.187 965.666 262.867 963.879 264.12C962.119 265.373 959.946 266 957.359 266H947.799C947.106 266 946.519 265.773 946.039 265.32C945.586 264.84 945.359 264.253 945.359 263.56V240.44C945.359 239.747 945.586 239.173 946.039 238.72C946.519 238.24 947.106 238 947.799 238H957.359ZM956.959 261.4C958.639 261.4 960.013 260.973 961.079 260.12C962.146 259.24 962.919 258.093 963.399 256.68C963.906 255.24 964.159 253.68 964.159 252C964.159 250.747 964.013 249.56 963.719 248.44C963.453 247.293 963.026 246.293 962.439 245.44C961.853 244.56 961.106 243.867 960.199 243.36C959.293 242.853 958.213 242.6 956.959 242.6H949.959L950.359 242.24V261.84L950.119 261.4H956.959ZM984.793 244.2C986.713 244.2 988.166 244.613 989.153 245.44C990.166 246.267 990.86 247.373 991.233 248.76C991.606 250.12 991.793 251.64 991.793 253.32V263.56C991.793 264.253 991.566 264.84 991.113 265.32C990.66 265.773 990.086 266 989.393 266C988.7 266 988.126 265.773 987.673 265.32C987.22 264.84 986.993 264.253 986.993 263.56V253.32C986.993 252.44 986.886 251.653 986.673 250.96C986.46 250.24 986.073 249.667 985.513 249.24C984.953 248.813 984.153 248.6 983.113 248.6C982.1 248.6 981.233 248.813 980.513 249.24C979.793 249.667 979.246 250.24 978.873 250.96C978.526 251.653 978.353 252.44 978.353 253.32V263.56C978.353 264.253 978.126 264.84 977.673 265.32C977.22 265.773 976.646 266 975.953 266C975.26 266 974.686 265.773 974.233 265.32C973.78 264.84 973.553 264.253 973.553 263.56V238.84C973.553 238.147 973.78 237.573 974.233 237.12C974.686 236.64 975.26 236.4 975.953 236.4C976.646 236.4 977.22 236.64 977.673 237.12C978.126 237.573 978.353 238.147 978.353 238.84V248.76L977.753 248.64C977.993 248.187 978.326 247.707 978.753 247.2C979.18 246.667 979.7 246.173 980.313 245.72C980.926 245.267 981.606 244.907 982.353 244.64C983.1 244.347 983.913 244.2 984.793 244.2ZM1001.51 263.56C1001.51 264.253 1001.28 264.84 1000.83 265.32C1000.38 265.773 999.804 266 999.111 266C998.417 266 997.844 265.773 997.391 265.32C996.937 264.84 996.711 264.253 996.711 263.56V247.04C996.711 246.347 996.937 245.773 997.391 245.32C997.844 244.84 998.417 244.6 999.111 244.6C999.804 244.6 1000.38 244.84 1000.83 245.32C1001.28 245.773 1001.51 246.347 1001.51 247.04V263.56ZM999.071 242C998.164 242 997.524 241.853 997.151 241.56C996.777 241.267 996.591 240.747 996.591 240V239.24C996.591 238.467 996.791 237.947 997.191 237.68C997.617 237.387 998.257 237.24 999.111 237.24C1000.04 237.24 1000.7 237.387 1001.07 237.68C1001.44 237.973 1001.63 238.493 1001.63 239.24V240C1001.63 240.773 1001.43 241.307 1001.03 241.6C1000.63 241.867 999.977 242 999.071 242ZM1017.68 244.2C1019.82 244.2 1021.39 244.72 1022.4 245.76C1023.42 246.773 1024.08 248.093 1024.4 249.72L1023.72 249.36L1024.04 248.72C1024.36 248.107 1024.86 247.453 1025.52 246.76C1026.19 246.04 1026.99 245.44 1027.92 244.96C1028.88 244.453 1029.95 244.2 1031.12 244.2C1033.04 244.2 1034.5 244.613 1035.48 245.44C1036.5 246.267 1037.19 247.373 1037.56 248.76C1037.94 250.12 1038.12 251.64 1038.12 253.32V263.56C1038.12 264.253 1037.9 264.84 1037.44 265.32C1036.99 265.773 1036.42 266 1035.72 266C1035.03 266 1034.46 265.773 1034 265.32C1033.55 264.84 1033.32 264.253 1033.32 263.56V253.32C1033.32 252.44 1033.22 251.653 1033 250.96C1032.79 250.24 1032.4 249.667 1031.84 249.24C1031.28 248.813 1030.48 248.6 1029.44 248.6C1028.43 248.6 1027.56 248.813 1026.84 249.24C1026.12 249.667 1025.58 250.24 1025.2 250.96C1024.86 251.653 1024.68 252.44 1024.68 253.32V263.56C1024.68 264.253 1024.46 264.84 1024 265.32C1023.55 265.773 1022.98 266 1022.28 266C1021.59 266 1021.02 265.773 1020.56 265.32C1020.11 264.84 1019.88 264.253 1019.88 263.56V253.32C1019.88 252.44 1019.78 251.653 1019.56 250.96C1019.35 250.24 1018.96 249.667 1018.4 249.24C1017.84 248.813 1017.04 248.6 1016 248.6C1014.99 248.6 1014.12 248.813 1013.4 249.24C1012.68 249.667 1012.14 250.24 1011.76 250.96C1011.42 251.653 1011.24 252.44 1011.24 253.32V263.56C1011.24 264.253 1011.02 264.84 1010.56 265.32C1010.11 265.773 1009.54 266 1008.84 266C1008.15 266 1007.58 265.773 1007.12 265.32C1006.67 264.84 1006.44 264.253 1006.44 263.56V247.04C1006.44 246.347 1006.67 245.773 1007.12 245.32C1007.58 244.84 1008.15 244.6 1008.84 244.6C1009.54 244.6 1010.11 244.84 1010.56 245.32C1011.02 245.773 1011.24 246.347 1011.24 247.04V248.76L1010.64 248.64C1010.88 248.187 1011.22 247.707 1011.64 247.2C1012.07 246.667 1012.59 246.173 1013.2 245.72C1013.82 245.267 1014.5 244.907 1015.24 244.64C1015.99 244.347 1016.8 244.2 1017.68 244.2ZM1060.84 244.2C1061.53 244.2 1062.11 244.427 1062.56 244.88C1063.01 245.333 1063.24 245.92 1063.24 246.64V263.56C1063.24 264.253 1063.01 264.84 1062.56 265.32C1062.11 265.773 1061.53 266 1060.84 266C1060.15 266 1059.57 265.773 1059.12 265.32C1058.67 264.84 1058.44 264.253 1058.44 263.56V261.6L1059.32 261.96C1059.32 262.307 1059.13 262.733 1058.76 263.24C1058.39 263.72 1057.88 264.2 1057.24 264.68C1056.6 265.16 1055.84 265.573 1054.96 265.92C1054.11 266.24 1053.17 266.4 1052.16 266.4C1050.32 266.4 1048.65 265.933 1047.16 265C1045.67 264.04 1044.48 262.733 1043.6 261.08C1042.75 259.4 1042.32 257.48 1042.32 255.32C1042.32 253.133 1042.75 251.213 1043.6 249.56C1044.48 247.88 1045.65 246.573 1047.12 245.64C1048.59 244.68 1050.21 244.2 1052 244.2C1053.15 244.2 1054.2 244.373 1055.16 244.72C1056.12 245.067 1056.95 245.507 1057.64 246.04C1058.36 246.573 1058.91 247.12 1059.28 247.68C1059.68 248.213 1059.88 248.667 1059.88 249.04L1058.44 249.56V246.64C1058.44 245.947 1058.67 245.373 1059.12 244.92C1059.57 244.44 1060.15 244.2 1060.84 244.2ZM1052.76 262C1053.93 262 1054.96 261.707 1055.84 261.12C1056.72 260.533 1057.4 259.733 1057.88 258.72C1058.39 257.707 1058.64 256.573 1058.64 255.32C1058.64 254.04 1058.39 252.893 1057.88 251.88C1057.4 250.867 1056.72 250.067 1055.84 249.48C1054.96 248.893 1053.93 248.6 1052.76 248.6C1051.61 248.6 1050.6 248.893 1049.72 249.48C1048.84 250.067 1048.15 250.867 1047.64 251.88C1047.16 252.893 1046.92 254.04 1046.92 255.32C1046.92 256.573 1047.16 257.707 1047.64 258.72C1048.15 259.733 1048.84 260.533 1049.72 261.12C1050.6 261.707 1051.61 262 1052.76 262ZM1067.2 262.68C1066.93 262.307 1066.81 261.827 1066.84 261.24C1066.86 260.653 1067.21 260.147 1067.88 259.72C1068.3 259.453 1068.76 259.347 1069.24 259.4C1069.72 259.427 1070.18 259.667 1070.64 260.12C1071.41 260.893 1072.22 261.493 1073.08 261.92C1073.93 262.347 1075 262.56 1076.28 262.56C1076.68 262.533 1077.12 262.48 1077.6 262.4C1078.08 262.293 1078.49 262.08 1078.84 261.76C1079.21 261.413 1079.4 260.893 1079.4 260.2C1079.4 259.613 1079.2 259.147 1078.8 258.8C1078.4 258.453 1077.86 258.16 1077.2 257.92C1076.56 257.68 1075.84 257.453 1075.04 257.24C1074.21 257 1073.36 256.733 1072.48 256.44C1071.62 256.147 1070.84 255.773 1070.12 255.32C1069.4 254.84 1068.81 254.213 1068.36 253.44C1067.9 252.667 1067.68 251.693 1067.68 250.52C1067.68 249.187 1068.05 248.053 1068.8 247.12C1069.54 246.187 1070.5 245.467 1071.68 244.96C1072.88 244.453 1074.13 244.2 1075.44 244.2C1076.26 244.2 1077.13 244.307 1078.04 244.52C1078.94 244.707 1079.81 245.027 1080.64 245.48C1081.46 245.907 1082.16 246.48 1082.72 247.2C1083.01 247.6 1083.18 248.08 1083.24 248.64C1083.29 249.2 1083.04 249.707 1082.48 250.16C1082.08 250.48 1081.61 250.627 1081.08 250.6C1080.54 250.547 1080.1 250.36 1079.76 250.04C1079.3 249.453 1078.69 248.987 1077.92 248.64C1077.17 248.293 1076.3 248.12 1075.32 248.12C1074.92 248.12 1074.48 248.173 1074 248.28C1073.54 248.36 1073.14 248.56 1072.8 248.88C1072.45 249.173 1072.28 249.653 1072.28 250.32C1072.28 250.933 1072.48 251.427 1072.88 251.8C1073.28 252.147 1073.81 252.44 1074.48 252.68C1075.17 252.893 1075.9 253.107 1076.68 253.32C1077.48 253.533 1078.29 253.787 1079.12 254.08C1079.94 254.373 1080.7 254.76 1081.4 255.24C1082.09 255.72 1082.65 256.347 1083.08 257.12C1083.5 257.867 1083.72 258.827 1083.72 260C1083.72 261.36 1083.32 262.52 1082.52 263.48C1081.72 264.44 1080.72 265.173 1079.52 265.68C1078.32 266.16 1077.09 266.4 1075.84 266.4C1074.26 266.4 1072.69 266.133 1071.12 265.6C1069.54 265.04 1068.24 264.067 1067.2 262.68ZM1105.57 244.2C1106.26 244.2 1106.83 244.427 1107.29 244.88C1107.74 245.333 1107.97 245.92 1107.97 246.64V263.56C1107.97 264.253 1107.74 264.84 1107.29 265.32C1106.83 265.773 1106.26 266 1105.57 266C1104.87 266 1104.3 265.773 1103.85 265.32C1103.39 264.84 1103.17 264.253 1103.17 263.56V261.6L1104.05 261.96C1104.05 262.307 1103.86 262.733 1103.49 263.24C1103.11 263.72 1102.61 264.2 1101.97 264.68C1101.33 265.16 1100.57 265.573 1099.69 265.92C1098.83 266.24 1097.9 266.4 1096.89 266.4C1095.05 266.4 1093.38 265.933 1091.89 265C1090.39 264.04 1089.21 262.733 1088.33 261.08C1087.47 259.4 1087.05 257.48 1087.05 255.32C1087.05 253.133 1087.47 251.213 1088.33 249.56C1089.21 247.88 1090.38 246.573 1091.85 245.64C1093.31 244.68 1094.94 244.2 1096.73 244.2C1097.87 244.2 1098.93 244.373 1099.89 244.72C1100.85 245.067 1101.67 245.507 1102.37 246.04C1103.09 246.573 1103.63 247.12 1104.01 247.68C1104.41 248.213 1104.61 248.667 1104.61 249.04L1103.17 249.56V246.64C1103.17 245.947 1103.39 245.373 1103.85 244.92C1104.3 244.44 1104.87 244.2 1105.57 244.2ZM1097.49 262C1098.66 262 1099.69 261.707 1100.57 261.12C1101.45 260.533 1102.13 259.733 1102.61 258.72C1103.11 257.707 1103.37 256.573 1103.37 255.32C1103.37 254.04 1103.11 252.893 1102.61 251.88C1102.13 250.867 1101.45 250.067 1100.57 249.48C1099.69 248.893 1098.66 248.6 1097.49 248.6C1096.34 248.6 1095.33 248.893 1094.45 249.48C1093.57 250.067 1092.87 250.867 1092.37 251.88C1091.89 252.893 1091.65 254.04 1091.65 255.32C1091.65 256.573 1091.89 257.707 1092.37 258.72C1092.87 259.733 1093.57 260.533 1094.45 261.12C1095.33 261.707 1096.34 262 1097.49 262ZM1115.56 266C1114.87 266 1114.3 265.773 1113.84 265.32C1113.39 264.84 1113.16 264.253 1113.16 263.56V247.04C1113.16 246.347 1113.39 245.773 1113.84 245.32C1114.3 244.84 1114.87 244.6 1115.56 244.6C1116.26 244.6 1116.83 244.84 1117.28 245.32C1117.74 245.773 1117.96 246.347 1117.96 247.04V250.8L1117.68 248.12C1117.98 247.48 1118.35 246.92 1118.8 246.44C1119.28 245.933 1119.82 245.52 1120.4 245.2C1120.99 244.853 1121.62 244.6 1122.28 244.44C1122.95 244.28 1123.62 244.2 1124.28 244.2C1125.08 244.2 1125.75 244.427 1126.28 244.88C1126.84 245.333 1127.12 245.867 1127.12 246.48C1127.12 247.36 1126.9 248 1126.44 248.4C1125.99 248.773 1125.5 248.96 1124.96 248.96C1124.46 248.96 1123.99 248.867 1123.56 248.68C1123.16 248.493 1122.7 248.4 1122.16 248.4C1121.68 248.4 1121.19 248.52 1120.68 248.76C1120.2 248.973 1119.75 249.32 1119.32 249.8C1118.92 250.28 1118.59 250.88 1118.32 251.6C1118.08 252.293 1117.96 253.12 1117.96 254.08V263.56C1117.96 264.253 1117.74 264.84 1117.28 265.32C1116.83 265.773 1116.26 266 1115.56 266ZM1135.03 263.56C1135.03 264.253 1134.8 264.84 1134.35 265.32C1133.89 265.773 1133.32 266 1132.63 266C1131.93 266 1131.36 265.773 1130.91 265.32C1130.45 264.84 1130.23 264.253 1130.23 263.56V247.04C1130.23 246.347 1130.45 245.773 1130.91 245.32C1131.36 244.84 1131.93 244.6 1132.63 244.6C1133.32 244.6 1133.89 244.84 1134.35 245.32C1134.8 245.773 1135.03 246.347 1135.03 247.04V263.56ZM1132.59 242C1131.68 242 1131.04 241.853 1130.67 241.56C1130.29 241.267 1130.11 240.747 1130.11 240V239.24C1130.11 238.467 1130.31 237.947 1130.71 237.68C1131.13 237.387 1131.77 237.24 1132.63 237.24C1133.56 237.24 1134.21 237.387 1134.59 237.68C1134.96 237.973 1135.15 238.493 1135.15 239.24V240C1135.15 240.773 1134.95 241.307 1134.55 241.6C1134.15 241.867 1133.49 242 1132.59 242ZM1138.72 262.68C1138.45 262.307 1138.33 261.827 1138.36 261.24C1138.39 260.653 1138.73 260.147 1139.4 259.72C1139.83 259.453 1140.28 259.347 1140.76 259.4C1141.24 259.427 1141.71 259.667 1142.16 260.12C1142.93 260.893 1143.75 261.493 1144.6 261.92C1145.45 262.347 1146.52 262.56 1147.8 262.56C1148.2 262.533 1148.64 262.48 1149.12 262.4C1149.6 262.293 1150.01 262.08 1150.36 261.76C1150.73 261.413 1150.92 260.893 1150.92 260.2C1150.92 259.613 1150.72 259.147 1150.32 258.8C1149.92 258.453 1149.39 258.16 1148.72 257.92C1148.08 257.68 1147.36 257.453 1146.56 257.24C1145.73 257 1144.88 256.733 1144 256.44C1143.15 256.147 1142.36 255.773 1141.64 255.32C1140.92 254.84 1140.33 254.213 1139.88 253.44C1139.43 252.667 1139.2 251.693 1139.2 250.52C1139.2 249.187 1139.57 248.053 1140.32 247.12C1141.07 246.187 1142.03 245.467 1143.2 244.96C1144.4 244.453 1145.65 244.2 1146.96 244.2C1147.79 244.2 1148.65 244.307 1149.56 244.52C1150.47 244.707 1151.33 245.027 1152.16 245.48C1152.99 245.907 1153.68 246.48 1154.24 247.2C1154.53 247.6 1154.71 248.08 1154.76 248.64C1154.81 249.2 1154.56 249.707 1154 250.16C1153.6 250.48 1153.13 250.627 1152.6 250.6C1152.07 250.547 1151.63 250.36 1151.28 250.04C1150.83 249.453 1150.21 248.987 1149.44 248.64C1148.69 248.293 1147.83 248.12 1146.84 248.12C1146.44 248.12 1146 248.173 1145.52 248.28C1145.07 248.36 1144.67 248.56 1144.32 248.88C1143.97 249.173 1143.8 249.653 1143.8 250.32C1143.8 250.933 1144 251.427 1144.4 251.8C1144.8 252.147 1145.33 252.44 1146 252.68C1146.69 252.893 1147.43 253.107 1148.2 253.32C1149 253.533 1149.81 253.787 1150.64 254.08C1151.47 254.373 1152.23 254.76 1152.92 255.24C1153.61 255.72 1154.17 256.347 1154.6 257.12C1155.03 257.867 1155.24 258.827 1155.24 260C1155.24 261.36 1154.84 262.52 1154.04 263.48C1153.24 264.44 1152.24 265.173 1151.04 265.68C1149.84 266.16 1148.61 266.4 1147.36 266.4C1145.79 266.4 1144.21 266.133 1142.64 265.6C1141.07 265.04 1139.76 264.067 1138.72 262.68ZM1159.5 245H1168.98C1169.62 245 1170.15 245.213 1170.58 245.64C1171 246.067 1171.22 246.6 1171.22 247.24C1171.22 247.853 1171 248.373 1170.58 248.8C1170.15 249.2 1169.62 249.4 1168.98 249.4H1159.5C1158.86 249.4 1158.32 249.187 1157.9 248.76C1157.47 248.333 1157.26 247.8 1157.26 247.16C1157.26 246.547 1157.47 246.04 1157.9 245.64C1158.32 245.213 1158.86 245 1159.5 245ZM1163.78 240C1164.47 240 1165.03 240.24 1165.46 240.72C1165.91 241.173 1166.14 241.747 1166.14 242.44V260.24C1166.14 260.613 1166.2 260.92 1166.34 261.16C1166.5 261.4 1166.7 261.573 1166.94 261.68C1167.2 261.787 1167.48 261.84 1167.78 261.84C1168.1 261.84 1168.39 261.787 1168.66 261.68C1168.92 261.547 1169.23 261.48 1169.58 261.48C1169.95 261.48 1170.28 261.653 1170.58 262C1170.9 262.347 1171.06 262.827 1171.06 263.44C1171.06 264.187 1170.64 264.8 1169.82 265.28C1169.02 265.76 1168.15 266 1167.22 266C1166.66 266 1166.03 265.96 1165.34 265.88C1164.67 265.773 1164.03 265.547 1163.42 265.2C1162.83 264.827 1162.34 264.267 1161.94 263.52C1161.54 262.773 1161.34 261.747 1161.34 260.44V242.44C1161.34 241.747 1161.56 241.173 1162.02 240.72C1162.5 240.24 1163.08 240 1163.78 240ZM1193.14 244.2C1193.84 244.2 1194.41 244.427 1194.86 244.88C1195.32 245.333 1195.54 245.92 1195.54 246.64V263.56C1195.54 264.253 1195.32 264.84 1194.86 265.32C1194.41 265.773 1193.84 266 1193.14 266C1192.45 266 1191.88 265.773 1191.42 265.32C1190.97 264.84 1190.74 264.253 1190.74 263.56V261.6L1191.62 261.96C1191.62 262.307 1191.44 262.733 1191.06 263.24C1190.69 263.72 1190.18 264.2 1189.54 264.68C1188.9 265.16 1188.14 265.573 1187.26 265.92C1186.41 266.24 1185.48 266.4 1184.46 266.4C1182.62 266.4 1180.96 265.933 1179.46 265C1177.97 264.04 1176.78 262.733 1175.9 261.08C1175.05 259.4 1174.62 257.48 1174.62 255.32C1174.62 253.133 1175.05 251.213 1175.9 249.56C1176.78 247.88 1177.96 246.573 1179.42 245.64C1180.89 244.68 1182.52 244.2 1184.3 244.2C1185.45 244.2 1186.5 244.373 1187.46 244.72C1188.42 245.067 1189.25 245.507 1189.94 246.04C1190.66 246.573 1191.21 247.12 1191.58 247.68C1191.98 248.213 1192.18 248.667 1192.18 249.04L1190.74 249.56V246.64C1190.74 245.947 1190.97 245.373 1191.42 244.92C1191.88 244.44 1192.45 244.2 1193.14 244.2ZM1185.06 262C1186.24 262 1187.26 261.707 1188.14 261.12C1189.02 260.533 1189.7 259.733 1190.18 258.72C1190.69 257.707 1190.94 256.573 1190.94 255.32C1190.94 254.04 1190.69 252.893 1190.18 251.88C1189.7 250.867 1189.02 250.067 1188.14 249.48C1187.26 248.893 1186.24 248.6 1185.06 248.6C1183.92 248.6 1182.9 248.893 1182.02 249.48C1181.14 250.067 1180.45 250.867 1179.94 251.88C1179.46 252.893 1179.22 254.04 1179.22 255.32C1179.22 256.573 1179.46 257.707 1179.94 258.72C1180.45 259.733 1181.14 260.533 1182.02 261.12C1182.9 261.707 1183.92 262 1185.06 262Z" fill="black"/>
<path d="M406.648 462.32V459.824H410.368C411.072 459.824 411.616 459.632 412 459.248C412.384 458.88 412.576 458.376 412.576 457.736V456.944L412.624 454.28H411.976L412.912 453.128C412.912 454.392 412.568 455.392 411.88 456.128C411.192 456.848 410.272 457.208 409.12 457.208C407.776 457.208 406.704 456.76 405.904 455.864C405.12 454.952 404.728 453.72 404.728 452.168V449.6C404.728 448.064 405.12 446.84 405.904 445.928C406.704 445.016 407.776 444.56 409.12 444.56C410.272 444.56 411.192 444.928 411.88 445.664C412.568 446.4 412.912 447.4 412.912 448.664L411.976 447.08H412.624V444.8H415.552V457.808C415.552 459.2 415.088 460.296 414.16 461.096C413.248 461.912 412 462.32 410.416 462.32H406.648ZM410.128 454.64C410.896 454.64 411.488 454.416 411.904 453.968C412.336 453.504 412.552 452.864 412.552 452.048V449.744C412.552 448.928 412.336 448.296 411.904 447.848C411.488 447.384 410.896 447.152 410.128 447.152C409.36 447.152 408.768 447.376 408.352 447.824C407.936 448.256 407.728 448.864 407.728 449.648V452.144C407.728 452.928 407.936 453.544 408.352 453.992C408.768 454.424 409.36 454.64 410.128 454.64ZM419.215 458V455.288H423.727V447.512H419.695V444.8H426.727V455.288H430.783V458H419.215ZM425.023 442.592C424.415 442.592 423.935 442.44 423.583 442.136C423.231 441.816 423.055 441.392 423.055 440.864C423.055 440.336 423.231 439.92 423.583 439.616C423.935 439.296 424.415 439.136 425.023 439.136C425.631 439.136 426.111 439.296 426.463 439.616C426.815 439.92 426.991 440.336 426.991 440.864C426.991 441.392 426.815 441.816 426.463 442.136C426.111 442.44 425.631 442.592 425.023 442.592ZM440.301 458C439.069 458 438.085 457.648 437.349 456.944C436.629 456.224 436.269 455.256 436.269 454.04V447.512H432.621V444.8H436.269V441.08H439.293V444.8H444.549V447.512H439.293V453.968C439.293 454.352 439.397 454.672 439.605 454.928C439.829 455.168 440.133 455.288 440.517 455.288H444.429V458H440.301ZM448.02 458V440.48H451.02V444.8L450.948 447.32H451.764L450.876 448.016C450.892 446.96 451.228 446.12 451.884 445.496C452.54 444.872 453.412 444.56 454.5 444.56C455.796 444.56 456.828 444.992 457.596 445.856C458.38 446.72 458.772 447.88 458.772 449.336V458H455.772V449.696C455.772 448.88 455.564 448.256 455.148 447.824C454.732 447.376 454.156 447.152 453.42 447.152C452.668 447.152 452.076 447.376 451.644 447.824C451.228 448.272 451.02 448.912 451.02 449.744V458H448.02ZM467.763 458.24C466.083 458.24 464.763 457.776 463.803 456.848C462.843 455.904 462.363 454.624 462.363 453.008V444.8H465.363V452.984C465.363 453.816 465.571 454.464 465.987 454.928C466.403 455.392 466.995 455.624 467.763 455.624C468.515 455.624 469.099 455.392 469.515 454.928C469.947 454.464 470.163 453.816 470.163 452.984V444.8H473.163V453.008C473.163 454.624 472.675 455.904 471.699 456.848C470.723 457.776 469.411 458.24 467.763 458.24ZM483.353 458.24C482.185 458.24 481.257 457.872 480.569 457.136C479.881 456.384 479.537 455.368 479.537 454.088L480.401 455.336H479.729V458H476.801V440.48H479.801V444.176L479.705 447.464H480.401L479.513 448.712C479.513 447.432 479.857 446.424 480.545 445.688C481.249 444.936 482.185 444.56 483.353 444.56C484.649 444.56 485.689 445.016 486.473 445.928C487.257 446.84 487.649 448.072 487.649 449.624V453.2C487.649 454.736 487.257 455.96 486.473 456.872C485.689 457.784 484.649 458.24 483.353 458.24ZM482.225 455.648C482.993 455.648 483.585 455.44 484.001 455.024C484.433 454.592 484.649 453.952 484.649 453.104V449.696C484.649 448.832 484.433 448.192 484.001 447.776C483.585 447.36 482.993 447.152 482.225 447.152C481.457 447.152 480.857 447.384 480.425 447.848C480.009 448.312 479.801 448.968 479.801 449.816V452.984C479.801 453.832 480.009 454.488 480.425 454.952C480.857 455.416 481.457 455.648 482.225 455.648ZM496.544 458.24C495.872 458.24 495.328 458.04 494.912 457.64C494.512 457.224 494.312 456.688 494.312 456.032C494.312 455.36 494.512 454.824 494.912 454.424C495.328 454.008 495.872 453.8 496.544 453.8C497.216 453.8 497.752 454.008 498.152 454.424C498.568 454.824 498.776 455.36 498.776 456.032C498.776 456.688 498.568 457.224 498.152 457.64C497.752 458.04 497.216 458.24 496.544 458.24ZM511.15 458.24C510.014 458.24 509.022 458.032 508.174 457.616C507.342 457.184 506.694 456.584 506.23 455.816C505.766 455.032 505.534 454.112 505.534 453.056V449.744C505.534 448.672 505.766 447.752 506.23 446.984C506.694 446.216 507.342 445.624 508.174 445.208C509.022 444.776 510.014 444.56 511.15 444.56C512.798 444.56 514.118 444.992 515.11 445.856C516.102 446.704 516.63 447.864 516.694 449.336H513.742C513.694 448.648 513.438 448.12 512.974 447.752C512.51 447.368 511.902 447.176 511.15 447.176C510.334 447.176 509.694 447.4 509.23 447.848C508.766 448.28 508.534 448.904 508.534 449.72V453.056C508.534 453.872 508.766 454.504 509.23 454.952C509.694 455.4 510.334 455.624 511.15 455.624C511.902 455.624 512.51 455.44 512.974 455.072C513.438 454.688 513.694 454.152 513.742 453.464H516.694C516.63 454.936 516.102 456.104 515.11 456.968C514.118 457.816 512.798 458.24 511.15 458.24ZM525.325 458.216C524.205 458.216 523.229 458 522.397 457.568C521.565 457.136 520.925 456.528 520.477 455.744C520.029 454.944 519.805 454.008 519.805 452.936V449.864C519.805 448.776 520.029 447.84 520.477 447.056C520.925 446.272 521.565 445.664 522.397 445.232C523.229 444.8 524.205 444.584 525.325 444.584C526.461 444.584 527.437 444.8 528.253 445.232C529.085 445.664 529.725 446.272 530.173 447.056C530.621 447.84 530.845 448.776 530.845 449.864V452.936C530.845 454.008 530.621 454.944 530.173 455.744C529.725 456.528 529.085 457.136 528.253 457.568C527.437 458 526.461 458.216 525.325 458.216ZM525.325 455.6C526.125 455.6 526.741 455.384 527.173 454.952C527.621 454.504 527.845 453.864 527.845 453.032V449.768C527.845 448.92 527.621 448.28 527.173 447.848C526.741 447.416 526.125 447.2 525.325 447.2C524.541 447.2 523.925 447.416 523.477 447.848C523.029 448.28 522.805 448.92 522.805 449.768V453.032C522.805 453.864 523.029 454.504 523.477 454.952C523.925 455.384 524.541 455.6 525.325 455.6ZM533.644 458V444.8H536.14V446.72H536.644L536.188 447.056C536.188 446.32 536.388 445.72 536.788 445.256C537.188 444.792 537.724 444.56 538.396 444.56C539.116 444.56 539.7 444.84 540.148 445.4C540.612 445.944 540.844 446.656 540.844 447.536L540.268 446.672H541.084L540.7 447.056C540.716 446.288 540.932 445.68 541.348 445.232C541.764 444.784 542.316 444.56 543.004 444.56C543.82 444.56 544.484 444.872 544.996 445.496C545.524 446.12 545.788 446.936 545.788 447.944V458H543.148V448.16C543.148 447.728 543.044 447.392 542.836 447.152C542.644 446.896 542.364 446.768 541.996 446.768C541.644 446.768 541.372 446.896 541.18 447.152C541.004 447.392 540.916 447.728 540.916 448.16V458H538.516V448.16C538.516 447.728 538.42 447.392 538.228 447.152C538.052 446.896 537.788 446.768 537.436 446.768C537.068 446.768 536.78 446.896 536.572 447.152C536.38 447.392 536.284 447.728 536.284 448.16V458H533.644ZM548.346 460.64L556.746 438.08H559.866L551.466 460.64H548.346ZM567.297 458.24C566.017 458.24 564.977 457.784 564.177 456.872C563.393 455.96 563.001 454.736 563.001 453.2V449.624C563.001 448.072 563.393 446.84 564.177 445.928C564.977 445.016 566.017 444.56 567.297 444.56C568.481 444.56 569.417 444.936 570.105 445.688C570.793 446.424 571.137 447.432 571.137 448.712L570.249 447.464H570.945L570.849 444.176V440.48H573.849V458H570.921V455.336H570.249L571.113 454.088C571.113 455.368 570.769 456.384 570.081 457.136C569.409 457.872 568.481 458.24 567.297 458.24ZM568.425 455.648C569.193 455.648 569.785 455.416 570.201 454.952C570.633 454.488 570.849 453.832 570.849 452.984V449.816C570.849 448.968 570.633 448.312 570.201 447.848C569.785 447.384 569.193 447.152 568.425 447.152C567.657 447.152 567.057 447.36 566.625 447.776C566.209 448.192 566.001 448.832 566.001 449.696V453.104C566.001 453.952 566.209 454.592 566.625 455.024C567.057 455.44 567.657 455.648 568.425 455.648ZM577.536 458V440.48H580.536V444.8L580.464 447.32H581.28L580.392 448.016C580.408 446.96 580.744 446.12 581.4 445.496C582.056 444.872 582.928 444.56 584.016 444.56C585.312 444.56 586.344 444.992 587.112 445.856C587.896 446.72 588.288 447.88 588.288 449.336V458H585.288V449.696C585.288 448.88 585.08 448.256 584.664 447.824C584.248 447.376 583.672 447.152 582.936 447.152C582.184 447.152 581.592 447.376 581.16 447.824C580.744 448.272 580.536 448.912 580.536 449.744V458H577.536ZM591.902 458V455.288H596.414V447.512H592.382V444.8H599.414V455.288H603.47V458H591.902ZM597.71 442.592C597.102 442.592 596.622 442.44 596.27 442.136C595.918 441.816 595.742 441.392 595.742 440.864C595.742 440.336 595.918 439.92 596.27 439.616C596.622 439.296 597.102 439.136 597.71 439.136C598.318 439.136 598.798 439.296 599.15 439.616C599.502 439.92 599.678 440.336 599.678 440.864C599.678 441.392 599.502 441.816 599.15 442.136C598.798 442.44 598.318 442.592 597.71 442.592ZM605.597 458V444.8H608.093V446.72H608.597L608.141 447.056C608.141 446.32 608.341 445.72 608.741 445.256C609.141 444.792 609.677 444.56 610.349 444.56C611.069 444.56 611.653 444.84 612.101 445.4C612.565 445.944 612.797 446.656 612.797 447.536L612.221 446.672H613.037L612.653 447.056C612.669 446.288 612.885 445.68 613.301 445.232C613.717 444.784 614.269 444.56 614.957 444.56C615.773 444.56 616.437 444.872 616.949 445.496C617.477 446.12 617.741 446.936 617.741 447.944V458H615.101V448.16C615.101 447.728 614.997 447.392 614.789 447.152C614.597 446.896 614.317 446.768 613.949 446.768C613.597 446.768 613.325 446.896 613.133 447.152C612.957 447.392 612.869 447.728 612.869 448.16V458H610.469V448.16C610.469 447.728 610.373 447.392 610.181 447.152C610.005 446.896 609.741 446.768 609.389 446.768C609.021 446.768 608.733 446.896 608.525 447.152C608.333 447.392 608.237 447.728 608.237 448.16V458H605.597ZM624.595 458.24C623.251 458.24 622.187 457.864 621.403 457.112C620.635 456.344 620.251 455.344 620.251 454.112C620.251 453.248 620.451 452.504 620.851 451.88C621.251 451.256 621.819 450.776 622.555 450.44C623.307 450.088 624.187 449.912 625.195 449.912H628.411V448.976C628.411 448.336 628.211 447.848 627.811 447.512C627.427 447.16 626.851 446.984 626.083 446.984C625.379 446.984 624.811 447.12 624.379 447.392C623.963 447.664 623.739 448.048 623.707 448.544H620.827C620.891 447.344 621.387 446.384 622.315 445.664C623.259 444.928 624.523 444.56 626.107 444.56C627.787 444.56 629.091 444.952 630.019 445.736C630.947 446.52 631.411 447.624 631.411 449.048V458H628.483V455.48H628.003L628.531 455.048C628.531 455.704 628.371 456.272 628.051 456.752C627.731 457.216 627.275 457.584 626.683 457.856C626.091 458.112 625.395 458.24 624.595 458.24ZM625.555 455.792C626.435 455.792 627.131 455.576 627.643 455.144C628.155 454.712 628.411 454.136 628.411 453.416V451.856H625.339C624.683 451.856 624.163 452.04 623.779 452.408C623.395 452.76 623.203 453.232 623.203 453.824C623.203 454.416 623.403 454.896 623.803 455.264C624.219 455.616 624.803 455.792 625.555 455.792ZM639.898 458.216C638.858 458.216 637.954 458.056 637.186 457.736C636.434 457.416 635.85 456.96 635.434 456.368C635.018 455.776 634.81 455.072 634.81 454.256H637.762C637.762 454.768 637.946 455.16 638.314 455.432C638.698 455.704 639.226 455.84 639.898 455.84H640.954C641.674 455.84 642.226 455.704 642.61 455.432C643.01 455.144 643.21 454.752 643.21 454.256C643.21 453.776 643.074 453.416 642.802 453.176C642.53 452.936 642.114 452.784 641.554 452.72L638.266 452.288C637.21 452.16 636.394 451.752 635.818 451.064C635.258 450.376 634.978 449.504 634.978 448.448C634.978 447.2 635.394 446.248 636.226 445.592C637.058 444.92 638.258 444.584 639.826 444.584H640.93C642.402 444.584 643.586 444.92 644.482 445.592C645.378 446.264 645.842 447.16 645.874 448.28H642.898C642.882 447.864 642.698 447.536 642.346 447.296C641.994 447.04 641.522 446.912 640.93 446.912H639.826C639.186 446.912 638.698 447.048 638.362 447.32C638.026 447.576 637.858 447.928 637.858 448.376C637.858 448.776 637.978 449.072 638.218 449.264C638.474 449.44 638.842 449.56 639.322 449.624L642.418 450.056C643.634 450.216 644.546 450.656 645.154 451.376C645.778 452.08 646.09 453.024 646.09 454.208C646.09 455.488 645.65 456.48 644.77 457.184C643.906 457.872 642.634 458.216 640.954 458.216H639.898ZM653.377 458.24C652.033 458.24 650.969 457.864 650.185 457.112C649.417 456.344 649.033 455.344 649.033 454.112C649.033 453.248 649.233 452.504 649.633 451.88C650.033 451.256 650.601 450.776 651.337 450.44C652.089 450.088 652.969 449.912 653.977 449.912H657.193V448.976C657.193 448.336 656.993 447.848 656.593 447.512C656.209 447.16 655.633 446.984 654.865 446.984C654.161 446.984 653.593 447.12 653.161 447.392C652.745 447.664 652.521 448.048 652.489 448.544H649.609C649.673 447.344 650.169 446.384 651.097 445.664C652.041 444.928 653.305 444.56 654.889 444.56C656.569 444.56 657.873 444.952 658.801 445.736C659.729 446.52 660.193 447.624 660.193 449.048V458H657.265V455.48H656.785L657.313 455.048C657.313 455.704 657.153 456.272 656.833 456.752C656.513 457.216 656.057 457.584 655.465 457.856C654.873 458.112 654.177 458.24 653.377 458.24ZM654.337 455.792C655.217 455.792 655.913 455.576 656.425 455.144C656.937 454.712 657.193 454.136 657.193 453.416V451.856H654.121C653.465 451.856 652.945 452.04 652.561 452.408C652.177 452.76 651.985 453.232 651.985 453.824C651.985 454.416 652.185 454.896 652.585 455.264C653.001 455.616 653.585 455.792 654.337 455.792ZM664.359 458V444.8H667.287V447.464H668.103L667.215 448.184C667.215 447.064 667.543 446.184 668.199 445.544C668.871 444.888 669.783 444.56 670.935 444.56C672.279 444.56 673.327 444.992 674.079 445.856C674.831 446.72 675.207 447.928 675.207 449.48V450.728H672.207V449.624C672.207 448.808 671.999 448.192 671.583 447.776C671.167 447.36 670.575 447.152 669.807 447.152C669.023 447.152 668.415 447.392 667.983 447.872C667.567 448.352 667.359 449.032 667.359 449.912V458H664.359ZM678.246 458V455.288H682.758V447.512H678.726V444.8H685.758V455.288H689.814V458H678.246ZM684.054 442.592C683.446 442.592 682.966 442.44 682.614 442.136C682.262 441.816 682.086 441.392 682.086 440.864C682.086 440.336 682.262 439.92 682.614 439.616C682.966 439.296 683.446 439.136 684.054 439.136C684.662 439.136 685.142 439.296 685.494 439.616C685.846 439.92 686.022 440.336 686.022 440.864C686.022 441.392 685.846 441.816 685.494 442.136C685.142 442.44 684.662 442.592 684.054 442.592ZM697.461 458.216C696.421 458.216 695.517 458.056 694.749 457.736C693.997 457.416 693.413 456.96 692.997 456.368C692.581 455.776 692.373 455.072 692.373 454.256H695.325C695.325 454.768 695.509 455.16 695.877 455.432C696.261 455.704 696.789 455.84 697.461 455.84H698.517C699.237 455.84 699.789 455.704 700.173 455.432C700.573 455.144 700.773 454.752 700.773 454.256C700.773 453.776 700.637 453.416 700.365 453.176C700.093 452.936 699.677 452.784 699.117 452.72L695.829 452.288C694.773 452.16 693.957 451.752 693.381 451.064C692.821 450.376 692.541 449.504 692.541 448.448C692.541 447.2 692.957 446.248 693.789 445.592C694.621 444.92 695.821 444.584 697.389 444.584H698.493C699.965 444.584 701.149 444.92 702.045 445.592C702.941 446.264 703.405 447.16 703.437 448.28H700.461C700.445 447.864 700.261 447.536 699.909 447.296C699.557 447.04 699.085 446.912 698.493 446.912H697.389C696.749 446.912 696.261 447.048 695.925 447.32C695.589 447.576 695.421 447.928 695.421 448.376C695.421 448.776 695.541 449.072 695.781 449.264C696.037 449.44 696.405 449.56 696.885 449.624L699.981 450.056C701.197 450.216 702.109 450.656 702.717 451.376C703.341 452.08 703.653 453.024 703.653 454.208C703.653 455.488 703.213 456.48 702.333 457.184C701.469 457.872 700.197 458.216 698.517 458.216H697.461ZM713.723 458C712.491 458 711.507 457.648 710.771 456.944C710.051 456.224 709.691 455.256 709.691 454.04V447.512H706.043V444.8H709.691V441.08H712.715V444.8H717.971V447.512H712.715V453.968C712.715 454.352 712.819 454.672 713.027 454.928C713.251 455.168 713.555 455.288 713.939 455.288H717.851V458H713.723ZM725.33 458.24C723.986 458.24 722.922 457.864 722.138 457.112C721.37 456.344 720.986 455.344 720.986 454.112C720.986 453.248 721.186 452.504 721.586 451.88C721.986 451.256 722.554 450.776 723.29 450.44C724.042 450.088 724.922 449.912 725.93 449.912H729.146V448.976C729.146 448.336 728.946 447.848 728.546 447.512C728.162 447.16 727.586 446.984 726.818 446.984C726.114 446.984 725.546 447.12 725.114 447.392C724.698 447.664 724.474 448.048 724.442 448.544H721.562C721.626 447.344 722.122 446.384 723.05 445.664C723.994 444.928 725.258 444.56 726.842 444.56C728.522 444.56 729.826 444.952 730.754 445.736C731.682 446.52 732.146 447.624 732.146 449.048V458H729.218V455.48H728.738L729.266 455.048C729.266 455.704 729.106 456.272 728.786 456.752C728.466 457.216 728.01 457.584 727.418 457.856C726.826 458.112 726.13 458.24 725.33 458.24ZM726.29 455.792C727.17 455.792 727.866 455.576 728.378 455.144C728.89 454.712 729.146 454.136 729.146 453.416V451.856H726.074C725.418 451.856 724.898 452.04 724.514 452.408C724.13 452.76 723.938 453.232 723.938 453.824C723.938 454.416 724.138 454.896 724.538 455.264C724.954 455.616 725.538 455.792 726.29 455.792ZM735.424 460.64L743.824 438.08H746.944L738.544 460.64H735.424ZM755.647 458.24C754.463 458.24 753.423 458.032 752.527 457.616C751.647 457.2 750.959 456.6 750.463 455.816C749.983 455.032 749.743 454.112 749.743 453.056H752.695C752.695 453.84 752.959 454.464 753.487 454.928C754.031 455.392 754.751 455.624 755.647 455.624C756.511 455.624 757.191 455.392 757.687 454.928C758.199 454.464 758.455 453.856 758.455 453.104C758.455 452.528 758.295 452.016 757.975 451.568C757.655 451.12 757.183 450.824 756.559 450.68L754.207 450.08C752.943 449.76 751.943 449.16 751.207 448.28C750.471 447.4 750.103 446.352 750.103 445.136C750.103 444.144 750.319 443.28 750.751 442.544C751.199 441.808 751.823 441.24 752.623 440.84C753.439 440.44 754.391 440.24 755.479 440.24C756.583 440.24 757.543 440.44 758.359 440.84C759.175 441.24 759.807 441.808 760.255 442.544C760.719 443.264 760.951 444.112 760.951 445.088H758.023C758.023 444.4 757.791 443.856 757.327 443.456C756.863 443.04 756.247 442.832 755.479 442.832C754.727 442.832 754.127 443.04 753.679 443.456C753.247 443.856 753.031 444.384 753.031 445.04C753.031 445.584 753.183 446.032 753.487 446.384C753.807 446.736 754.247 446.992 754.807 447.152L757.231 447.752C758.527 448.072 759.543 448.712 760.279 449.672C761.031 450.632 761.407 451.776 761.407 453.104C761.407 454.144 761.167 455.048 760.687 455.816C760.223 456.584 759.559 457.184 758.695 457.616C757.831 458.032 756.815 458.24 755.647 458.24ZM764.926 458V455.288H768.454V443.192H764.926V440.48H775.006V443.192H771.478V455.288H775.006V458H764.926ZM778.452 458V440.48H782.364L784.332 448.016L786.324 440.48H790.26V458H787.452V450.632C787.452 449.624 787.476 448.584 787.524 447.512C787.588 446.424 787.66 445.376 787.74 444.368C787.82 443.344 787.908 442.416 788.004 441.584L785.532 450.392H783.06L780.684 441.8C780.78 442.536 780.868 443.368 780.948 444.296C781.044 445.224 781.116 446.224 781.164 447.296C781.228 448.368 781.26 449.48 781.26 450.632V458H778.452ZM793.467 458V440.48H804.363V443.264H796.419V447.944H803.739V450.728H796.467V458H793.467ZM811.674 458.24C810.33 458.24 809.266 457.864 808.482 457.112C807.714 456.344 807.33 455.344 807.33 454.112C807.33 453.248 807.53 452.504 807.93 451.88C808.33 451.256 808.898 450.776 809.634 450.44C810.386 450.088 811.266 449.912 812.273 449.912H815.49V448.976C815.49 448.336 815.29 447.848 814.89 447.512C814.506 447.16 813.93 446.984 813.162 446.984C812.458 446.984 811.89 447.12 811.458 447.392C811.042 447.664 810.818 448.048 810.786 448.544H807.906C807.97 447.344 808.466 446.384 809.394 445.664C810.338 444.928 811.602 444.56 813.186 444.56C814.866 444.56 816.17 444.952 817.098 445.736C818.026 446.52 818.49 447.624 818.49 449.048V458H815.562V455.48H815.082L815.61 455.048C815.61 455.704 815.45 456.272 815.13 456.752C814.81 457.216 814.354 457.584 813.762 457.856C813.17 458.112 812.474 458.24 811.674 458.24ZM812.634 455.792C813.514 455.792 814.21 455.576 814.722 455.144C815.234 454.712 815.49 454.136 815.49 453.416V451.856H812.418C811.762 451.856 811.242 452.04 810.858 452.408C810.474 452.76 810.282 453.232 810.282 453.824C810.282 454.416 810.482 454.896 810.882 455.264C811.298 455.616 811.882 455.792 812.634 455.792ZM827.744 458.24C826.608 458.24 825.616 458.032 824.768 457.616C823.936 457.184 823.288 456.584 822.824 455.816C822.36 455.032 822.128 454.112 822.128 453.056V449.744C822.128 448.672 822.36 447.752 822.824 446.984C823.288 446.216 823.936 445.624 824.768 445.208C825.616 444.776 826.608 444.56 827.744 444.56C829.392 444.56 830.712 444.992 831.704 445.856C832.696 446.704 833.224 447.864 833.288 449.336H830.336C830.288 448.648 830.032 448.12 829.568 447.752C829.104 447.368 828.496 447.176 827.744 447.176C826.928 447.176 826.288 447.4 825.824 447.848C825.36 448.28 825.128 448.904 825.128 449.72V453.056C825.128 453.872 825.36 454.504 825.824 454.952C826.288 455.4 826.928 455.624 827.744 455.624C828.496 455.624 829.104 455.44 829.568 455.072C830.032 454.688 830.288 454.152 830.336 453.464H833.288C833.224 454.936 832.696 456.104 831.704 456.968C830.712 457.816 829.392 458.24 827.744 458.24ZM843.239 458C842.007 458 841.023 457.648 840.287 456.944C839.567 456.224 839.207 455.256 839.207 454.04V447.512H835.559V444.8H839.207V441.08H842.231V444.8H847.487V447.512H842.231V453.968C842.231 454.352 842.335 454.672 842.543 454.928C842.767 455.168 843.071 455.288 843.455 455.288H847.367V458H843.239ZM856.309 458.216C855.189 458.216 854.213 458 853.381 457.568C852.549 457.136 851.909 456.528 851.461 455.744C851.013 454.944 850.789 454.008 850.789 452.936V449.864C850.789 448.776 851.013 447.84 851.461 447.056C851.909 446.272 852.549 445.664 853.381 445.232C854.213 444.8 855.189 444.584 856.309 444.584C857.445 444.584 858.421 444.8 859.237 445.232C860.069 445.664 860.709 446.272 861.157 447.056C861.605 447.84 861.829 448.776 861.829 449.864V452.936C861.829 454.008 861.605 454.944 861.157 455.744C860.709 456.528 860.069 457.136 859.237 457.568C858.421 458 857.445 458.216 856.309 458.216ZM856.309 455.6C857.109 455.6 857.725 455.384 858.157 454.952C858.605 454.504 858.829 453.864 858.829 453.032V449.768C858.829 448.92 858.605 448.28 858.157 447.848C857.725 447.416 857.109 447.2 856.309 447.2C855.525 447.2 854.909 447.416 854.461 447.848C854.013 448.28 853.789 448.92 853.789 449.768V453.032C853.789 453.864 854.013 454.504 854.461 454.952C854.909 455.384 855.525 455.6 856.309 455.6ZM865.828 458V444.8H868.756V447.464H869.572L868.684 448.184C868.684 447.064 869.012 446.184 869.668 445.544C870.34 444.888 871.252 444.56 872.404 444.56C873.748 444.56 874.796 444.992 875.548 445.856C876.3 446.72 876.676 447.928 876.676 449.48V450.728H873.676V449.624C873.676 448.808 873.468 448.192 873.052 447.776C872.636 447.36 872.044 447.152 871.276 447.152C870.492 447.152 869.884 447.392 869.452 447.872C869.036 448.352 868.828 449.032 868.828 449.912V458H865.828ZM881.851 462.32L883.723 457.28L878.755 444.8H881.923L884.467 451.544C884.611 451.944 884.755 452.384 884.899 452.864C885.043 453.328 885.147 453.76 885.211 454.16C885.259 453.76 885.347 453.328 885.475 452.864C885.619 452.384 885.763 451.944 885.907 451.544L888.259 444.8H891.427L884.995 462.32H881.851Z" fill="black"/>
<path d="M403 462.32H892.291V463.52H403V462.32Z" fill="black"/>
<path fill-rule="evenodd" clip-rule="evenodd" d="M369.481 432C358.723 432 350 440.721 350 451.481C350 460.089 355.582 467.391 363.322 469.967C364.296 470.147 364.653 469.544 364.653 469.03C364.653 468.565 364.635 467.031 364.627 465.403C359.207 466.581 358.063 463.104 358.063 463.104C357.177 460.852 355.9 460.254 355.9 460.254C354.132 459.045 356.034 459.07 356.034 459.07C357.989 459.207 359.02 461.077 359.02 461.077C360.757 464.055 363.577 463.194 364.689 462.697C364.864 461.438 365.369 460.578 365.926 460.091C361.599 459.6 357.05 457.929 357.05 450.464C357.05 448.337 357.811 446.599 359.057 445.235C358.855 444.745 358.188 442.763 359.246 440.08C359.246 440.08 360.881 439.556 364.604 442.077C366.158 441.645 367.825 441.428 369.481 441.42C371.136 441.428 372.804 441.644 374.361 442.076C378.079 439.556 379.713 440.079 379.713 440.079C380.773 442.762 380.106 444.744 379.904 445.234C381.153 446.599 381.909 448.337 381.909 450.464C381.909 457.946 377.352 459.593 373.014 460.076C373.713 460.68 374.335 461.866 374.335 463.683C374.335 466.29 374.313 468.388 374.313 469.029C374.313 469.548 374.664 470.155 375.651 469.964C383.387 467.385 388.962 460.085 388.962 451.481C388.962 440.722 380.24 432 369.481 432Z" fill="#181616"/>
<path d="M357.378 459.97C357.336 460.067 357.183 460.096 357.045 460.03C356.903 459.967 356.824 459.835 356.869 459.738C356.911 459.638 357.064 459.61 357.205 459.677C357.347 459.74 357.427 459.874 357.378 459.971L357.378 459.97ZM358.168 460.851C358.075 460.937 357.893 460.897 357.77 460.76C357.642 460.625 357.618 460.443 357.713 460.356C357.809 460.27 357.985 460.311 358.113 460.446C358.24 460.583 358.265 460.763 358.168 460.851L358.168 460.851ZM358.936 461.972C358.817 462.055 358.621 461.978 358.5 461.804C358.381 461.631 358.381 461.423 358.504 461.34C358.624 461.257 358.817 461.332 358.939 461.503C359.058 461.679 359.058 461.888 358.936 461.972ZM359.988 463.056C359.881 463.174 359.654 463.143 359.487 462.982C359.317 462.825 359.27 462.602 359.377 462.484C359.485 462.366 359.714 462.399 359.881 462.558C360.051 462.715 360.102 462.939 359.989 463.056L359.988 463.056ZM361.44 463.686C361.392 463.838 361.173 463.908 360.953 463.843C360.732 463.776 360.588 463.597 360.633 463.443C360.678 463.289 360.899 463.217 361.121 463.287C361.341 463.353 361.485 463.531 361.44 463.686ZM363.034 463.802C363.04 463.963 362.853 464.096 362.621 464.099C362.388 464.105 362.199 463.974 362.197 463.816C362.197 463.654 362.38 463.523 362.613 463.518C362.845 463.514 363.035 463.643 363.035 463.802L363.034 463.802ZM364.518 463.55C364.545 463.707 364.384 463.867 364.154 463.91C363.928 463.952 363.719 463.855 363.69 463.7C363.662 463.539 363.826 463.378 364.052 463.336C364.282 463.297 364.488 463.391 364.518 463.55Z" fill="#181616"/>
</svg>
