<svg width="400" height="200" viewBox="0 0 400 200" fill="none" xmlns="http://www.w3.org/2000/svg">
<g clip-path="url(#clip0_207_2)">
<g clip-path="url(#clip1_207_2)">
<path d="M9.56537 184.322V157.553H42.9887V155.987H9.56537V131.565H45.1019V130H8V185.888H45.4148V184.322H9.56537ZM75.5509 145.655L61.6966 163.893L48.1546 145.655H46.1195L60.757 165.067L44.7101 185.887H46.5888L61.6956 166.24L76.8809 185.887H78.8376L62.7132 165.066L77.4287 145.654H75.5505L75.5509 145.655ZM83.5347 199.664V174.617H83.6911C84.6307 178.269 86.4831 181.205 89.2488 183.423C92.0145 185.64 95.5366 186.749 99.8156 186.749C102.581 186.749 105.034 186.188 107.174 185.067C109.313 183.945 111.1 182.418 112.535 180.487C113.97 178.557 115.066 176.313 115.823 173.756C116.579 171.199 116.958 168.511 116.958 165.694C116.958 162.667 116.566 159.875 115.784 157.318C115.001 154.761 113.866 152.543 112.379 150.665C110.892 148.786 109.091 147.325 106.978 146.282C104.864 145.238 102.477 144.716 99.8156 144.716C97.7804 144.716 95.889 145.016 94.1409 145.616C92.3927 146.217 90.8405 147.064 89.4837 148.16C88.119 149.265 86.9311 150.571 85.9612 152.034C84.9699 153.522 84.2131 155.153 83.6911 156.927H83.5347V145.655H81.9693V199.664H83.5347ZM99.8156 185.261C94.9109 185.261 90.9707 183.579 87.9964 180.213C85.0221 176.847 83.5347 172.007 83.5347 165.693C83.5347 163.084 83.9002 160.605 84.6307 158.257C85.3613 155.909 86.4178 153.847 87.8005 152.073C89.1835 150.299 90.8927 148.89 92.9274 147.847C94.9625 146.803 97.2589 146.281 99.8156 146.281C102.425 146.281 104.708 146.803 106.665 147.847C108.621 148.89 110.239 150.312 111.518 152.112C112.796 153.913 113.762 155.974 114.414 158.296C115.066 160.618 115.392 163.084 115.392 165.693C115.392 168.041 115.092 170.377 114.492 172.699C113.892 175.021 112.966 177.108 111.713 178.961C110.461 180.813 108.857 182.326 106.9 183.501C104.942 184.675 102.581 185.261 99.8156 185.261ZM125.568 185.888V163.11C125.568 160.918 125.881 158.778 126.508 156.692C127.133 154.604 128.099 152.765 129.403 151.173C130.708 149.582 132.365 148.329 134.374 147.416C136.383 146.503 138.77 146.124 141.536 146.281V144.716C139.135 144.664 137.035 144.924 135.235 145.498C133.434 146.072 131.882 146.855 130.577 147.847C129.273 148.838 128.229 149.999 127.447 151.33C126.665 152.659 126.084 154.096 125.724 155.596H125.568V145.655H124.003V185.888L125.568 185.888ZM143.493 166.084H177.151C177.255 163.319 176.981 160.658 176.329 158.101C175.677 155.543 174.633 153.273 173.198 151.291C171.763 149.308 169.91 147.716 167.64 146.516C165.37 145.315 162.67 144.716 159.539 144.716C157.295 144.716 155.103 145.185 152.964 146.125C150.824 147.064 148.946 148.433 147.328 150.234C145.711 152.034 144.406 154.239 143.415 156.849C142.423 159.457 141.927 162.432 141.927 165.771C141.927 168.746 142.267 171.525 142.945 174.108C143.623 176.69 144.667 178.935 146.076 180.839C147.485 182.744 149.298 184.218 151.516 185.261C153.733 186.305 156.408 186.801 159.539 186.749C164.131 186.749 167.993 185.457 171.123 182.874C174.255 180.291 176.107 176.651 176.681 171.955H175.116C174.437 176.391 172.702 179.717 169.91 181.935C167.118 184.153 163.609 185.261 159.382 185.261C156.512 185.261 154.086 184.766 152.103 183.775C150.12 182.783 148.502 181.426 147.25 179.704C145.998 177.982 145.071 175.96 144.471 173.638C143.871 171.316 143.545 168.798 143.493 166.084ZM175.585 164.519H143.493C143.649 161.701 144.171 159.17 145.058 156.927C145.946 154.682 147.106 152.765 148.542 151.173C149.976 149.582 151.647 148.369 153.551 147.533C155.456 146.699 157.504 146.281 159.696 146.281C162.305 146.281 164.6 146.764 166.584 147.729C168.566 148.695 170.223 150.012 171.554 151.682C172.885 153.352 173.889 155.296 174.568 157.513C175.246 159.731 175.585 162.067 175.585 164.519ZM209.635 157.553H211.2C211.2 153.065 209.895 149.803 207.287 147.768C204.677 145.733 201.129 144.716 196.641 144.716C194.136 144.716 192.023 145.029 190.301 145.655C188.579 146.281 187.17 147.09 186.074 148.081C184.978 149.072 184.196 150.168 183.726 151.369C183.256 152.569 183.021 153.717 183.021 154.813C183.021 157.004 183.412 158.753 184.196 160.057C184.978 161.362 186.204 162.379 187.874 163.11C189.022 163.631 190.326 164.101 191.788 164.519C193.249 164.937 194.945 165.38 196.876 165.849C198.598 166.268 200.294 166.685 201.964 167.102C203.634 167.52 205.108 168.08 206.386 168.785C207.665 169.489 208.708 170.39 209.517 171.486C210.326 172.581 210.73 174.016 210.73 175.79C210.73 177.513 210.326 178.974 209.517 180.174C208.715 181.368 207.659 182.37 206.426 183.109C205.173 183.866 203.777 184.413 202.238 184.753C200.698 185.092 199.198 185.261 197.737 185.261C192.988 185.261 189.348 184.205 186.818 182.092C184.287 179.978 183.022 176.651 183.022 172.111H181.456C181.456 177.173 182.826 180.878 185.565 183.227C188.305 185.575 192.362 186.749 197.737 186.749C199.459 186.749 201.194 186.553 202.942 186.162C204.69 185.77 206.256 185.131 207.639 184.244C209.009 183.369 210.161 182.191 211.004 180.8C211.865 179.391 212.296 177.669 212.296 175.634C212.296 173.703 211.917 172.138 211.161 170.937C210.404 169.737 209.413 168.746 208.186 167.963C206.96 167.18 205.578 166.567 204.038 166.124C202.49 165.678 200.937 165.247 199.38 164.832C197.465 164.329 195.547 163.834 193.627 163.345C191.984 162.927 190.458 162.432 189.049 161.858C187.692 161.283 186.609 160.462 185.8 159.392C184.991 158.322 184.587 156.796 184.587 154.813C184.587 154.448 184.691 153.795 184.9 152.856C185.108 151.917 185.605 150.964 186.387 149.999C187.17 149.034 188.37 148.173 189.988 147.416C191.605 146.66 193.823 146.281 196.641 146.281C198.572 146.281 200.333 146.49 201.924 146.907C203.516 147.325 204.886 147.99 206.034 148.903C207.182 149.817 208.069 150.977 208.695 152.386C209.321 153.796 209.635 155.518 209.635 157.553ZM245.875 157.553H247.441C247.441 153.065 246.137 149.803 243.527 147.768C240.918 145.733 237.37 144.716 232.882 144.716C230.377 144.716 228.264 145.029 226.542 145.655C224.82 146.281 223.411 147.09 222.315 148.081C221.219 149.072 220.436 150.168 219.967 151.369C219.497 152.569 219.262 153.717 219.262 154.813C219.262 157.004 219.654 158.753 220.437 160.057C221.219 161.362 222.446 162.379 224.115 163.11C225.264 163.631 226.568 164.101 228.029 164.519C229.49 164.937 231.186 165.38 233.117 165.849C234.839 166.268 236.535 166.685 238.205 167.102C239.875 167.52 241.348 168.08 242.627 168.785C243.906 169.489 244.949 170.39 245.758 171.486C246.567 172.581 246.971 174.016 246.971 175.79C246.971 177.513 246.567 178.974 245.758 180.174C244.956 181.368 243.901 182.37 242.667 183.109C241.414 183.866 240.018 184.413 238.478 184.753C236.939 185.092 235.439 185.261 233.978 185.261C229.229 185.261 225.59 184.205 223.059 182.092C220.527 179.978 219.262 176.651 219.262 172.111H217.697C217.697 177.173 219.066 180.878 221.806 183.227C224.546 185.575 228.603 186.749 233.978 186.749C235.7 186.749 237.435 186.553 239.183 186.162C240.931 185.77 242.497 185.131 243.88 184.244C245.251 183.369 246.402 182.191 247.245 180.8C248.107 179.391 248.537 177.669 248.537 175.634C248.537 173.703 248.159 172.138 247.402 170.937C246.645 169.737 245.654 168.746 244.428 167.963C243.201 167.18 241.818 166.567 240.279 166.124C238.731 165.678 237.178 165.247 235.622 164.832C233.706 164.329 231.788 163.834 229.868 163.345C228.225 162.927 226.698 162.432 225.289 161.858C223.933 161.283 222.85 160.462 222.041 159.392C221.232 158.322 220.828 156.796 220.828 154.813C220.828 154.448 220.932 153.795 221.141 152.856C221.35 151.917 221.846 150.964 222.628 149.999C223.411 149.034 224.611 148.173 226.228 147.416C227.846 146.66 230.064 146.281 232.882 146.281C234.813 146.281 236.574 146.49 238.166 146.907C239.757 147.325 241.127 147.99 242.275 148.903C243.423 149.817 244.31 150.977 244.936 152.386C245.563 153.796 245.876 155.518 245.876 157.553H245.875Z" fill="#222222"/>
</g>
<g clip-path="url(#clip2_207_2)">
<path d="M256.298 87.1242L262.049 105.786C263.342 110.023 263.881 112.98 263.665 114.666C266.81 106.242 269.008 97.0609 270.258 87.1242H277.174C274.201 103.301 270.278 115.057 265.41 122.39C261.617 128.042 257.462 130.867 252.937 130.867C251.73 130.867 250.243 130.503 248.478 129.779V125.879C249.34 126.006 250.352 126.073 251.515 126.073C253.626 126.073 255.328 125.488 256.622 124.321C258.172 122.898 258.948 121.299 258.948 119.526C258.948 118.316 258.343 115.833 257.138 112.076L249.125 87.1242H256.298ZM212.28 75.6543L222.815 107.796H222.88L233.479 75.6543H242.138C244.034 91.5941 245.154 106.178 245.498 119.398H238.197C237.94 107.04 237.229 95.4201 236.065 84.535H236.002L224.884 119.398H219.324L208.274 84.535H208.209C207.389 94.9888 206.873 106.609 206.658 119.398H200C200.43 103.844 201.507 89.2643 203.23 75.6543H212.28Z" fill="#00758F"/>
<path d="M330.293 75.0052C341.625 75.0052 347.291 82.2448 347.291 96.7168C347.291 104.581 345.587 110.521 342.182 114.534C341.568 115.268 340.89 115.901 340.176 116.488L348.195 120.453L348.187 120.453L345.34 125.37L334.897 119.276C333.166 119.789 331.261 120.045 329.186 120.045C323.622 120.045 319.466 118.424 316.718 115.184C313.702 111.601 312.195 105.96 312.195 98.2714C312.195 90.4516 313.896 84.5339 317.301 80.5157C320.403 76.8401 324.735 75.0052 330.293 75.0052ZM295.592 75.0688C299.642 75.0688 303.325 76.1526 306.642 78.3123L304.957 82.0666C302.119 80.8601 299.32 80.2543 296.561 80.2543C294.322 80.2543 292.596 80.7932 291.393 81.8777C290.184 82.9526 289.436 84.3358 289.436 86.022C289.436 88.6131 291.282 90.86 294.69 92.7585C295.807 93.3688 296.919 93.9862 298.028 94.6107L298.283 94.7537L298.41 94.8254L298.665 94.9685L298.792 95.0402L299.046 95.1836C301.626 96.6381 304.054 98.0264 304.054 98.0264C307.462 100.446 309.161 103.025 309.161 107.273C309.161 110.983 307.801 114.028 305.091 116.411C302.379 118.784 298.736 119.973 294.173 119.973C289.906 119.973 285.77 118.604 281.764 115.889L283.638 112.131C287.085 113.859 290.205 114.722 293.006 114.722C295.634 114.722 297.69 114.135 299.178 112.977C300.663 111.81 301.553 110.183 301.553 108.119C301.553 105.522 299.746 103.301 296.431 101.439C295.394 100.866 294.36 100.287 293.328 99.7026L293.074 99.5589C292.608 99.2953 292.138 99.0284 291.678 98.7671L291.429 98.6252C289.19 97.3522 287.255 96.24 287.255 96.24C283.942 93.8163 282.281 91.216 282.281 86.9313C282.281 83.3877 283.52 80.5234 285.994 78.3445C288.474 76.1607 291.674 75.0688 295.592 75.0688ZM360.608 75.6543V114.017H374.372V119.398H353.627V75.6543H360.608ZM382.021 114.034V114.943H380.507V119.393H379.35V114.943H377.778V114.034H382.021H382.021ZM384.815 114.034L386.268 117.687L387.603 114.034H389.243V119.393H388.152V115.315L386.633 119.393H385.847L384.325 115.315H384.267V119.393H383.235V114.034H384.815H384.815ZM329.58 80.3848C322.903 80.3848 319.562 85.8959 319.562 96.9108C319.562 103.22 320.447 107.796 322.214 110.647C323.851 113.286 326.414 114.603 329.905 114.603C336.583 114.603 339.923 109.049 339.923 97.9465C339.923 91.7253 339.038 87.1893 337.273 84.3361C335.634 81.7029 333.072 80.3848 329.581 80.3848H329.58Z" fill="#F29111"/>
<path d="M312.078 4.7105C314.293 -0.73263 322.038 3.38946 325.044 5.29082C325.781 5.76653 326.626 6.77155 327.47 7.14302C328.788 7.19477 330.105 7.2979 331.425 7.35297C333.901 7.93476 336.22 8.41011 338.17 9.52121C347.237 14.8605 353.139 20.3014 358.57 29.2885C359.731 31.1921 360.311 33.252 361.259 35.312C362.575 38.3825 364.053 41.6056 365.581 44.509C366.264 45.8855 366.793 47.4162 367.743 48.5786C368.114 49.1102 369.167 49.2669 369.796 49.5844C371.536 50.4852 373.645 51.169 375.281 52.2261C378.338 54.1319 381.293 56.4029 383.98 58.7279C384.981 59.6253 385.663 60.8957 386.617 61.8449V62.324C385.77 62.5838 384.927 62.85 384.082 63.0632C382.237 63.5371 380.603 63.4299 378.813 63.9041C377.707 64.225 376.334 64.6482 375.174 64.7558L375.281 64.8637C375.964 66.8135 379.656 68.3992 381.344 69.5653C383.395 71.0453 385.295 72.8402 386.825 74.9017C387.353 75.4276 387.881 75.9063 388.407 76.4308C388.774 76.9623 388.877 77.6498 389.249 78.1237V78.2841C388.838 78.1389 388.541 77.8616 388.261 77.5718L388.093 77.397C387.926 77.2233 387.757 77.0525 387.565 76.9117C386.401 76.117 385.245 75.1663 384.082 74.4274C382.081 73.1581 379.761 72.4215 377.707 71.1474C376.546 70.4077 375.439 69.5654 374.332 68.7189C373.328 67.9771 372.223 66.5525 371.593 65.4954C371.221 64.9114 371.17 64.225 370.746 63.8025C370.822 63.0969 371.468 62.8873 372.12 62.715L372.27 62.6755C372.496 62.6171 372.716 62.5587 372.908 62.4814C375.648 61.3179 378.916 60.8957 383.135 61.0014C382.976 59.9421 380.339 58.6222 379.498 57.9879C377.809 56.7703 376.02 55.4999 374.228 54.3918C373.278 53.8115 371.642 53.3879 370.59 52.9136C369.167 52.3318 366.003 51.7504 365.214 50.6423C363.874 48.8954 362.912 46.8118 361.977 44.7072L361.723 44.1328C361.638 43.9413 361.553 43.75 361.468 43.5587C360.364 41.0242 358.992 38.3817 357.885 35.7866C357.306 34.5206 357.04 33.4095 356.406 32.1953C352.559 24.7443 346.866 18.5061 339.963 14.119C337.695 12.6915 335.165 11.3705 332.373 10.4726C330.791 9.9947 328.892 10.259 327.206 9.89231H326.096C325.149 9.62544 324.359 8.62153 323.62 8.09223C321.988 6.98408 320.353 6.24002 318.402 5.44939C317.718 5.13225 315.765 4.39373 315.084 4.97516C314.661 5.08124 314.447 5.24055 314.344 5.66414C313.924 6.29621 314.293 7.24837 314.554 7.83127C315.346 9.52047 316.452 10.5244 317.456 11.9519C318.349 13.2179 319.458 14.6454 320.091 16.0218C321.457 18.9807 322.094 22.2589 323.359 25.2174C323.829 26.33 324.572 27.596 325.255 28.5995C325.834 29.3961 326.887 29.972 327.206 30.9803C327.841 32.0374 326.255 35.5256 325.888 36.6334C324.515 40.968 324.781 46.9933 326.362 50.7506L326.447 50.9487L326.531 51.1494C327.108 52.5255 327.726 54.0074 329.261 54.3921C329.367 54.2872 329.261 54.3422 329.471 54.2872C329.842 51.3789 329.947 48.5783 330.949 46.3028C331.529 44.8801 332.685 43.8744 333.478 42.713C334.007 43.0294 334.007 43.9834 334.322 44.6148C335.008 46.2522 335.744 48.0475 336.59 49.6897C338.326 53.0718 340.279 56.3508 342.492 59.3093C343.233 60.3661 344.284 61.5293 345.233 62.4811C345.655 62.8496 346.129 63.0625 346.446 63.5367H346.55V63.6964C344.968 63.1135 343.966 61.4775 342.705 60.5224C340.33 58.7271 337.487 56.0311 335.85 53.444C335.165 51.9589 334.425 50.5354 333.688 49.0577V48.9509C333.372 49.373 333.478 49.7921 333.32 50.4308C332.636 53.0718 333.163 56.0847 330.791 57.0346C328.102 58.1472 326.097 55.2393 325.255 53.9179C322.566 49.5319 321.829 42.1327 323.725 36.1599C324.147 34.8377 324.204 33.252 324.94 32.1964C324.781 31.242 324.045 30.981 323.62 30.3963C322.882 29.3968 322.25 28.2325 321.673 27.1225C320.563 24.9543 319.773 22.3635 318.931 20.0382C318.561 19.0886 318.455 18.1354 318.085 17.2364C317.455 15.8644 316.294 14.4879 315.399 13.274C314.186 11.5294 310.654 8.14804 312.078 4.7105ZM329.366 15.0656C329.507 15.2068 329.677 15.3303 329.853 15.4519L330.065 15.5975C330.348 15.7934 330.622 15.9997 330.789 16.2806C331.056 16.6524 331.105 17.0195 331.424 17.3921C331.424 18.6625 331.056 19.5071 330.312 20.0334C330.312 20.0334 330.262 20.0889 330.209 20.1406C329.788 19.2938 329.419 18.4514 328.994 17.6053C328.472 16.8668 327.733 16.281 327.307 15.4371H327.205V15.331C327.841 15.1739 328.472 15.0656 329.366 15.0656Z" fill="#00758F"/>
</g>
<path d="M253.875 136.875H308.125V191.125H253.875V136.875Z" fill="#F5DE19"/>
<path d="M290.317 179.258C290.78 180.197 291.498 180.986 292.389 181.534C293.28 182.083 294.308 182.368 295.355 182.358C297.467 182.358 298.817 181.302 298.817 179.839C298.817 178.095 297.43 177.471 295.105 176.454L293.83 175.908C290.149 174.34 287.708 172.378 287.708 168.227C287.708 164.405 290.614 161.493 295.173 161.493C296.649 161.386 298.123 161.716 299.412 162.442C300.702 163.168 301.749 164.258 302.423 165.575L298.438 168.123C298.178 167.47 297.726 166.911 297.142 166.521C296.557 166.13 295.868 165.927 295.165 165.937C294.858 165.907 294.549 165.94 294.256 166.036C293.963 166.131 293.693 166.287 293.464 166.492C293.234 166.698 293.05 166.949 292.923 167.23C292.796 167.511 292.729 167.815 292.726 168.123C292.726 169.652 293.673 170.272 295.861 171.223L297.136 171.769C301.468 173.627 303.917 175.52 303.917 179.777C303.917 184.367 300.311 186.882 295.469 186.882C293.583 187.002 291.702 186.574 290.053 185.648C288.405 184.723 287.059 183.341 286.179 181.668L290.317 179.258ZM272.308 179.699C273.109 181.12 273.837 182.321 275.589 182.321C277.263 182.321 278.32 181.666 278.32 179.118V161.783H283.418V179.186C283.418 184.464 280.318 186.866 275.806 186.866C274.211 186.953 272.626 186.556 271.262 185.726C269.897 184.896 268.815 183.672 268.158 182.216L272.308 179.699Z" fill="black"/>
<path d="M176.846 117.909C176.398 117.909 175.952 117.791 175.559 117.562L171.46 115.137C170.848 114.795 171.146 114.673 171.349 114.603C172.166 114.318 172.331 114.252 173.202 113.76C173.293 113.709 173.412 113.728 173.507 113.783L176.655 115.653C176.713 115.685 176.779 115.701 176.845 115.701C176.911 115.701 176.977 115.685 177.035 115.653L189.313 108.567C189.371 108.533 189.418 108.484 189.452 108.426C189.485 108.368 189.502 108.302 189.501 108.235V94.0653C189.502 93.9972 189.484 93.9303 189.451 93.8709C189.417 93.8116 189.369 93.7618 189.311 93.7265L177.038 86.6464C176.98 86.6145 176.915 86.5977 176.849 86.5977C176.783 86.5977 176.717 86.6145 176.659 86.6464L164.388 93.728C164.33 93.7632 164.281 93.8126 164.248 93.8716C164.214 93.9306 164.196 93.9973 164.195 94.0653V108.235C164.195 108.371 164.27 108.499 164.388 108.563L167.751 110.507C169.576 111.418 170.695 110.345 170.695 109.265V95.2734C170.695 95.0769 170.854 94.9207 171.05 94.9207H172.608C172.801 94.9207 172.962 95.0769 172.962 95.2734V109.265C172.962 111.7 171.637 113.096 169.327 113.096C168.617 113.096 168.059 113.096 166.499 112.329L163.28 110.476C162.889 110.248 162.564 109.921 162.338 109.528C162.112 109.135 161.993 108.689 161.993 108.236V94.0668C161.993 93.1464 162.484 92.2879 163.28 91.83L175.558 84.7345C175.954 84.5191 176.397 84.4062 176.847 84.4062C177.298 84.4062 177.741 84.5191 178.137 84.7345L190.414 91.83C191.209 92.2894 191.703 93.148 191.703 94.0668V108.236C191.702 108.689 191.583 109.135 191.357 109.528C191.131 109.921 190.806 110.248 190.414 110.476L178.137 117.564C177.745 117.791 177.3 117.91 176.846 117.909ZM180.641 108.146C175.266 108.146 174.141 105.679 174.141 103.611C174.141 103.517 174.179 103.427 174.246 103.36C174.312 103.294 174.403 103.257 174.497 103.257H176.084C176.169 103.256 176.251 103.287 176.316 103.342C176.38 103.397 176.423 103.473 176.437 103.557C176.675 105.173 177.391 105.989 180.641 105.989C183.226 105.989 184.327 105.404 184.327 104.03C184.327 103.238 184.015 102.652 179.996 102.258C176.636 101.925 174.559 101.184 174.559 98.494C174.559 96.0174 176.647 94.5386 180.146 94.5386C184.08 94.5386 186.026 95.9045 186.272 98.8343C186.275 98.8836 186.269 98.9332 186.253 98.98C186.237 99.0268 186.212 99.0698 186.179 99.1065C186.145 99.1417 186.105 99.1698 186.06 99.1892C186.016 99.2086 185.968 99.2189 185.919 99.2194H184.324C184.244 99.2196 184.166 99.1922 184.103 99.1418C184.04 99.0914 183.996 99.0211 183.979 98.9426C183.596 97.241 182.667 96.698 180.144 96.698C177.321 96.698 176.993 97.6834 176.993 98.4182C176.993 99.3107 177.38 99.5706 181.193 100.075C184.966 100.575 186.759 101.28 186.759 103.933C186.76 106.614 184.53 108.146 180.641 108.146Z" fill="#83CD29"/>
<path d="M151.566 98.8528C152.05 98.5697 152.349 98.053 152.349 97.4915V93.8502C152.349 93.2902 152.052 92.7735 151.566 92.4905L138.628 84.9788C138.389 84.8397 138.117 84.7662 137.84 84.7656C137.563 84.7651 137.291 84.8376 137.052 84.9757L124.033 92.492C123.794 92.6302 123.596 92.8287 123.458 93.0676C123.32 93.3065 123.248 93.5774 123.247 93.8533V108.883C123.247 109.447 123.55 109.97 124.042 110.25L136.979 117.621C137.455 117.895 138.04 117.896 138.521 117.63L146.345 113.28C146.467 113.213 146.569 113.114 146.64 112.994C146.711 112.875 146.749 112.738 146.75 112.599C146.751 112.459 146.715 112.322 146.645 112.202C146.576 112.081 146.475 111.981 146.354 111.911L133.256 104.394C133.135 104.325 133.035 104.226 132.966 104.107C132.896 103.987 132.86 103.851 132.86 103.713V99.0013C132.86 98.7197 133.01 98.4614 133.252 98.3222L137.332 95.9709C137.451 95.9018 137.586 95.8654 137.724 95.8654C137.861 95.8654 137.997 95.9018 138.116 95.9709L142.195 98.3222C142.315 98.3907 142.414 98.4896 142.483 98.6088C142.553 98.728 142.589 98.8634 142.589 99.0013V102.708C142.589 102.846 142.624 102.982 142.693 103.103C142.763 103.223 142.862 103.323 142.982 103.392C143.102 103.461 143.239 103.497 143.377 103.496C143.516 103.496 143.652 103.458 143.771 103.388L151.566 98.8528Z" fill="#404137"/>
<path d="M137.647 98.1472C137.693 98.1214 137.745 98.1079 137.798 98.1079C137.851 98.1079 137.903 98.1214 137.949 98.1472L140.447 99.5904C140.54 99.6445 140.597 99.7451 140.597 99.8518V102.737C140.597 102.845 140.54 102.944 140.447 102.998L137.949 104.44C137.903 104.466 137.851 104.481 137.798 104.481C137.745 104.481 137.693 104.466 137.647 104.44L135.15 102.998C135.104 102.972 135.066 102.934 135.039 102.888C135.013 102.842 134.999 102.79 134.999 102.737V99.8518C134.999 99.7451 135.056 99.6445 135.15 99.5904L137.647 98.1472Z" fill="#83CD29"/>
<path d="M103.769 104.149C103.769 104.288 103.695 104.418 103.573 104.489L99.1021 107.067C99.0425 107.102 98.9747 107.12 98.9057 107.12C98.8366 107.12 98.7688 107.102 98.7092 107.067L94.2387 104.489C94.1791 104.455 94.1296 104.405 94.0951 104.346C94.0607 104.286 94.0424 104.218 94.0423 104.149V98.9857C94.0423 98.8465 94.1181 98.715 94.2387 98.6438L98.7092 96.0637C98.7688 96.0279 98.837 96.0091 98.9064 96.0091C98.9759 96.0091 99.0441 96.0279 99.1037 96.0637L103.576 98.6438C103.635 98.6791 103.684 98.7292 103.718 98.7891C103.752 98.849 103.77 98.9167 103.771 98.9857L103.769 104.149ZM104.977 65.9166C104.857 65.8511 104.722 65.8178 104.586 65.8199C104.449 65.822 104.316 65.8595 104.198 65.9287C104.08 65.9979 103.982 66.0964 103.914 66.2146C103.845 66.3329 103.809 66.4668 103.808 66.6034V86.5813C103.807 86.6777 103.782 86.7722 103.734 86.8558C103.686 86.9393 103.617 87.0089 103.534 87.0578C103.45 87.1056 103.355 87.1308 103.259 87.1308C103.162 87.1308 103.067 87.1056 102.983 87.0578L99.7224 85.1783C99.4836 85.0408 99.2129 84.9684 98.9374 84.9684C98.6618 84.9684 98.3911 85.0408 98.1523 85.1783L85.1307 92.693C84.8915 92.8311 84.6928 93.0298 84.5546 93.269C84.4164 93.5082 84.3436 93.7796 84.3434 94.0558V109.09C84.3434 109.651 84.6435 110.17 85.1292 110.453L98.1508 117.972C98.6365 118.254 99.2367 118.254 99.724 117.972L112.749 110.453C112.987 110.314 113.186 110.115 113.324 109.876C113.461 109.637 113.534 109.366 113.534 109.09V71.6138C113.534 71.0445 113.225 70.5186 112.729 70.2401L104.977 65.9166Z" fill="#404137"/>
<path d="M59.1494 84.8951C59.3882 84.7569 59.6593 84.6841 59.9352 84.6841C60.2111 84.6841 60.4822 84.7569 60.721 84.8951L73.7426 92.4083C74.2283 92.6898 74.5284 93.2096 74.5284 93.7711V108.81C74.5284 109.371 74.2283 109.891 73.7426 110.173L60.7226 117.692C60.4833 117.83 60.212 117.902 59.936 117.902C59.6599 117.902 59.3887 117.83 59.1494 117.692L46.1324 110.173C45.8937 110.034 45.6955 109.835 45.5576 109.596C45.4197 109.357 45.3469 109.086 45.3466 108.81V93.7695C45.3466 93.2096 45.6467 92.6898 46.1324 92.4083L59.1494 84.8951Z" fill="#83CD29"/>
<path d="M35.4698 93.6457C35.4698 93.0795 35.1728 92.5598 34.684 92.2798L21.6671 84.7883C21.4485 84.6615 21.2019 84.5908 20.9493 84.5825H20.8148C20.5622 84.591 20.3157 84.6617 20.097 84.7883L7.0785 92.2798C6.83901 92.4184 6.64019 92.6176 6.50199 92.8573C6.36379 93.0971 6.29107 93.3689 6.29114 93.6457L6.31898 113.817C6.31898 114.098 6.46594 114.36 6.71189 114.496C6.82966 114.567 6.96475 114.605 7.10247 114.605C7.2402 114.605 7.37529 114.567 7.49306 114.496L15.2274 110.066C15.7162 109.775 16.0148 109.263 16.0148 108.701V99.2778C16.0148 98.7148 16.3118 98.1966 16.7991 97.915L20.0939 96.0186C20.3321 95.8786 20.6035 95.8054 20.8797 95.8066C21.1489 95.8066 21.4242 95.8747 21.664 96.0186L24.9557 97.915C25.443 98.1966 25.7431 98.7148 25.7431 99.2778V108.701C25.7431 109.263 26.0447 109.778 26.5305 110.066L34.2648 114.496C34.3841 114.564 34.5192 114.6 34.6565 114.599C34.7939 114.599 34.9288 114.563 35.0477 114.494C35.1666 114.425 35.2655 114.327 35.3344 114.208C35.4033 114.089 35.4399 113.954 35.4405 113.817L35.4698 93.6457Z" fill="#404137"/>
<g clip-path="url(#clip3_207_2)">
<path d="M91.7672 25.3095C95.5734 28.8439 97.4765 33.6017 97.4765 39.7189C97.4765 45.836 95.5734 50.7298 91.9031 54.4001C88.2328 57.9345 82.5234 59.8376 75.0468 59.8376H61.725V20.2798H75.4547C82.5234 20.2798 87.9609 21.911 91.7672 25.3095ZM85.2422 48.8267C87.4172 46.7876 88.5047 43.797 88.5047 39.8548C88.5047 35.9126 87.4172 32.922 85.2422 30.747C83.0672 28.7079 79.6687 27.4845 75.1828 27.4845H70.0172V51.9532H75.7265C79.9406 51.9532 83.0672 50.8657 85.2422 48.8267ZM128.878 59.8376H120.994V56.0314C118.683 58.7501 116.1 60.1095 112.837 60.1095C109.575 60.1095 106.856 59.1579 104.681 57.2548C102.506 55.3517 101.419 52.9048 101.419 49.7782C101.419 46.6517 102.506 44.3407 104.817 42.8454C107.128 41.3501 110.255 40.5345 114.197 40.5345H120.45V40.2626C120.45 37.0001 118.819 35.3688 115.284 35.3688C113.789 35.3688 112.294 35.6407 110.662 36.1845C109.031 36.7282 107.672 37.5438 106.448 38.3595L102.642 32.786C106.72 29.7954 111.206 28.436 116.372 28.436C120.042 28.436 123.033 29.3876 125.344 31.2907C127.655 33.1938 128.742 36.0485 128.742 40.1267V59.8376H128.878ZM120.314 48.147V46.9235H115.012C111.614 46.9235 109.847 47.8751 109.847 49.9142C109.847 51.0017 110.255 51.8173 111.07 52.361C111.886 52.9048 112.973 53.1767 114.605 53.1767C116.1 53.1767 117.459 52.7689 118.547 51.8173C119.77 50.8657 120.314 49.6423 120.314 48.147ZM151.308 36.7282C148.725 36.7282 146.686 37.5439 145.462 39.447C144.239 41.2142 143.423 43.661 143.423 46.6517V59.9735H134.995V29.3876H143.423V33.3298C144.511 32.1063 146.142 31.0188 147.773 30.2032C149.405 29.3876 151.308 28.8438 153.075 28.8438V36.8642L151.308 36.7282ZM166.669 35.5048V48.9626C166.669 50.186 166.941 51.0017 167.62 51.6814C168.164 52.361 168.98 52.6329 169.795 52.6329C171.427 52.6329 172.786 51.9532 173.873 50.4579L177 56.4392C174.417 58.886 171.562 60.1095 168.708 60.1095C165.717 60.1095 163.27 59.1579 161.231 57.2548C159.192 55.3517 158.241 52.6329 158.241 49.3704V20.2798H166.669V28.8438H175.641L171.019 35.6407L166.669 35.5048Z" fill="#231F20"/>
<path d="M15.6422 26.5326L12.6516 23.542V45.8357C12.6516 46.2436 12.7875 46.7873 12.9234 47.3311L36.4406 55.6232L42.2859 53.0404L15.6422 26.5326Z" fill="#00C4B3"/>
<path d="M42.286 53.1767L36.4406 55.7595L12.9235 47.4673C13.3313 49.2345 14.2828 51.1376 15.3703 52.2251L22.9828 59.8376H39.975L42.286 53.1767Z" fill="#22D3C5"/>
<path d="M3.67971 37.2717C2.86408 38.0873 3.2719 39.7186 4.49533 41.0779L9.7969 46.3795L13.0594 47.6029C12.9235 47.0592 12.7875 46.5154 12.7875 46.1076V45.1561L12.6516 23.542" fill="#0075C9"/>
<path d="M42.2859 53.1764L44.8687 47.3311L36.5765 23.8139C36.0328 23.6779 35.489 23.542 35.0812 23.542H12.6516" fill="#0075C9"/>
<path d="M42.2859 53.1765L48.675 51.1374V33.6015L41.3344 26.2608C40.2469 25.1733 38.3437 24.2218 36.5765 23.814L44.8687 47.3311" fill="#00A8E1"/>
<path d="M35.489 20.5518L30.0515 15.2502C28.8281 14.0268 27.1969 13.619 26.3812 14.4346L12.6516 23.5424H35.0812C35.489 23.5424 36.0328 23.6783 36.5765 23.8143L35.489 20.5518Z" fill="#00C4B3"/>
</g>
<path d="M326.875 170.24V163.761L349.854 151.748V157.7L332.881 166.882L349.858 176.25V182.256L326.875 170.24ZM380.765 153.035L360.713 181.006H353.829L373.919 153.033L380.765 153.035ZM375.21 177.656C375.437 177.661 375.663 177.615 375.87 177.522C376.077 177.428 376.261 177.29 376.409 177.118C376.742 176.722 376.913 176.216 376.89 175.699C376.909 175.171 376.739 174.654 376.409 174.24C376.27 174.06 376.092 173.914 375.887 173.813C375.683 173.713 375.458 173.66 375.23 173.66C375.002 173.66 374.778 173.713 374.573 173.813C374.369 173.914 374.19 174.06 374.051 174.24C373.722 174.654 373.551 175.171 373.571 175.699C373.546 176.212 373.709 176.716 374.03 177.118C374.173 177.291 374.353 177.43 374.558 177.523C374.762 177.617 374.985 177.662 375.21 177.656ZM379.445 179.675C378.289 180.72 376.784 181.298 375.225 181.294C373.667 181.29 372.165 180.706 371.013 179.656C370.483 179.139 370.062 178.521 369.775 177.839C369.487 177.157 369.339 176.424 369.339 175.684C369.339 174.944 369.487 174.211 369.775 173.529C370.062 172.847 370.483 172.229 371.013 171.712C372.164 170.658 373.669 170.074 375.229 170.074C376.79 170.074 378.294 170.658 379.445 171.712C379.985 172.223 380.414 172.841 380.703 173.526C380.992 174.211 381.136 174.948 381.125 175.692C381.139 176.435 380.997 177.173 380.708 177.858C380.419 178.543 379.99 179.159 379.447 179.667L379.445 179.675ZM359.466 161.306C359.693 161.31 359.918 161.264 360.126 161.171C360.333 161.078 360.517 160.94 360.665 160.767C360.998 160.372 361.169 159.865 361.145 159.349C361.165 158.821 360.994 158.303 360.665 157.89C360.526 157.71 360.347 157.564 360.143 157.464C359.938 157.363 359.714 157.311 359.486 157.311C359.258 157.311 359.034 157.363 358.829 157.464C358.625 157.564 358.446 157.71 358.307 157.89C357.978 158.303 357.807 158.821 357.827 159.349C357.802 159.862 357.965 160.366 358.286 160.767C358.429 160.941 358.609 161.079 358.813 161.173C359.018 161.266 359.241 161.312 359.466 161.306ZM363.701 163.319C362.545 164.364 361.04 164.941 359.481 164.938C357.922 164.934 356.421 164.35 355.269 163.299C354.739 162.782 354.318 162.165 354.031 161.483C353.743 160.801 353.595 160.068 353.595 159.328C353.595 158.587 353.743 157.855 354.031 157.172C354.318 156.49 354.739 155.873 355.269 155.356C356.42 154.302 357.924 153.718 359.485 153.718C361.046 153.718 362.55 154.302 363.701 155.356C364.243 155.869 364.672 156.489 364.961 157.177C365.25 157.866 365.392 158.606 365.379 159.353C365.392 160.094 365.249 160.83 364.96 161.514C364.671 162.197 364.242 162.812 363.701 163.319Z" fill="#90A93A"/>
<g clip-path="url(#clip4_207_2)">
<path d="M231.483 38.5024C229.748 38.5024 228.337 39.0163 227.255 40.0427C226.174 41.0705 225.625 42.4174 225.625 44.0682C225.625 44.9234 225.761 45.7033 226.03 46.4179C226.298 47.134 226.716 47.7974 227.278 48.397C227.84 48.9969 228.964 49.8117 230.64 50.848C232.696 52.1032 234.042 53.122 234.687 53.9175C235.334 54.7122 235.654 55.545 235.654 56.4135C235.654 57.576 235.272 58.5043 234.485 59.2018C233.697 59.8999 232.643 60.2474 231.337 60.2474C229.959 60.2474 228.758 59.7617 227.728 58.7974C226.697 57.8312 226.176 56.5534 226.165 54.9518H225.524V60.7648H226.165C226.361 60.2143 226.631 59.9329 226.986 59.9329C227.156 59.9329 227.555 60.0502 228.177 60.27C229.691 60.8085 230.933 61.0683 231.91 61.0683C233.594 61.0683 235.031 60.4788 236.228 59.2807C237.423 58.083 238.027 56.6384 238.027 54.9518C238.027 53.6443 237.628 52.4804 236.846 51.4665C236.064 50.4509 234.543 49.2698 232.27 47.9134C230.314 46.7382 229.044 45.7812 228.459 45.0351C227.872 44.29 227.57 43.4658 227.57 42.5614C227.57 41.5833 227.93 40.7975 228.638 40.2114C229.347 39.625 230.276 39.3345 231.438 39.3345C232.746 39.3345 233.836 39.7227 234.699 40.504C235.56 41.2864 236.059 42.3709 236.205 43.7644H236.846V38.7276H236.25C236.177 38.9842 236.11 39.1483 236.048 39.2221C235.988 39.2954 235.872 39.3345 235.699 39.3345C235.492 39.3345 235.122 39.2473 234.597 39.0758C233.473 38.6973 232.436 38.5024 231.483 38.5024H231.483ZM252.43 38.5024C250.316 38.5024 248.396 39.001 246.662 39.998C244.925 40.9931 243.55 42.3752 242.535 44.1356C241.521 45.8959 241.018 47.7651 241.018 49.7575C241.018 52.4336 241.894 54.8182 243.66 56.9083C245.427 58.9968 247.544 60.2982 250.001 60.7986C250.563 61.0911 251.366 61.8467 252.419 63.0698C253.604 64.4498 254.607 65.4452 255.432 66.0379C256.238 66.6191 257.134 67.0637 258.085 67.3536C259.026 67.6401 260.044 67.781 261.144 67.781C262.476 67.781 263.668 67.5492 264.719 67.0725L264.483 66.4877C263.873 66.7077 263.223 66.8138 262.538 66.8138C261.608 66.8138 260.669 66.5073 259.727 65.8919C258.786 65.2748 257.61 64.0977 256.208 62.3613C255.548 61.5295 255.093 61.0044 254.836 60.7986C257.524 60.2736 259.735 58.9708 261.458 56.8856C263.182 54.8017 264.044 52.4232 264.044 49.7572C264.044 46.5922 262.918 43.9318 260.683 41.7632C258.445 39.594 255.694 38.5024 252.43 38.5024ZM265.506 38.5024L265.54 39.1883C266.947 39.1883 267.736 39.6029 267.912 40.4363C267.978 40.7347 268.008 41.2852 268.013 42.0778L268.002 57.2456C267.99 58.3784 267.829 59.1016 267.519 59.4155C267.208 59.7271 266.683 59.9225 265.922 60.0001L265.888 60.6862H279.92L280.28 57.2456H279.639C279.456 58.1828 279.037 58.8543 278.369 59.2357C277.699 59.6198 276.515 59.809 274.805 59.809H273.478C271.939 59.809 271.048 59.2527 270.813 58.1337C270.765 57.9123 270.748 57.675 270.746 57.4143L270.802 42.0778C270.802 40.9468 270.944 40.189 271.24 39.8179C271.539 39.4482 272.079 39.2414 272.859 39.1883L272.826 38.5024H265.506ZM252.654 39.3343C255.039 39.3343 256.986 40.2737 258.49 42.1679C259.993 44.0628 260.739 46.6598 260.739 49.9485C260.739 53.0648 259.983 55.5598 258.468 57.4366C256.952 59.313 254.936 60.2476 252.43 60.2476C250.022 60.2476 248.07 59.2837 246.572 57.3468C245.075 55.4097 244.335 52.8948 244.335 49.8023C244.335 46.6245 245.084 44.0806 246.594 42.1791C248.104 40.2798 250.125 39.3345 252.655 39.3345L252.654 39.3343ZM284.924 42.5953C284.581 42.5953 284.321 42.7107 284.126 42.9438C283.926 43.1758 283.865 43.4569 283.934 43.7982C284.002 44.1295 284.189 44.4195 284.485 44.6639C284.78 44.9081 285.099 45.0351 285.441 45.0351C285.772 45.0351 286.024 44.9081 286.205 44.6639C286.387 44.4197 286.442 44.1295 286.374 43.7982C286.304 43.4569 286.124 43.1758 285.846 42.9435C285.564 42.7107 285.255 42.5953 284.924 42.5953ZM294.177 44.9226C293.596 47.1597 292.335 48.3703 290.399 48.5654L290.422 49.2065H292.682L292.637 56.7846C292.64 58.0802 292.68 58.9429 292.772 59.3819C292.994 60.4328 293.681 60.9673 294.829 60.9673C296.491 60.9673 298.234 59.9548 300.057 57.9314L299.507 57.4593C298.19 58.7918 297.026 59.4605 296.01 59.4605C295.385 59.4605 294.998 59.1013 294.852 58.3924C294.812 58.2201 294.796 58.0189 294.796 57.7851L294.818 49.2065H298.27L298.236 48.1831H294.829V44.9226H294.177ZM307.523 47.7784C305.592 47.7784 304.022 48.7158 302.801 50.5781C301.586 52.4436 301.21 54.5104 301.688 56.7846C301.969 58.1166 302.529 59.1489 303.386 59.8765C304.241 60.604 305.326 60.9673 306.624 60.9673C307.832 60.9673 309.514 60.6612 310.222 60.0451C310.931 59.4295 311.585 58.4318 312.189 57.0657L311.706 56.5595C310.742 58.3321 308.798 59.2245 307.332 59.2245C305.316 59.2245 304.082 58.1184 303.622 55.9187C303.56 55.6217 303.515 55.3214 303.487 55.0192C305.885 54.6397 307.702 53.9673 308.929 52.9956C310.154 52.0231 311.385 50.9923 311.155 49.9035C311.018 49.2564 310.682 48.7476 310.166 48.3632C309.642 47.9788 308.283 47.7784 307.523 47.7784ZM286.419 47.8572L282.259 48.813V49.555L283.698 49.3752C284.395 49.3752 284.806 49.6906 284.935 50.3194C284.979 50.5298 285.006 50.8257 285.014 51.1966L284.969 57.9988C284.957 58.9401 284.853 59.4872 284.643 59.6516C284.431 59.8162 283.872 59.8991 282.967 59.8991L282.945 60.5399H289.545L289.534 59.8988C288.616 59.8988 288.022 59.8266 287.757 59.6852C287.497 59.5452 287.317 59.2896 287.24 58.8983C287.18 58.6165 287.154 58.1306 287.15 57.4593L287.173 47.8572H286.419H286.419ZM306.466 49.1164C306.868 49.1164 307.256 49.2716 307.647 49.5774C308.032 49.8821 308.267 50.221 308.344 50.5893C308.721 52.398 307.117 53.6481 303.509 54.3446C303.406 53.0261 303.635 51.8287 304.218 50.7468C304.796 49.6657 305.549 49.1164 306.466 49.1164Z" fill="#003B57"/>
<path d="M222.164 12.5317H186.363C183.963 12.5317 182 14.4951 182 16.8945V56.3772C182 58.7766 183.963 60.7399 186.363 60.7399H209.943C209.675 49.0071 213.681 26.2375 222.164 12.5317Z" fill="#0F80CC"/>
<path d="M220.864 13.8042H186.363C184.659 13.8042 183.272 15.1903 183.272 16.8945V53.4963C191.086 50.4976 202.814 47.91 210.922 48.0275C212.552 39.5071 217.341 22.8092 220.864 13.8042Z" fill="url(#paint0_linear_207_2)"/>
<path d="M230.515 11.2394C228.063 9.05294 225.094 9.93108 222.164 12.5317C221.729 12.9178 221.295 13.3465 220.864 13.8044C215.851 19.1218 211.199 28.9708 209.753 36.493C210.316 37.635 210.756 39.0921 211.046 40.2053C211.12 40.4907 211.187 40.7588 211.241 40.9868C211.368 41.5266 211.436 41.8764 211.436 41.8764C211.436 41.8764 211.391 41.7064 211.207 41.1717C211.172 41.0692 211.133 40.9573 211.086 40.8255C211.062 40.7611 211.036 40.6973 211.009 40.6342C210.682 39.8741 209.778 38.2699 209.38 37.5714C209.064 38.4969 208.766 39.4284 208.486 40.3653C209.635 42.4678 210.336 46.0709 210.336 46.0709C210.336 46.0709 210.275 45.8374 209.986 45.0223C209.73 44.3017 208.453 42.0643 208.151 41.5413C207.633 43.4515 207.428 44.741 207.613 45.0549C207.973 45.6631 208.316 46.713 208.617 47.8738C209.297 50.4888 209.769 53.6727 209.769 53.6727C209.769 53.6727 209.785 53.8839 209.81 54.2085C209.716 56.4046 209.773 58.6816 209.943 60.7396C210.168 63.4641 210.592 65.8044 211.133 67.057L211.5 66.8571C210.706 64.3893 210.383 61.1552 210.525 57.4254C210.738 51.7247 212.05 44.8494 214.474 37.6836C218.57 26.8663 224.252 18.1872 229.452 14.0422C224.712 18.323 218.297 32.1792 216.377 37.3101C214.226 43.0562 212.703 48.4482 211.784 53.6142C213.369 48.771 218.492 46.6893 218.492 46.6893C218.492 46.6893 221.004 43.5904 223.941 39.1631C222.182 39.5642 219.294 40.2511 218.326 40.6576C216.899 41.2562 216.515 41.4604 216.515 41.4604C216.515 41.4604 221.137 38.6454 225.103 37.3709C230.557 28.7808 236.499 16.5774 230.515 11.2394Z" fill="#003B57"/>
</g>
</g>
<defs>
<linearGradient id="paint0_linear_207_2" x1="2350.87" y1="95.0142" x2="2350.87" y2="3762.29" gradientUnits="userSpaceOnUse">
<stop stop-color="#97D9F6"/>
<stop offset="0.92024" stop-color="#0F80CC"/>
<stop offset="1" stop-color="#0F80CC"/>
</linearGradient>
<clipPath id="clip0_207_2">
<rect width="400" height="200" fill="white"/>
</clipPath>
<clipPath id="clip1_207_2">
<rect width="240.537" height="70" fill="white" transform="translate(8 130)"/>
</clipPath>
<clipPath id="clip2_207_2">
<rect width="189.249" height="129" fill="white" transform="translate(200 2)"/>
</clipPath>
<clipPath id="clip3_207_2">
<rect width="174" height="174" fill="white" transform="translate(3 -50)"/>
</clipPath>
<clipPath id="clip4_207_2">
<rect width="130.246" height="58" fill="white" transform="translate(182 10)"/>
</clipPath>
</defs>
</svg>
