<svg width="1080" height="720" viewBox="0 0 1080 720" fill="none" xmlns="http://www.w3.org/2000/svg">
<g clip-path="url(#clip0_211_75)">
<g clip-path="url(#clip1_211_75)">
<path d="M541.797 28.3261L539.641 27.0815L537.485 28.3261L459.699 73.2363L457.543 74.4809V76.97V166.79V169.279L459.699 170.524L537.485 215.434L539.641 216.679L541.797 215.434L619.583 170.524L621.739 169.279V166.79V76.97V74.4809L619.583 73.2363L541.797 28.3261Z" fill="white" stroke="#F05138" stroke-width="12"/>
<mask id="mask0_211_75" style="mask-type:luminance" maskUnits="userSpaceOnUse" x="503" y="85" width="73" height="73">
<path d="M575.569 85.9521H503.713V157.808H575.569V85.9521Z" fill="white"/>
</mask>
<g mask="url(#mask0_211_75)">
<path d="M516.003 98.2409C516.003 98.2409 531.132 90.6813 538.695 86.8969C540.071 86.2183 541.596 85.8941 543.129 85.9537C545.423 86.0944 548.15 88.313 548.15 88.313L575.569 115.735V145.044H562.805V157.807H533.021L506.075 130.861C504.62 129.364 503.713 127.253 503.713 125.187C503.713 124.232 504.252 122.738 504.659 121.879L516.003 98.2409ZM518.036 100.274V135.565C518.042 137.19 518.099 138.631 519.527 140.079L534.264 154.813H559.812V142.05L518.036 100.274ZM554.129 98.2438C551.438 95.5614 548.713 92.9148 545.926 90.331C545.021 89.5316 544.228 88.9298 542.722 88.9478C541.614 88.9897 540.117 89.5316 540.117 89.5316L522.698 98.2409L554.129 98.2438Z" fill="#3A4D54"/>
</g>
<path d="M362.156 28.3261L360 27.0815L357.844 28.3261L280.058 73.2363L277.902 74.4809V76.97V166.79V169.279L280.058 170.524L357.844 215.434L360 216.679L362.156 215.434L439.942 170.524L442.098 169.279V166.79V76.97V74.4809L439.942 73.2363L362.156 28.3261Z" fill="white" stroke="#3A4D54" stroke-width="12"/>
<path d="M270.898 182.817L268.743 181.573L266.587 182.817L188.8 227.727L186.645 228.972V231.461V321.281V323.77L188.8 325.015L266.587 369.925L268.743 371.17L270.898 369.925L348.685 325.015L350.84 323.77V321.281V231.461V228.972L348.685 227.727L270.898 182.817Z" fill="white" stroke="#3A4D54" stroke-width="12"/>
<path d="M91.9761 182.099L89.8204 180.854L87.6647 182.099L9.87793 227.009L7.72224 228.253V230.742V320.563V323.052L9.87793 324.296L87.6647 369.206L89.8204 370.451L91.9761 369.206L169.763 324.296L171.918 323.052V320.563V230.742V228.253L169.763 227.009L91.9761 182.099Z" fill="white" stroke="#3A4D54" stroke-width="12"/>
<path d="M721.436 28.3261L719.281 27.0815L717.125 28.3261L639.338 73.2363L637.183 74.4809V76.97V166.79V169.279L639.338 170.524L717.125 215.434L719.281 216.679L721.436 215.434L799.221 170.524L801.377 169.279V166.79V76.97V74.4809L799.221 73.2363L721.436 28.3261Z" fill="white" stroke="#3A4D54" stroke-width="12"/>
<path d="M812.695 182.817L810.539 181.573L808.384 182.817L730.599 227.727L728.443 228.972V231.461V321.281V323.77L730.599 325.015L808.384 369.925L810.539 371.17L812.695 369.925L890.479 325.015L892.635 323.77V321.281V231.461V228.972L890.479 227.727L812.695 182.817Z" fill="white" stroke="#3A4D54" stroke-width="12"/>
<path d="M902.515 336.59L900.359 335.345L898.204 336.59L820.419 381.5L818.263 382.744V385.234V475.054V477.543L820.419 478.787L898.204 523.698L900.359 524.942L902.515 523.698L980.3 478.787L982.455 477.543V475.054V385.234V382.744L980.3 381.5L902.515 336.59Z" fill="white" stroke="#3A4D54" stroke-width="12"/>
<path d="M992.336 182.817L990.18 181.573L988.024 182.817L910.24 227.727L908.084 228.972V231.461V321.281V323.77L910.24 325.015L988.024 369.925L990.18 371.17L992.336 369.925L1070.12 325.015L1072.28 323.77V321.281V231.461V228.972L1070.12 227.727L992.336 182.817Z" fill="white" stroke="#3A4D54" stroke-width="12"/>
<path d="M901.078 28.3261L898.922 27.0815L896.767 28.3261L818.982 73.2363L816.827 74.4809V76.97V166.79V169.279L818.982 170.524L896.767 215.434L898.922 216.679L901.078 215.434L978.863 170.524L981.018 169.279V166.79V76.97V74.4809L978.863 73.2363L901.078 28.3261Z" fill="white" stroke="#3A4D54" stroke-width="12"/>
<path d="M184.671 28.3261L182.515 27.0815L180.359 28.3261L102.573 73.2363L100.417 74.4809V76.97V166.79V169.279L102.573 170.524L180.359 215.434L182.515 216.679L184.671 215.434L262.457 170.524L264.613 169.279V166.79V76.97V74.4809L262.457 73.2363L184.671 28.3261Z" fill="white" stroke="#3A4D54" stroke-width="12"/>
<path d="M181.078 338.026L178.922 336.782L176.766 338.026L98.9799 382.936L96.8242 384.181V386.67V476.49V478.979L98.9799 480.224L176.766 525.134L178.922 526.379L181.078 525.134L258.864 480.224L261.02 478.979V476.49V386.67V384.181L258.864 382.936L181.078 338.026Z" fill="white" stroke="#3A4D54" stroke-width="12"/>
<path d="M451.976 182.099L449.82 180.854L447.665 182.099L369.878 227.009L367.722 228.253V230.742V320.563V323.052L369.878 324.296L447.665 369.206L449.82 370.451L451.976 369.206L529.763 324.296L531.918 323.052V320.563V230.742V228.253L529.763 227.009L451.976 182.099Z" fill="white" stroke="#00C4B3" stroke-width="12"/>
<mask id="mask1_211_75" style="mask-type:luminance" maskUnits="userSpaceOnUse" x="413" y="239" width="73" height="73">
<path d="M485.749 239.725H413.892V311.581H485.749V239.725Z" fill="white"/>
</mask>
<g mask="url(#mask1_211_75)">
<path d="M478.796 241.284C475.707 238.529 471.97 239.637 468.278 242.913C467.709 243.423 467.163 243.957 466.641 244.515C460.327 251.212 454.467 263.617 452.646 273.089C453.356 274.527 453.91 276.362 454.275 277.763C454.459 278.46 454.623 279.162 454.766 279.868C454.766 279.868 454.709 279.656 454.479 278.982L454.329 278.545C454.298 278.464 454.265 278.384 454.23 278.305C453.817 277.347 452.68 275.326 452.177 274.446C451.748 275.712 451.368 276.895 451.051 277.967C452.5 280.613 453.38 285.153 453.38 285.153C453.38 285.153 453.305 284.856 452.94 283.829C452.62 282.922 451.012 280.105 450.629 279.446C449.979 281.853 449.718 283.475 449.952 283.871C450.407 284.637 450.839 285.961 451.216 287.422C452.072 290.715 452.667 294.727 452.667 294.727L452.718 295.398C452.606 298.141 452.662 300.889 452.887 303.625C453.17 307.057 453.703 310.003 454.383 311.581L454.847 311.329C453.847 308.221 453.44 304.146 453.619 299.452C453.889 292.272 455.542 283.613 458.593 274.59C463.751 260.967 470.907 250.036 477.455 244.814C471.488 250.203 463.407 267.658 460.988 274.12C458.281 281.353 456.362 288.143 455.207 294.649C457.201 288.551 463.653 285.931 463.653 285.931C463.653 285.931 466.817 282.027 470.515 276.452C468.3 276.958 464.662 277.823 463.443 278.335C461.647 279.087 461.161 279.344 461.161 279.344C461.161 279.344 466.985 275.799 471.979 274.195C478.847 263.377 486.332 248.009 478.796 241.284ZM423.188 242.91C421.732 242.916 420.338 243.497 419.309 244.527C418.28 245.556 417.699 246.951 417.695 248.407V298.131C417.699 299.587 418.28 300.981 419.309 302.01C420.338 303.039 421.733 303.618 423.188 303.623H451.386C451.175 300.926 451.123 298.22 451.23 295.518C451.212 295.332 451.198 295.095 451.183 294.919C450.818 292.526 450.345 290.15 449.766 287.799C449.404 286.392 448.943 285.11 448.661 284.635C448.314 284.045 448.368 283.706 448.371 283.341C448.371 282.982 448.416 282.607 448.482 282.186C448.659 281.131 448.893 280.086 449.182 279.056L449.833 278.973C449.782 278.868 449.79 278.778 449.739 278.683L449.617 277.542C449.975 276.343 450.356 275.151 450.76 273.967L451.36 273.91C451.335 273.862 451.329 273.796 451.306 273.751L451.176 272.805C453.063 262.985 458.922 250.521 465.548 243.491C465.745 243.284 465.946 243.107 466.14 242.91H423.188Z" fill="#3A4D54"/>
</g>
<path d="M631.617 182.099L629.461 180.854L627.305 182.099L549.519 227.009L547.363 228.253V230.742V320.563V323.052L549.519 324.296L627.305 369.206L629.461 370.451L631.617 369.206L709.403 324.296L711.559 323.052V320.563V230.742V228.253L709.403 227.009L631.617 182.099Z" fill="white" stroke="#FF9900" stroke-width="12"/>
<path d="M598.024 244.215V307.09H660.898V244.215H598.024ZM632.241 293.251C632.241 299.369 628.649 302.163 623.414 302.163C618.685 302.163 615.948 299.722 614.545 296.76L619.359 293.854C620.286 295.496 621.128 296.886 623.162 296.886C625.098 296.886 626.333 296.127 626.333 293.167V273.084H632.241V293.251ZM646.217 302.163C640.729 302.163 637.179 299.554 635.452 296.127L640.267 293.349C641.531 295.413 643.186 296.942 646.092 296.942C648.533 296.942 650.106 295.72 650.106 294.023C650.106 292.002 648.505 291.286 645.797 290.093L644.324 289.463C640.058 287.652 637.238 285.365 637.238 280.55C637.238 276.115 640.619 272.747 645.883 272.747C649.644 272.747 652.339 274.051 654.276 277.476L649.673 280.424C648.663 278.614 647.567 277.898 645.869 277.898C644.144 277.898 643.049 278.994 643.049 280.424C643.049 282.194 644.144 282.908 646.685 284.017L648.158 284.648C653.183 286.795 656.003 289 656.003 293.938C656.003 299.244 651.82 302.161 646.22 302.161L646.217 302.163Z" fill="#3A4D54"/>
<path d="M722.155 337.308L720 336.063L717.844 337.308L640.057 382.218L637.902 383.463V385.952V475.772V478.261L640.057 479.506L717.844 524.416L720 525.66L722.155 524.416L799.94 479.506L802.096 478.261V475.772V385.952V383.463L799.94 382.218L722.155 337.308Z" fill="white" stroke="#FF9900" stroke-width="12"/>
<path d="M736.907 402.389C736.677 402.389 736.455 402.481 736.289 402.646C736.124 402.81 736.031 403.033 736.031 403.265V419.311L732.395 417.189C732.172 417.056 731.913 416.987 731.655 416.987C731.396 416.987 731.137 417.056 730.914 417.189L722.17 422.286C721.947 422.416 721.76 422.601 721.631 422.824C721.508 423.047 721.437 423.301 721.437 423.559V433.764C721.437 434.29 721.717 434.774 722.17 435.037L730.914 440.134C731.137 440.267 731.396 440.336 731.655 440.336C731.913 440.336 732.172 440.267 732.395 440.134L741.132 435.037C741.355 434.908 741.542 434.722 741.671 434.499C741.801 434.276 741.873 434.022 741.873 433.764V405.98C741.873 405.725 741.801 405.475 741.679 405.255C741.549 405.033 741.37 404.85 741.147 404.722L737.346 402.509C737.209 402.432 737.065 402.39 736.914 402.389H736.907ZM708.301 416.991C708.04 416.99 707.784 417.059 707.559 417.189L698.819 422.286C698.596 422.416 698.41 422.601 698.281 422.824C698.152 423.047 698.083 423.301 698.083 423.559V433.764C698.083 434.29 698.364 434.774 698.819 435.037L707.559 440.134C708.017 440.397 708.581 440.397 709.042 440.134L717.782 435.037C718.005 434.908 718.191 434.722 718.32 434.499C718.449 434.276 718.517 434.022 718.518 433.764V423.559C718.518 423.301 718.45 423.047 718.321 422.824C718.192 422.6 718.005 422.415 717.782 422.286L709.042 417.189C708.816 417.059 708.561 416.99 708.301 416.991ZM755.008 416.991C754.749 416.99 754.49 417.058 754.268 417.189L745.523 422.286C745.3 422.416 745.113 422.601 744.984 422.824C744.862 423.047 744.79 423.301 744.79 423.559V433.764C744.79 434.29 745.07 434.774 745.523 435.037L754.002 440.16C754.225 440.296 754.483 440.369 754.742 440.371C755.008 440.373 755.267 440.304 755.489 440.172L759.657 437.749C759.758 437.691 759.837 437.609 759.894 437.51C759.952 437.411 759.98 437.299 759.98 437.186C759.98 437.072 759.952 436.96 759.894 436.861C759.837 436.762 759.758 436.68 759.657 436.622L750.625 431.301V426.064L755.008 423.515L759.384 426.064V429.713C759.384 430.2 759.794 430.276 760.067 430.113C761.547 429.251 763.02 428.392 764.5 427.535C764.723 427.407 764.903 427.223 765.032 427.002C765.154 426.781 765.226 426.531 765.226 426.276V423.562C765.226 423.304 765.154 423.05 765.025 422.827C764.895 422.603 764.716 422.418 764.486 422.289L755.748 417.192C755.525 417.062 755.267 416.993 755.008 416.994V416.991ZM684.947 416.997C684.686 416.995 684.431 417.064 684.206 417.195L675.466 422.286C675.242 422.416 675.056 422.603 674.927 422.827C674.798 423.051 674.73 423.306 674.73 423.564V436.593C674.73 437.229 675.419 437.623 675.967 437.306L679.844 435.049C680.065 434.92 680.247 434.736 680.374 434.515C680.502 434.293 680.568 434.043 680.568 433.787V426.072L684.947 423.518L689.325 426.072V433.787C689.326 434.043 689.393 434.293 689.52 434.513C689.647 434.734 689.83 434.918 690.05 435.046L693.926 437.306C694.051 437.378 694.194 437.417 694.339 437.417C694.483 437.418 694.626 437.38 694.751 437.308C694.877 437.235 694.981 437.131 695.054 437.006C695.126 436.88 695.165 436.738 695.165 436.593V423.564C695.164 423.306 695.096 423.051 694.967 422.827C694.838 422.603 694.652 422.416 694.429 422.286L685.689 417.195C685.464 417.064 685.207 416.995 684.947 416.997ZM731.655 423.512L736.031 426.067V431.257L731.655 433.811L727.271 431.257V426.064L731.655 423.509V423.512ZM755.008 425.754L752.507 427.213V430.127L755.008 431.581L757.508 430.127V427.213L755.008 425.754ZM719.705 437.413C719.396 437.411 719.101 437.488 718.835 437.635L710.627 442.382C710.363 442.532 710.143 442.749 709.991 443.012C709.838 443.274 709.759 443.573 709.76 443.876V453.352C709.76 453.962 710.101 454.537 710.627 454.846L712.787 456.079C713.823 456.589 714.206 456.589 714.676 456.589C716.223 456.589 717.104 455.664 717.104 454.029V444.667C717.105 444.636 717.1 444.604 717.088 444.574C717.076 444.544 717.059 444.517 717.037 444.494C717.015 444.472 716.987 444.453 716.959 444.441C716.929 444.429 716.897 444.422 716.865 444.422H715.826C715.761 444.422 715.699 444.448 715.653 444.494C715.607 444.54 715.581 444.603 715.581 444.667V454.029C715.581 454.739 714.831 455.468 713.607 454.858L711.36 453.562C711.323 453.539 711.293 453.507 711.271 453.47C711.25 453.432 711.238 453.389 711.237 453.346V443.87C711.237 443.786 711.278 443.686 711.362 443.643L719.568 438.911C719.611 438.889 719.655 438.878 719.698 438.878C719.748 438.878 719.791 438.889 719.827 438.911L728.047 443.64C728.134 443.686 728.17 443.771 728.17 443.87V453.346C728.17 453.391 728.162 453.436 728.141 453.476C728.112 453.516 728.083 453.549 728.047 453.574L719.827 458.324C719.791 458.345 719.748 458.357 719.698 458.357C719.655 458.357 719.611 458.345 719.568 458.324L717.475 457.074C717.417 457.045 717.329 457.03 717.274 457.06C716.89 457.305 716.474 457.497 716.036 457.629C715.893 457.673 715.7 457.759 716.112 457.987L718.835 459.608C719.101 459.753 719.396 459.83 719.705 459.835C720.007 459.838 720.301 459.756 720.56 459.596L728.766 454.846C729.032 454.697 729.255 454.479 729.405 454.217C729.556 453.954 729.635 453.656 729.635 453.352V443.876C729.635 443.574 729.549 443.277 729.398 443.015C729.247 442.754 729.032 442.535 728.766 442.382L720.56 437.638C720.294 437.49 720 437.413 719.705 437.416V437.413ZM732.51 441.787C732.301 441.787 732.1 441.827 731.906 441.907C731.712 441.987 731.54 442.103 731.396 442.25C731.101 442.546 730.936 442.947 730.936 443.365C730.936 443.783 731.101 444.184 731.396 444.479C731.698 444.774 732.1 444.94 732.517 444.939C732.934 444.938 733.336 444.771 733.631 444.475C733.925 444.179 734.09 443.778 734.09 443.359C734.09 442.941 733.918 442.541 733.623 442.246C733.329 441.951 732.926 441.785 732.51 441.787ZM732.488 442.037C733.235 442.037 733.832 442.621 733.832 443.359C733.832 443.714 733.688 444.053 733.437 444.303C733.185 444.554 732.847 444.697 732.488 444.702C732.136 444.699 731.805 444.555 731.554 444.303C731.31 444.051 731.173 443.712 731.173 443.359C731.173 443.186 731.209 443.014 731.274 442.854C731.338 442.693 731.432 442.547 731.561 442.424C731.683 442.301 731.827 442.203 731.985 442.137C732.143 442.071 732.316 442.037 732.488 442.037ZM731.913 442.466V444.238H732.251V443.532H732.567C732.696 443.532 732.725 443.584 732.754 443.684C732.754 443.698 732.804 444.159 732.819 444.244H733.185C733.142 444.09 733.113 443.931 733.099 443.771C733.063 443.543 733.049 443.386 732.804 443.371C732.934 443.327 733.149 443.26 733.149 442.933C733.149 442.463 732.74 442.466 732.524 442.466H731.913ZM732.251 442.749H732.538C732.625 442.749 732.797 442.749 732.797 442.989C732.797 443.088 732.754 443.252 732.524 443.246H732.251V442.749ZM721.904 444.197C719.561 444.197 718.167 445.199 718.167 446.845C718.167 448.649 719.561 449.131 721.81 449.356C724.491 449.627 724.706 450.013 724.706 450.538C724.706 451.461 723.959 451.843 722.227 451.843C720.05 451.843 719.576 451.305 719.417 450.225C719.403 450.109 719.302 450.024 719.173 450.024H718.106C718.074 450.024 718.042 450.031 718.013 450.043C717.983 450.055 717.957 450.074 717.934 450.096C717.912 450.119 717.895 450.146 717.883 450.176C717.871 450.206 717.865 450.238 717.867 450.269C717.867 451.647 718.62 453.296 722.213 453.296C724.85 453.296 726.344 452.275 726.344 450.483C726.344 448.708 725.144 448.235 722.615 447.893C720.057 447.552 719.805 447.379 719.805 446.781C719.805 446.285 720.014 445.634 721.904 445.634C723.592 445.634 724.225 446.005 724.483 447.14C724.512 447.257 724.591 447.324 724.706 447.324H725.77C725.841 447.324 725.899 447.294 725.942 447.254C725.985 447.198 726.014 447.143 725.999 447.073C725.827 445.111 724.534 444.197 721.904 444.197Z" fill="#3A4D54"/>
<path d="M541.797 337.308L539.641 336.063L537.485 337.308L459.699 382.218L457.543 383.463V385.952V475.772V478.261L459.699 479.506L537.485 524.416L539.641 525.66L541.797 524.416L619.583 479.506L621.739 478.261V475.772V385.952V383.463L619.583 382.218L541.797 337.308Z" fill="white" stroke="#FF9900" stroke-width="12"/>
<mask id="mask2_211_75" style="mask-type:luminance" maskUnits="userSpaceOnUse" x="481" y="415" width="122" height="36">
<path d="M602.662 415.054H481.437V450.342H602.662V415.054Z" fill="white"/>
</mask>
<g mask="url(#mask2_211_75)">
<path d="M482.226 442.438V428.947H499.071V428.158H482.226V415.85H500.136V415.061H481.437V443.227H500.294V442.438H482.226ZM515.481 422.95L508.499 432.142L501.674 422.95H500.649L508.025 432.734L499.938 443.227H500.885L508.498 433.325L516.152 443.227H517.138L509.011 432.734L516.428 422.95H515.481ZM519.505 450.169V437.546H519.583C520.057 439.387 520.991 440.867 522.384 441.984C523.778 443.102 525.553 443.661 527.71 443.661C529.104 443.661 530.34 443.378 531.418 442.813C532.497 442.247 533.397 441.478 534.121 440.506C534.844 439.532 535.396 438.402 535.778 437.112C536.159 435.824 536.35 434.47 536.35 433.05C536.35 431.524 536.152 430.117 535.758 428.829C535.363 427.54 534.791 426.422 534.042 425.475C533.292 424.528 532.385 423.792 531.32 423.267C530.255 422.741 529.051 422.478 527.71 422.478C526.684 422.478 525.732 422.628 524.85 422.931C523.969 423.233 523.187 423.66 522.503 424.213C521.815 424.77 521.217 425.428 520.727 426.166C520.228 426.915 519.846 427.737 519.583 428.631H519.505V422.95H518.716V450.169H519.505ZM527.71 442.911C525.239 442.911 523.252 442.063 521.754 440.367C520.255 438.671 519.505 436.232 519.505 433.049C519.505 431.734 519.689 430.485 520.057 429.302C520.426 428.118 520.958 427.079 521.654 426.185C522.352 425.291 523.213 424.581 524.238 424.055C525.264 423.529 526.421 423.266 527.71 423.266C529.025 423.266 530.176 423.529 531.162 424.055C532.148 424.581 532.963 425.298 533.608 426.205C534.252 427.112 534.739 428.151 535.067 429.321C535.396 430.492 535.56 431.734 535.56 433.049C535.56 434.233 535.409 435.41 535.107 436.58C534.804 437.75 534.338 438.802 533.706 439.736C533.075 440.669 532.267 441.432 531.28 442.024C530.294 442.615 529.104 442.911 527.71 442.911ZM540.688 443.227V431.748C540.688 430.643 540.847 429.565 541.162 428.513C541.477 427.461 541.964 426.534 542.622 425.732C543.28 424.929 544.114 424.298 545.127 423.838C546.139 423.378 547.342 423.187 548.736 423.266V422.477C547.526 422.451 546.468 422.582 545.561 422.871C544.653 423.161 543.871 423.555 543.213 424.055C542.556 424.555 542.03 425.14 541.636 425.81C541.242 426.48 540.949 427.205 540.767 427.96H540.688V422.95H539.9V443.227L540.688 443.227ZM549.722 433.247H566.685C566.738 431.853 566.6 430.512 566.271 429.223C565.942 427.934 565.416 426.79 564.693 425.791C563.97 424.791 563.036 423.989 561.893 423.384C560.749 422.779 559.388 422.477 557.81 422.477C556.679 422.477 555.574 422.714 554.496 423.187C553.417 423.66 552.471 424.351 551.655 425.258C550.84 426.165 550.183 427.277 549.683 428.592C549.183 429.907 548.933 431.406 548.933 433.089C548.933 434.587 549.104 435.988 549.446 437.29C549.788 438.592 550.314 439.723 551.024 440.682C551.734 441.642 552.648 442.385 553.766 442.911C554.884 443.437 556.232 443.687 557.81 443.661C560.123 443.661 562.07 443.01 563.648 441.708C565.226 440.406 566.159 438.572 566.449 436.205H565.66C565.318 438.44 564.443 440.118 563.036 441.235C561.63 442.352 559.861 442.911 557.731 442.911C556.284 442.911 555.061 442.661 554.062 442.162C553.063 441.662 552.247 440.978 551.616 440.11C550.985 439.242 550.518 438.223 550.216 437.053C549.913 435.883 549.749 434.614 549.722 433.247ZM565.896 432.458H549.723C549.801 431.037 550.064 429.762 550.511 428.631C550.959 427.5 551.544 426.534 552.267 425.732C552.99 424.929 553.832 424.318 554.792 423.897C555.752 423.476 556.784 423.266 557.888 423.266C559.204 423.266 560.36 423.509 561.36 423.996C562.359 424.482 563.194 425.146 563.865 425.988C564.535 426.83 565.041 427.809 565.383 428.927C565.725 430.045 565.896 431.222 565.896 432.458ZM583.056 428.947H583.845C583.845 426.685 583.188 425.041 581.873 424.015C580.558 422.99 578.769 422.477 576.508 422.477C575.246 422.477 574.181 422.635 573.313 422.95C572.445 423.266 571.735 423.674 571.182 424.173C570.63 424.673 570.236 425.225 569.999 425.83C569.762 426.435 569.644 427.014 569.644 427.566C569.644 428.67 569.841 429.551 570.236 430.209C570.63 430.867 571.248 431.379 572.09 431.748C572.668 432.01 573.326 432.247 574.062 432.458C574.799 432.668 575.653 432.892 576.627 433.128C577.494 433.339 578.349 433.549 579.19 433.759C580.032 433.969 580.775 434.253 581.42 434.608C582.064 434.963 582.589 435.416 582.997 435.969C583.405 436.52 583.609 437.244 583.609 438.138C583.609 439.006 583.405 439.742 582.997 440.347C582.593 440.949 582.061 441.454 581.439 441.827C580.808 442.208 580.105 442.484 579.328 442.655C578.552 442.826 577.796 442.911 577.061 442.911C574.667 442.911 572.833 442.379 571.557 441.314C570.282 440.248 569.644 438.572 569.644 436.284H568.855C568.855 438.835 569.545 440.702 570.926 441.886C572.307 443.069 574.352 443.661 577.061 443.661C577.928 443.661 578.802 443.562 579.683 443.365C580.564 443.168 581.353 442.846 582.05 442.398C582.742 441.958 583.322 441.364 583.747 440.663C584.181 439.953 584.398 439.085 584.398 438.059C584.398 437.086 584.207 436.297 583.826 435.692C583.444 435.088 582.945 434.587 582.326 434.193C581.708 433.798 581.012 433.49 580.236 433.266C579.456 433.041 578.673 432.824 577.888 432.615C576.923 432.362 575.956 432.112 574.989 431.866C574.161 431.655 573.392 431.406 572.682 431.116C571.998 430.827 571.452 430.413 571.044 429.874C570.637 429.335 570.433 428.565 570.433 427.566C570.433 427.382 570.486 427.053 570.591 426.58C570.696 426.106 570.946 425.626 571.34 425.14C571.735 424.653 572.34 424.219 573.155 423.838C573.97 423.457 575.088 423.266 576.508 423.266C577.481 423.266 578.368 423.371 579.17 423.581C579.973 423.792 580.664 424.127 581.242 424.587C581.82 425.048 582.267 425.633 582.583 426.343C582.898 427.053 583.056 427.921 583.056 428.947ZM601.321 428.947H602.11C602.11 426.685 601.452 425.041 600.137 424.015C598.822 422.99 597.035 422.477 594.773 422.477C593.51 422.477 592.445 422.635 591.577 422.95C590.709 423.266 589.999 423.674 589.447 424.173C588.895 424.673 588.5 425.225 588.264 425.83C588.027 426.435 587.909 427.014 587.909 427.566C587.909 428.67 588.106 429.551 588.5 430.209C588.895 430.867 589.513 431.379 590.354 431.748C590.933 432.01 591.59 432.247 592.327 432.458C593.063 432.668 593.917 432.892 594.891 433.128C595.759 433.339 596.614 433.549 597.455 433.759C598.297 433.969 599.039 434.253 599.684 434.608C600.328 434.963 600.854 435.416 601.262 435.969C601.669 436.52 601.873 437.244 601.873 438.138C601.873 439.006 601.669 439.742 601.262 440.347C600.857 440.949 600.326 441.454 599.704 441.827C599.072 442.208 598.369 442.484 597.593 442.655C596.818 442.826 596.061 442.911 595.325 442.911C592.932 442.911 591.097 442.379 589.822 441.314C588.546 440.248 587.909 438.572 587.909 436.284H587.12C587.12 438.835 587.81 440.702 589.191 441.886C590.571 443.069 592.616 443.661 595.325 443.661C596.193 443.661 597.067 443.562 597.949 443.365C598.829 443.168 599.618 442.846 600.316 442.398C601.006 441.958 601.587 441.364 602.011 440.663C602.445 439.953 602.662 439.085 602.662 438.059C602.662 437.086 602.472 436.297 602.09 435.692C601.709 435.088 601.209 434.587 600.591 434.193C599.974 433.798 599.277 433.49 598.5 433.266C597.72 433.041 596.938 432.824 596.154 432.615C595.188 432.362 594.221 432.112 593.254 431.866C592.426 431.655 591.656 431.406 590.946 431.116C590.262 430.827 589.717 430.413 589.309 429.874C588.901 429.335 588.698 428.565 588.698 427.566C588.698 427.382 588.75 427.053 588.855 426.58C588.961 426.106 589.211 425.626 589.605 425.14C589.999 424.653 590.604 424.219 591.42 423.838C592.235 423.457 593.353 423.266 594.773 423.266C595.745 423.266 596.633 423.371 597.436 423.581C598.237 423.792 598.928 424.127 599.506 424.587C600.085 425.048 600.532 425.633 600.848 426.343C601.163 427.053 601.321 427.921 601.321 428.947Z" fill="#3A4D54"/>
</g>
<path d="M362.156 336.59L360 335.345L357.844 336.59L280.058 381.5L277.902 382.744V385.234V475.054V477.543L280.058 478.787L357.844 523.698L360 524.942L362.156 523.698L439.942 478.787L442.098 477.543V475.054V385.234V382.744L439.942 381.5L362.156 336.59Z" fill="white" stroke="#00C4B3" stroke-width="12"/>
<mask id="mask3_211_75" style="mask-type:luminance" maskUnits="userSpaceOnUse" x="311" y="381" width="87" height="87">
<path d="M397.365 381.281H311.138V467.509H397.365V381.281Z" fill="white"/>
</mask>
<g mask="url(#mask3_211_75)">
<path d="M396.984 389.488C396.762 389.306 396.48 389.211 396.193 389.224C395.406 389.224 394.387 389.758 393.838 390.044L393.621 390.156C392.702 390.601 391.701 390.853 390.681 390.897C389.634 390.93 388.733 390.991 387.559 391.114C380.602 391.828 377.499 397.16 374.51 402.317C372.882 405.121 371.202 408.035 368.899 410.261C368.421 410.723 367.915 411.154 367.382 411.549C364.997 413.322 362.003 414.588 359.673 415.484C357.43 416.341 354.982 417.112 352.617 417.858C350.449 418.54 348.404 419.185 346.522 419.884C345.791 420.153 345.056 420.409 344.316 420.652C342.601 421.208 341.366 421.634 339.56 422.878C338.912 423.317 338.282 423.782 337.671 424.269C336.237 425.413 334.969 426.749 333.9 428.24C332.982 429.615 331.92 430.889 330.734 432.041C330.352 432.414 329.676 432.597 328.663 432.597C327.477 432.597 326.039 432.353 324.517 432.094C322.947 431.816 321.326 431.551 319.934 431.551C318.805 431.551 317.939 431.735 317.294 432.108C317.294 432.108 316.204 432.743 315.746 433.563L316.197 433.767C316.896 434.145 317.544 434.613 318.123 435.158C318.727 435.716 319.4 436.195 320.125 436.583C320.358 436.668 320.568 436.801 320.744 436.974C320.554 437.252 320.276 437.612 319.983 437.995C318.377 440.097 317.441 441.424 317.978 442.147C318.236 442.281 318.523 442.346 318.813 442.336C322.313 442.336 324.195 441.427 326.573 440.275C327.263 439.941 327.965 439.599 328.799 439.245C330.19 438.641 331.688 437.679 333.277 436.66C335.355 435.306 337.528 433.914 339.638 433.243C341.371 432.715 343.177 432.461 344.988 432.492C347.215 432.492 349.558 432.789 351.818 433.08C353.502 433.296 355.247 433.519 356.958 433.622C357.622 433.66 358.238 433.68 358.836 433.68C359.636 433.682 360.436 433.64 361.232 433.555L361.423 433.488C362.623 432.751 363.186 431.168 363.731 429.636C364.081 428.651 364.377 427.767 364.843 427.205C364.871 427.177 364.901 427.152 364.932 427.13C364.954 427.119 364.98 427.114 365.004 427.118C365.028 427.121 365.051 427.134 365.068 427.152V427.196C364.791 433.182 362.381 436.982 359.943 440.362L358.316 442.106C358.316 442.106 360.595 442.106 361.89 441.605C366.622 440.191 370.193 437.075 372.791 432.105C373.432 430.829 374.005 429.52 374.508 428.184C374.552 428.073 374.962 427.867 374.923 428.443C374.909 428.612 374.898 428.801 374.884 429C374.884 429.116 374.884 429.235 374.861 429.355C374.794 430.191 374.597 431.955 374.597 431.955L376.058 431.172C379.581 428.947 382.296 424.456 384.356 417.468C385.213 414.557 385.842 411.666 386.396 409.12C387.057 406.058 387.628 403.435 388.283 402.416C389.309 400.82 390.876 399.74 392.392 398.691C392.598 398.549 392.807 398.412 393.01 398.262C394.916 396.924 396.811 395.379 397.229 392.499V392.434C397.533 390.286 397.276 389.738 396.984 389.488ZM392.078 459.364H385.121V447.245H391.396C393.794 447.245 396.079 447.697 396.045 450.385C396.045 452.28 394.869 452.804 393.628 453.003C395.389 453.154 396.449 454.277 396.449 456.092C396.46 458.81 394.076 459.365 392.078 459.365V459.364ZM391.558 452.533C393.959 452.533 394.496 451.609 394.496 450.434C394.496 448.67 393.422 448.269 391.558 448.269H386.571V452.533L391.558 452.533ZM391.625 453.557H386.571V458.34H391.842C393.319 458.34 394.88 457.853 394.88 455.992C394.88 453.843 393.085 453.557 391.625 453.557ZM370.406 447.245H375.879C380.48 447.245 382.778 449.781 382.745 453.304C382.778 456.965 380.241 459.365 376.283 459.365H370.405L370.406 447.245ZM371.917 448.32V458.307H376.091C379.75 458.307 381.144 455.838 381.144 453.27C381.144 450.368 379.4 448.32 376.092 448.32H371.917ZM364.615 451.929V450.518H366.909V459.364H364.624V457.94C364.02 458.964 362.779 459.551 361.267 459.551C358.112 459.551 356.348 457.324 356.348 454.764C356.348 452.296 358.018 450.312 360.931 450.312C362.585 450.332 363.961 450.888 364.615 451.929ZM358.772 454.885C358.772 456.512 359.796 457.905 361.778 457.905C363.691 457.905 364.732 456.544 364.732 454.934C364.732 453.322 363.655 451.946 361.671 451.946C359.766 451.946 358.774 453.32 358.774 454.885H358.772ZM352.026 448.183C352.022 448.023 352.05 447.863 352.111 447.714C352.171 447.565 352.262 447.431 352.377 447.319C352.492 447.207 352.63 447.12 352.78 447.064C352.93 447.008 353.091 446.983 353.251 446.993C353.414 446.987 353.577 447.015 353.73 447.074C353.881 447.134 354.02 447.224 354.136 447.338C354.253 447.453 354.345 447.59 354.407 447.742C354.468 447.894 354.499 448.055 354.495 448.219C354.499 448.38 354.468 448.54 354.406 448.689C354.343 448.838 354.251 448.971 354.134 449.082C354.016 449.193 353.877 449.278 353.725 449.331C353.573 449.385 353.411 449.406 353.251 449.394C353.09 449.401 352.929 449.375 352.778 449.316C352.627 449.258 352.49 449.17 352.375 449.056C352.26 448.942 352.169 448.806 352.109 448.656C352.05 448.506 352.021 448.345 352.026 448.183ZM352.127 450.518H354.411V456.982C354.411 457.383 354.495 457.669 354.828 457.669C354.976 457.665 355.122 457.65 355.265 457.62L355.619 459.289C355.138 459.479 354.625 459.574 354.108 459.568C353.151 459.568 352.127 459.289 352.127 457.116L352.127 450.518ZM346.269 459.365H343.988V450.519H346.269V452.5C346.53 451.866 346.971 451.323 347.538 450.937C348.105 450.552 348.773 450.342 349.459 450.332C349.944 450.326 350.427 450.405 350.886 450.566L350.399 452.236C350.005 452.131 349.599 452.075 349.191 452.068C347.544 452.068 346.269 453.31 346.269 455.13V459.365ZM338.833 451.93V450.519H341.118V459.365H338.833V457.941C338.23 458.965 336.989 459.552 335.478 459.552C332.319 459.552 330.558 457.325 330.558 454.765C330.558 452.297 332.228 450.313 335.141 450.313C336.803 450.332 338.179 450.889 338.833 451.93ZM332.99 454.885C332.99 456.512 334.014 457.906 335.996 457.906C337.907 457.906 338.948 456.545 338.948 454.935C338.948 453.324 337.874 451.946 335.887 451.946C333.983 451.946 332.993 453.321 332.993 454.885H332.99ZM326.765 447.245L329.898 459.365H327.534L325.446 450.634L321.512 459.365H319.515L315.602 450.686L313.453 459.365H311.138L314.243 447.245H316.291L320.521 456.63L324.734 447.245H326.765Z" fill="#3A4D54"/>
</g>
</g>
<g clip-path="url(#clip2_211_75)">
<path d="M451.16 494.339L449 493.092L446.84 494.339L368.898 539.339L366.738 540.586V543.08V633.08V635.574L368.898 636.821L446.84 681.821L449 683.068L451.16 681.821L529.102 636.821L531.262 635.574V633.08V543.08V540.586L529.102 539.339L451.16 494.339Z" fill="white" stroke="#00C4B3" stroke-width="12"/>
<g opacity="0.2">
<path d="M462.605 595.551C462.996 592.295 462.879 591.818 465.304 592.345L465.92 592.399C467.785 592.484 470.224 592.099 471.657 591.433C474.742 590.002 476.571 587.612 473.529 588.239C466.59 589.671 466.113 587.321 466.113 587.321C473.44 576.449 476.504 562.649 473.86 559.271C466.649 550.056 454.167 554.414 453.957 554.527L453.89 554.54C452.519 554.255 450.986 554.085 449.261 554.057C446.121 554.006 443.739 554.881 441.931 556.251C441.931 556.251 419.663 547.077 420.699 567.789C420.919 572.194 427.015 601.128 434.284 592.389C436.941 589.193 439.509 586.491 439.509 586.491C440.784 587.339 442.31 587.771 443.912 587.615L444.036 587.51C443.997 587.907 444.014 588.294 444.086 588.754C442.213 590.847 442.763 591.215 439.019 591.985C435.231 592.765 437.456 594.155 438.908 594.519C440.671 594.96 444.746 595.584 447.5 591.729L447.39 592.169C448.125 592.756 448.075 596.393 448.179 598.991C448.283 601.589 448.457 604.013 448.987 605.444C449.517 606.873 450.142 610.555 455.062 609.501C459.175 608.618 462.319 607.35 462.605 595.551Z" fill="black"/>
<path d="M453.46 612.069C451.283 612.069 449.866 611.227 449.005 610.414C447.705 609.189 447.19 607.609 446.882 606.665L446.749 606.271C446.129 604.597 445.92 602.188 445.795 599.086C445.777 598.6 445.761 598.115 445.749 597.631C445.738 597.258 445.725 596.792 445.707 596.302C444.923 596.677 444.09 596.939 443.234 597.085C441.699 597.347 440.05 597.261 438.33 596.831C437.116 596.528 435.855 595.9 435.137 594.928C433.043 596.763 431.045 596.513 429.956 596.151C428.036 595.51 426.318 593.712 424.702 590.65C423.552 588.47 422.439 585.629 421.394 582.207C419.575 576.247 418.419 569.968 418.316 567.908C417.993 561.456 419.729 556.843 423.477 554.197C429.389 550.021 438.345 552.476 441.611 553.591C443.804 552.269 446.384 551.624 449.302 551.671C450.868 551.697 452.36 551.835 453.745 552.081C455.189 551.627 458.045 550.975 461.312 551.015C467.333 551.087 472.322 553.433 475.739 557.8C478.177 560.916 476.972 567.459 476.036 571.082C474.72 576.178 472.412 581.598 469.578 586.317C470.348 586.323 471.463 586.23 473.048 585.903C476.175 585.257 477.089 586.934 477.337 587.685C478.331 590.696 474.009 592.972 472.661 593.596C470.933 594.399 468.117 594.887 465.811 594.782L465.71 594.775L465.104 594.722L465.044 595.227L464.987 595.721C464.832 601.701 463.977 605.487 462.22 607.99C460.377 610.613 457.816 611.349 455.561 611.832C454.871 611.985 454.167 612.064 453.46 612.069ZM448.88 590.305C450.285 591.429 450.408 593.545 450.518 597.499C450.531 597.991 450.544 598.459 450.562 598.895C450.615 600.215 450.74 603.308 451.223 604.615C451.292 604.799 451.353 604.988 451.418 605.186C451.957 606.839 452.228 607.667 454.561 607.167C456.521 606.747 457.528 606.371 458.316 605.248C459.462 603.616 460.103 600.335 460.22 595.492L462.604 595.551L460.236 595.267L460.306 594.676C460.533 592.728 460.696 591.32 461.999 590.389C463.043 589.642 464.234 589.715 465.183 589.886C464.141 589.099 463.852 588.175 463.776 587.796L463.577 586.817L464.135 585.988C467.353 581.214 470.007 575.346 471.416 569.889C472.864 564.282 472.422 561.304 471.981 560.741C466.136 553.272 455.999 556.355 454.941 556.706L454.762 556.803L453.864 556.97L453.405 556.875C452.138 556.612 450.732 556.467 449.222 556.442C446.852 556.402 444.94 556.962 443.372 558.152L442.284 558.977L441.021 558.457C438.325 557.354 430.402 555.137 426.222 558.098C423.902 559.741 422.845 562.962 423.08 567.67C423.157 569.224 424.214 575.108 425.955 580.815C428.363 588.702 430.551 591.321 431.464 591.626C431.623 591.68 432.037 591.358 432.449 590.864C435.125 587.645 437.671 584.962 437.778 584.848L439.158 583.396L440.827 584.505C441.5 584.952 442.241 585.206 443.004 585.253L446.984 581.858L446.407 587.743C446.394 587.875 446.389 588.055 446.44 588.389L446.613 589.504L445.863 590.344L445.777 590.441L447.963 591.452L448.88 590.305Z" fill="black"/>
<path d="M473.531 588.24C466.591 589.671 466.114 587.322 466.114 587.322C473.441 576.449 476.504 562.648 473.861 559.271C466.649 550.056 454.167 554.414 453.958 554.527L453.89 554.539C452.519 554.255 450.986 554.085 449.261 554.057C446.121 554.006 443.739 554.88 441.931 556.251C441.931 556.251 419.663 547.077 420.698 567.789C420.919 572.195 427.014 601.129 434.284 592.389C436.941 589.194 439.508 586.492 439.508 586.492C440.783 587.339 442.31 587.77 443.91 587.616L444.034 587.51C443.996 587.906 444.013 588.295 444.084 588.754C442.212 590.847 442.761 591.215 439.018 591.985C435.229 592.766 437.455 594.155 438.908 594.519C440.67 594.96 444.745 595.585 447.498 591.729L447.388 592.169C448.122 592.756 448.637 595.992 448.551 598.925C448.464 601.858 448.407 603.871 448.985 605.444C449.564 607.016 450.14 610.556 455.061 609.501C459.174 608.619 461.305 606.336 461.601 602.527C461.812 599.818 462.288 600.218 462.318 597.797L462.7 596.65C463.14 592.979 462.77 591.794 465.304 592.346L465.92 592.399C467.785 592.485 470.225 592.1 471.658 591.434C474.742 590.002 476.572 587.612 473.531 588.24Z" fill="#336791"/>
<path d="M453.709 610.598C449.605 610.599 448.307 607.35 447.775 606.021C446.996 604.075 446.828 596.519 447.001 590.322C447.013 590.115 447.105 589.921 447.258 589.781C447.41 589.641 447.611 589.565 447.818 589.571C448.025 589.577 448.222 589.663 448.366 589.812C448.511 589.96 448.592 590.16 448.592 590.366C448.392 597.514 448.676 603.99 449.251 605.431C450.151 607.678 451.514 609.644 455.369 608.819C459.029 608.033 460.399 606.646 461.01 603.108C461.478 600.392 462.404 592.667 462.518 591.142C462.534 590.932 462.632 590.736 462.792 590.598C462.951 590.461 463.16 590.392 463.37 590.408C463.58 590.424 463.776 590.523 463.913 590.682C464.051 590.842 464.119 591.05 464.103 591.26C463.985 592.847 463.063 600.557 462.576 603.378C461.855 607.557 459.992 609.453 455.702 610.373C455.047 610.518 454.379 610.593 453.709 610.598ZM431.464 594.73C431.105 594.73 430.749 594.671 430.41 594.557C427.745 593.668 425.207 589.327 422.865 581.657C421.083 575.817 419.954 569.722 419.855 567.741C419.561 561.87 421.074 557.715 424.35 555.393C430.832 550.8 441.737 555.174 442.198 555.362C442.392 555.443 442.545 555.597 442.626 555.791C442.706 555.985 442.706 556.202 442.627 556.396C442.548 556.59 442.395 556.745 442.202 556.827C442.009 556.909 441.791 556.912 441.597 556.834C441.491 556.791 431.035 552.602 425.267 556.693C422.465 558.68 421.178 562.37 421.443 567.663C421.526 569.331 422.581 575.28 424.386 581.193C426.476 588.041 428.855 592.363 430.913 593.048C431.235 593.156 432.217 593.484 433.624 591.795C436.267 588.615 438.695 586.076 438.719 586.051C438.867 585.907 439.065 585.828 439.271 585.827C439.477 585.826 439.675 585.905 439.824 586.048C439.973 586.19 440.06 586.385 440.068 586.591C440.076 586.796 440.004 586.997 439.867 587.151C439.844 587.176 437.452 589.676 434.846 592.812C433.611 594.295 432.428 594.73 431.464 594.73ZM466.065 588.03C465.92 588.031 465.778 587.991 465.654 587.917C465.53 587.843 465.43 587.736 465.362 587.609C465.294 587.481 465.263 587.337 465.27 587.193C465.278 587.049 465.325 586.91 465.405 586.79C472.813 575.799 475.412 562.518 473.186 559.674C470.383 556.092 466.425 554.221 461.422 554.114C457.718 554.034 454.773 554.98 454.292 555.145L454.172 555.194C453.688 555.346 453.316 555.081 453.177 554.771C453.097 554.593 453.085 554.392 453.143 554.207C453.2 554.021 453.324 553.862 453.491 553.761L453.705 553.674L453.694 553.677L453.706 553.673C454.523 553.374 457.512 552.477 461.216 552.52C466.752 552.578 471.324 554.713 474.438 558.693C475.912 560.576 475.916 564.916 474.448 570.597C472.951 576.39 470.136 582.617 466.725 587.679C466.652 587.787 466.554 587.876 466.438 587.937C466.323 587.998 466.195 588.031 466.065 588.03ZM466.443 593.118C465.178 593.118 464.044 592.94 463.365 592.534C462.668 592.116 462.535 591.547 462.517 591.246C462.326 587.902 464.172 587.32 465.113 587.054C464.982 586.856 464.795 586.623 464.602 586.383C464.054 585.697 463.302 584.758 462.723 583.353C462.633 583.134 462.348 582.624 462.019 582.033C460.236 578.835 456.524 572.179 458.908 568.771C460.012 567.193 462.208 566.573 465.446 566.919C464.494 564.018 459.958 554.941 449.198 554.765C445.962 554.711 443.307 555.706 441.313 557.72C436.847 562.23 437.009 570.39 437.011 570.471C437.014 570.575 436.996 570.679 436.959 570.777C436.921 570.874 436.865 570.963 436.793 571.039C436.721 571.114 436.635 571.176 436.54 571.218C436.444 571.26 436.342 571.284 436.237 571.286C436.133 571.289 436.028 571.271 435.931 571.234C435.834 571.196 435.745 571.14 435.669 571.068C435.593 570.996 435.532 570.91 435.49 570.815C435.447 570.719 435.424 570.617 435.421 570.512C435.411 570.15 435.244 561.587 440.183 556.6C442.494 554.266 445.535 553.114 449.224 553.174C456.109 553.287 460.54 556.787 463.046 559.704C465.775 562.882 467.114 566.388 467.225 567.557C467.307 568.427 466.682 568.602 466.556 568.627L466.27 568.634C463.093 568.125 461.054 568.478 460.212 569.682C458.398 572.274 461.909 578.569 463.408 581.258C463.791 581.945 464.067 582.44 464.193 582.746C464.686 583.94 465.328 584.742 465.844 585.388C466.298 585.955 466.691 586.446 466.832 587.024C466.897 587.139 467.824 588.509 473.322 587.374C474.7 587.09 475.526 587.333 475.778 588.096C476.275 589.6 473.488 591.351 471.944 592.068C470.56 592.711 468.353 593.118 466.443 593.118ZM464.103 591.114C464.277 591.291 465.15 591.594 466.957 591.517C468.563 591.448 470.258 591.098 471.275 590.626C472.576 590.023 473.443 589.348 473.893 588.887L473.643 588.932C470.128 589.658 467.641 589.561 466.254 588.645C466.16 588.583 466.07 588.517 465.985 588.445C465.834 588.504 465.695 588.543 465.596 588.571C464.808 588.792 463.994 589.02 464.103 591.114ZM441.397 595.557C440.523 595.557 439.605 595.439 438.667 595.203C437.694 594.959 436.054 594.228 436.08 593.025C436.108 591.676 438.07 591.271 438.809 591.119C441.477 590.569 441.651 590.349 442.485 589.291C442.728 588.982 443.031 588.597 443.443 588.137C444.056 587.452 444.725 587.104 445.433 587.104C445.926 587.104 446.33 587.272 446.597 587.382C447.448 587.735 448.158 588.587 448.451 589.608C448.714 590.528 448.588 591.415 448.096 592.103C446.483 594.363 444.167 595.557 441.397 595.557ZM437.797 593.094C438.037 593.279 438.517 593.526 439.052 593.661C439.865 593.864 440.653 593.967 441.397 593.967C443.663 593.967 445.481 593.028 446.803 591.179C447.078 590.793 446.996 590.304 446.922 590.045C446.767 589.506 446.384 589.015 445.988 588.851C445.774 588.762 445.597 588.694 445.433 588.694C445.345 588.694 445.078 588.694 444.628 589.196C444.249 589.621 443.976 589.968 443.734 590.274C442.696 591.593 442.22 592.04 439.13 592.676C438.376 592.832 437.989 592.989 437.797 593.094ZM443.912 589.426C443.722 589.426 443.539 589.358 443.395 589.234C443.251 589.11 443.156 588.939 443.127 588.751C443.107 588.62 443.093 588.486 443.087 588.353C441.061 588.315 439.107 587.446 437.624 585.898C435.749 583.941 434.895 581.23 435.283 578.46C435.703 575.451 435.546 572.796 435.461 571.368C435.44 571.075 435.427 570.781 435.422 570.486C435.424 570.236 435.428 569.568 437.659 568.437C438.452 568.036 440.043 567.334 441.781 567.154C444.66 566.857 446.558 568.139 447.126 570.764C448.659 577.856 447.247 580.992 446.216 583.282C446.023 583.708 445.843 584.111 445.697 584.501L445.57 584.845C445.025 586.306 444.554 587.568 444.699 588.51C444.731 588.719 444.679 588.931 444.554 589.101C444.429 589.271 444.242 589.385 444.034 589.417L443.912 589.426ZM437.017 570.707L437.049 571.274C437.137 572.757 437.3 575.515 436.857 578.68C436.538 580.965 437.236 583.195 438.772 584.799C439.986 586.066 441.585 586.765 443.228 586.765H443.262C443.446 585.99 443.751 585.172 444.08 584.29L444.207 583.948C444.371 583.507 444.563 583.081 444.766 582.63C445.759 580.425 446.993 577.68 445.571 571.101C445.288 569.798 444.606 569.044 443.483 568.795C441.176 568.285 437.738 570.02 437.017 570.707ZM441.817 570.369C441.777 570.65 442.331 571.401 443.054 571.501C443.776 571.602 444.395 571.015 444.434 570.734C444.473 570.453 443.918 570.144 443.195 570.042C442.472 569.941 441.855 570.088 441.817 570.369ZM443.221 571.778L443.018 571.764C442.569 571.701 442.116 571.419 441.806 571.007C441.697 570.863 441.518 570.582 441.554 570.332C441.605 569.965 442.051 569.746 442.75 569.746C442.907 569.746 443.069 569.758 443.233 569.78C443.614 569.833 443.969 569.944 444.23 570.09C444.684 570.343 444.717 570.625 444.697 570.772C444.64 571.176 443.995 571.778 443.221 571.778ZM442.08 570.416C442.103 570.589 442.532 571.162 443.091 571.239L443.221 571.248C443.736 571.248 444.123 570.842 444.167 570.709C444.12 570.619 443.788 570.393 443.159 570.306C443.023 570.286 442.886 570.277 442.75 570.276C442.346 570.276 442.13 570.367 442.08 570.416ZM463.811 569.796C463.85 570.078 463.296 570.828 462.573 570.928C461.85 571.028 461.232 570.443 461.192 570.161C461.154 569.88 461.709 569.57 462.431 569.47C463.154 569.368 463.771 569.515 463.811 569.796ZM462.406 571.072C461.71 571.072 461.111 570.53 461.061 570.179C461.005 569.758 461.698 569.437 462.414 569.338C462.571 569.316 462.726 569.305 462.877 569.305C463.494 569.305 463.902 569.486 463.943 569.778C463.97 569.967 463.825 570.258 463.575 570.521C463.41 570.694 463.064 570.994 462.592 571.059L462.406 571.072ZM462.876 569.57C462.738 569.57 462.594 569.58 462.449 569.6C461.73 569.7 461.303 569.989 461.323 570.144C461.347 570.313 461.806 570.807 462.406 570.807L462.554 570.796C462.946 570.741 463.24 570.486 463.381 570.337C463.602 570.106 463.689 569.888 463.679 569.813C463.666 569.716 463.401 569.57 462.876 569.57ZM464.852 585.938C464.708 585.938 464.567 585.898 464.443 585.824C464.32 585.75 464.219 585.644 464.151 585.516C464.083 585.39 464.052 585.246 464.059 585.102C464.066 584.959 464.112 584.82 464.192 584.7C465.885 582.171 465.575 579.592 465.276 577.098C465.147 576.035 465.016 574.937 465.05 573.882C465.085 572.797 465.222 571.903 465.356 571.037C465.514 570.011 465.663 569.041 465.601 567.892C465.597 567.685 465.672 567.485 465.813 567.334C465.954 567.182 466.148 567.091 466.354 567.079C466.56 567.069 466.763 567.138 466.919 567.274C467.075 567.409 467.172 567.601 467.189 567.807C467.26 569.121 467.091 570.217 466.928 571.278C466.801 572.097 466.671 572.943 466.639 573.932C466.609 574.866 466.729 575.858 466.855 576.907C467.174 579.56 467.535 582.567 465.514 585.584C465.361 585.813 465.109 585.938 464.852 585.938Z" fill="white"/>
<path d="M411.154 612.325C412.042 612.18 412.942 612.11 413.842 612.115C415.224 612.115 416.239 612.437 416.882 613.016C417.477 613.531 417.831 614.319 417.831 615.286C417.831 616.267 417.541 617.039 416.994 617.602C416.254 618.39 415.048 618.793 413.68 618.793C413.261 618.793 412.875 618.776 412.554 618.696V623.04H411.154V612.325ZM412.554 617.553C412.86 617.634 413.246 617.666 413.713 617.666C415.401 617.666 416.432 616.845 416.432 615.349C416.432 613.918 415.418 613.226 413.873 613.226C413.262 613.226 412.796 613.274 412.554 613.338V617.553ZM426.309 619.081C426.309 621.961 424.314 623.216 422.431 623.216C420.324 623.216 418.7 621.672 418.7 619.21C418.7 616.604 420.404 615.075 422.56 615.075C424.797 615.075 426.309 616.7 426.309 619.081ZM420.132 619.162C420.132 620.867 421.113 622.154 422.497 622.154C423.848 622.154 424.861 620.883 424.861 619.13C424.861 617.811 424.202 616.137 422.528 616.137C420.854 616.137 420.132 617.682 420.132 619.162ZM427.901 621.591C428.319 621.864 429.06 622.154 429.767 622.154C430.797 622.154 431.279 621.64 431.279 620.996C431.279 620.32 430.878 619.951 429.831 619.564C428.432 619.066 427.772 618.293 427.772 617.36C427.772 616.105 428.786 615.075 430.459 615.075C431.248 615.075 431.94 615.301 432.374 615.559L432.02 616.588C431.541 616.293 430.99 616.137 430.428 616.137C429.591 616.137 429.124 616.62 429.124 617.199C429.124 617.843 429.592 618.133 430.605 618.518C431.957 619.033 432.648 619.709 432.648 620.867C432.648 622.234 431.587 623.2 429.736 623.2C428.884 623.2 428.096 622.991 427.548 622.669L427.901 621.591ZM436.171 613.016V615.252H438.197V616.33H436.171V620.529C436.171 621.494 436.444 622.041 437.232 622.041C437.509 622.045 437.785 622.013 438.053 621.944L438.117 623.006C437.844 623.119 437.409 623.199 436.863 623.199C436.203 623.199 435.672 622.99 435.334 622.604C434.933 622.185 434.787 621.494 434.787 620.577V616.33H433.58V615.252H434.787V613.386L436.171 613.016ZM446.402 615.253C446.37 615.816 446.338 616.443 446.338 617.392V621.913C446.338 623.699 445.984 624.793 445.228 625.469C444.472 626.176 443.378 626.402 442.397 626.402C441.464 626.402 440.434 626.176 439.806 625.759L440.16 624.68C440.675 625.002 441.479 625.292 442.444 625.292C443.892 625.292 444.954 624.535 444.954 622.573V621.704H444.922C444.488 622.428 443.651 623.008 442.444 623.008C440.514 623.008 439.13 621.367 439.13 619.21C439.13 616.572 440.852 615.075 442.637 615.075C443.99 615.075 444.73 615.784 445.067 616.427H445.1L445.164 615.253H446.402ZM444.938 618.325C444.938 618.084 444.923 617.875 444.858 617.682C444.601 616.862 443.909 616.186 442.879 616.186C441.527 616.186 440.563 617.328 440.563 619.13C440.563 620.658 441.335 621.929 442.863 621.929C443.732 621.929 444.52 621.382 444.826 620.481C444.906 620.24 444.939 619.966 444.939 619.725L444.938 618.325ZM448.59 617.682C448.59 616.765 448.574 615.977 448.526 615.253H449.765L449.812 616.781H449.877C450.23 615.735 451.084 615.075 452.033 615.075C452.193 615.075 452.306 615.092 452.434 615.124V616.459C452.276 616.425 452.114 616.409 451.952 616.411C450.955 616.411 450.246 617.167 450.054 618.229C450.014 618.446 449.992 618.667 449.989 618.889V623.039H448.59V617.682ZM454.478 619.403C454.511 621.318 455.733 622.106 457.148 622.106C458.163 622.106 458.773 621.929 459.304 621.704L459.545 622.717C459.047 622.942 458.194 623.2 456.955 623.2C454.558 623.2 453.126 621.623 453.126 619.274C453.126 616.926 454.51 615.075 456.778 615.075C459.32 615.075 459.996 617.311 459.996 618.743C459.996 619.033 459.963 619.258 459.948 619.403L454.478 619.403ZM458.629 618.39C458.644 617.489 458.258 616.089 456.667 616.089C455.234 616.089 454.607 617.408 454.494 618.39H458.629Z" fill="black"/>
<path d="M461.604 621.334C462.363 621.789 463.229 622.034 464.114 622.041C465.546 622.041 466.382 621.285 466.382 620.192C466.382 619.178 465.803 618.599 464.34 618.036C462.57 617.408 461.476 616.492 461.476 614.963C461.476 613.274 462.875 612.019 464.983 612.019C466.093 612.019 466.897 612.277 467.38 612.55L466.994 613.692C466.361 613.352 465.653 613.175 464.934 613.178C463.455 613.178 462.892 614.062 462.892 614.802C462.892 615.816 463.55 616.315 465.047 616.893C466.881 617.602 467.814 618.486 467.814 620.079C467.814 621.752 466.576 623.2 464.018 623.2C462.972 623.2 461.83 622.894 461.25 622.508L461.604 621.334ZM478.673 624.632C477.275 624.265 475.891 623.846 474.523 623.377C474.298 623.296 474.073 623.216 473.863 623.216C471.289 623.119 469.085 621.221 469.085 617.73C469.085 614.255 471.209 612.019 474.137 612.019C477.081 612.019 478.996 614.304 478.996 617.505C478.996 620.288 477.709 622.074 475.907 622.701V622.766C476.985 623.039 478.159 623.296 479.077 623.457L478.673 624.632ZM477.515 617.57C477.515 615.397 476.389 613.161 474.088 613.161C471.724 613.161 470.565 615.348 470.581 617.698C470.565 619.999 471.836 622.074 474.024 622.074C476.261 622.074 477.515 620.047 477.515 617.57ZM480.812 612.196H482.213V621.864H486.846V623.039H480.812V612.196Z" fill="#336791"/>
</g>
<path d="M271.16 494.339L269 493.092L266.84 494.339L188.898 539.339L186.738 540.586V543.08V633.08V635.574L188.898 636.821L266.84 681.821L269 683.068L271.16 681.821L349.102 636.821L351.262 635.574V633.08V543.08V540.586L349.102 539.339L271.16 494.339Z" fill="white" stroke="#3A4D54" stroke-width="12"/>
<path d="M91.16 494.339L89 493.092L86.84 494.339L8.89769 539.339L6.73769 540.586V543.08V633.08V635.574L8.89769 636.821L86.84 681.821L89 683.068L91.16 681.821L169.102 636.821L171.262 635.574V633.08V543.08V540.586L169.102 539.339L91.16 494.339Z" fill="white" stroke="#3A4D54" stroke-width="12"/>
<path d="M991.16 494.339L989 493.092L986.84 494.339L908.9 539.339L906.74 540.586V543.08V633.08V635.574L908.9 636.821L986.84 681.821L989 683.068L991.16 681.821L1069.1 636.821L1071.26 635.574V633.08V543.08V540.586L1069.1 539.339L991.16 494.339Z" fill="white" stroke="#3A4D54" stroke-width="12"/>
<path d="M631.16 494.339L629 493.092L626.84 494.339L548.898 539.339L546.738 540.586V543.08V633.08V635.574L548.898 636.821L626.84 681.821L629 683.068L631.16 681.821L709.102 636.821L711.262 635.574V633.08V543.08V540.586L709.102 539.339L631.16 494.339Z" fill="white" stroke="#27738E" stroke-width="12"/>
<g opacity="0.2">
<path d="M605.852 576.5H622.821L621.994 581.38H611.035L610.209 586.477H620.089L619.264 591.373H609.384L607.733 601.363H601.725L605.852 576.5Z" fill="#333333"/>
<path d="M623.096 582.715H629.032L625.93 601.358H619.994L623.096 582.715ZM623.816 577.69C624.061 576.128 625.603 574.862 627.272 574.862C628.941 574.862 630.13 576.128 629.923 577.69C629.716 579.253 628.163 580.53 626.489 580.53C624.814 580.53 623.588 579.243 623.816 577.69Z" fill="#333333"/>
<path d="M632.112 576.5H638.046L636.505 585.907H636.632C637.603 584.195 639.534 582.473 642.483 582.473C646.379 582.473 649.395 585.471 648.296 592.049C647.252 598.396 643.368 601.625 639.241 601.625C636.426 601.625 635.018 600.059 634.581 598.336H634.35L633.864 601.36H627.992L632.112 576.5ZM637.974 597.008C640.159 597.008 641.718 595.054 642.198 592.044C642.677 589.035 641.809 587.115 639.606 587.115C637.433 587.115 635.843 588.997 635.358 592.044C634.867 595.058 635.801 597.008 637.974 597.008Z" fill="#333333"/>
<path d="M648.986 592.112C649.943 586.335 654.216 582.476 659.836 582.476C665.128 582.476 668.285 585.861 667.265 591.991L667.033 593.471H654.618L654.58 593.69C654.204 596.058 655.32 597.434 657.639 597.434C659.181 597.434 660.519 596.779 661.195 595.529L666.608 595.686C665.287 599.352 661.73 601.718 656.816 601.718C650.963 601.71 647.978 598.069 648.986 592.112ZM662.07 590.024C662.373 588.119 661.231 586.76 659.29 586.76C657.372 586.76 655.673 588.179 655.248 590.024H662.07Z" fill="#333333"/>
<path d="M670.155 582.714H675.915L675.339 586.113H675.534C676.638 583.649 678.47 582.464 680.509 582.464C681.057 582.467 681.603 582.535 682.136 582.665L681.262 587.837C680.716 587.631 679.708 587.521 678.968 587.521C676.869 587.521 675.047 589.014 674.66 591.235L672.983 601.358H667.049L670.155 582.714Z" fill="#333333"/>
<path d="M602.183 583.099H582.813L581.264 585.298L601.824 585.286L602.183 583.099Z" fill="#00ACD7"/>
<path d="M601.499 587.657H576.433L574.839 589.847L601.14 589.828L601.499 587.657Z" fill="#00ACD7"/>
<path d="M600.815 592.213H590.106L588.666 594.412L600.456 594.403L600.815 592.213Z" fill="#00ACD7"/>
</g>
<path d="M811.16 494.339L809 493.092L806.84 494.339L728.9 539.339L726.74 540.586V543.08V633.08V635.574L728.9 636.821L806.84 681.821L809 683.068L811.16 681.821L889.1 636.821L891.26 635.574V633.08V543.08V540.586L889.1 539.339L811.16 494.339Z" fill="white" stroke="#27738E" stroke-width="12"/>
<mask id="mask4_211_75" style="mask-type:luminance" maskUnits="userSpaceOnUse" x="756" y="570" width="95" height="36">
<path d="M850.04 570.8H756.44V605.9H850.04V570.8Z" fill="white"/>
</mask>
<g mask="url(#mask4_211_75)">
<path d="M809.922 573.23L810.123 573.367C812.543 574.962 814.271 577.15 815.408 579.793C815.682 580.203 815.502 580.431 814.955 580.568L814.033 580.805C811.938 581.344 810.275 581.797 808.208 582.336L807.035 582.643C806.61 582.748 806.495 582.704 806.041 582.19L805.976 582.117C805.335 581.388 804.853 580.901 803.996 580.466L803.838 580.386C800.965 578.973 798.186 579.383 795.587 581.069C792.491 583.074 790.892 586.036 790.935 589.728C790.986 593.374 793.491 596.381 797.091 596.882C800.187 597.293 802.787 596.199 804.839 593.875C805.249 593.374 805.616 592.827 806.07 592.189H797.271C796.314 592.189 796.091 591.596 796.407 590.821L796.566 590.45C797.149 589.087 798.056 587.129 798.647 586.008L798.776 585.767C798.935 585.494 799.259 585.125 799.871 585.125H814.537C815.192 583.038 816.265 581.066 817.691 579.201C821.017 574.826 825.027 572.547 830.449 571.59C835.1 570.769 839.471 571.225 843.438 573.914C847.038 576.375 849.27 579.702 849.86 584.076C850.638 590.229 848.859 595.242 844.626 599.526C841.616 602.579 837.923 604.493 833.689 605.359C832.458 605.587 831.227 605.633 830.039 605.769C825.891 605.678 822.111 604.493 818.922 601.759C816.675 599.819 815.127 597.436 814.364 594.66C813.824 595.748 813.183 596.782 812.449 597.749C809.166 602.078 804.882 604.766 799.46 605.496C794.996 606.088 790.849 605.222 787.199 602.488C783.829 599.936 781.914 596.563 781.417 592.371C780.819 587.404 782.281 582.937 785.291 579.018C788.523 574.78 792.807 572.091 798.049 571.134C802.254 570.374 806.279 570.843 809.922 573.23ZM831.601 579.761L831.45 579.793C827.216 580.75 824.48 583.439 823.479 587.723C822.659 591.277 824.387 594.877 827.67 596.336C830.175 597.43 832.681 597.293 835.1 596.062C838.7 594.194 840.659 591.277 840.889 587.358C840.839 586.766 840.839 586.31 840.752 585.854C839.939 581.393 835.878 578.848 831.601 579.761ZM777.723 588.087C777.903 588.087 777.997 588.224 777.997 588.406L777.903 589.5C777.903 589.682 777.723 589.819 777.587 589.819L767.651 589.773C767.471 589.773 767.42 589.636 767.514 589.5L768.155 588.36C768.241 588.224 768.428 588.087 768.608 588.087H777.723ZM778.724 583.894C778.904 583.894 778.998 584.031 778.955 584.168L778.587 585.262C778.544 585.444 778.357 585.535 778.177 585.535L756.62 585.581C756.44 585.581 756.397 585.49 756.483 585.353L757.441 584.123C757.535 583.986 757.765 583.894 757.945 583.894H778.724ZM781.093 579.702C781.28 579.702 781.323 579.839 781.23 579.975L780.459 581.16C780.366 581.297 780.135 581.433 779.999 581.433L763.503 581.388C763.323 581.388 763.273 581.297 763.367 581.16L764.324 579.93C764.418 579.793 764.641 579.702 764.828 579.702H781.093Z" fill="#00ACD7" fill-opacity="0.2"/>
</g>
</g>
</g>
<defs>
<clipPath id="clip0_211_75">
<rect width="1080" height="720" fill="white"/>
</clipPath>
<clipPath id="clip1_211_75">
<rect width="1080" height="509.461" fill="white" transform="translate(0 22)"/>
</clipPath>
<clipPath id="clip2_211_75">
<rect width="1080" height="200.16" fill="white" transform="translate(-1 488)"/>
</clipPath>
</defs>
</svg>
