<svg width="240" height="240" viewBox="0 0 240 240" fill="none" xmlns="http://www.w3.org/2000/svg">
<path d="M102.5 20C104.4 20 106.1 21.1 106.9 22.6L129.1 62.2L130 65L129.1 67.8L106.9 107.4C106.1 108.9 104.4 110 102.5 110H57.5C55.6 110 53.9 108.9 53.1 107.4L30.9 67.8L30 65L30.9 62.2L53.1 22.6C53.9 21.1 55.6 20 57.5 20H102.5ZM102.5 130C104.4 130 106.1 131.1 106.9 132.6L129.1 172.2L130 175L129.1 177.8L106.9 217.4C106.1 218.9 104.4 220 102.5 220H57.5C55.6 220 53.9 218.9 53.1 217.4L30.9 177.8L30 175L30.9 172.2L53.1 132.6C53.9 131.1 55.6 130 57.5 130H102.5ZM195 75C196.9 75 198.6 76.1 199.4 77.6L221.6 117.2L222.5 120L221.6 122.8L199.4 162.4C198.6 163.9 196.9 165 195 165H150C148.1 165 146.4 163.9 145.6 162.4L123.4 122.8L122.5 120L123.4 117.2L145.6 77.6C146.4 76.1 148.1 75 150 75H195Z" fill="black"/>
</svg>
