<svg width="944" height="161" viewBox="0 0 944 161" fill="none" xmlns="http://www.w3.org/2000/svg">
<path d="M71.8161 37.9212C71.3331 33.0514 69.2604 29.2682 65.598 26.5717C61.9356 23.8752 56.9652 22.527 50.6868 22.527C46.4207 22.527 42.8187 23.1307 39.8807 24.3381C36.9427 25.5052 34.6889 27.1352 33.1193 29.228C31.59 31.3208 30.8253 33.6953 30.8253 36.3516C30.7448 38.5651 31.2076 40.4969 32.2138 42.147C33.2602 43.7971 34.6889 45.2259 36.5 46.4332C38.3111 47.6004 40.4039 48.6267 42.7784 49.5121C45.1529 50.3572 47.6884 51.0817 50.3849 51.6854L61.4929 54.3416C66.8859 55.549 71.8362 57.1589 76.3438 59.1712C80.8513 61.1835 84.7552 63.6586 88.0554 66.5966C91.3556 69.5346 93.9112 72.9957 95.7223 76.9801C97.5736 80.9645 98.5194 85.5324 98.5597 90.6839C98.5194 98.2502 96.5876 104.81 92.7642 110.364C88.9811 115.878 83.5076 120.164 76.3438 123.223C69.2202 126.241 60.6276 127.751 50.5661 127.751C40.585 127.751 31.8918 126.221 24.4865 123.163C17.1214 120.104 11.3662 115.576 7.22088 109.58C3.11577 103.543 0.962595 96.0769 0.761364 87.1825H26.0561C26.3378 91.3279 27.5251 94.7891 29.6179 97.566C31.7509 100.303 34.5883 102.375 38.13 103.784C41.7119 105.152 45.7566 105.837 50.2642 105.837C54.6913 105.837 58.5348 105.193 61.7947 103.905C65.0949 102.617 67.6506 100.826 69.4617 98.532C71.2727 96.2379 72.1783 93.6018 72.1783 90.6236C72.1783 87.8466 71.3532 85.5123 69.7031 83.6207C68.0933 81.7292 65.7188 80.1193 62.5795 78.7912C59.4806 77.4631 55.6773 76.2557 51.1697 75.169L37.7074 71.7883C27.2836 69.2528 19.0533 65.2886 13.0163 59.8956C6.9794 54.5026 3.98106 47.2382 4.02131 38.1023C3.98106 30.6165 5.97325 24.0765 9.99787 18.4822C14.0627 12.888 19.6368 8.52131 26.7202 5.3821C33.8035 2.24289 41.8527 0.673291 50.8679 0.673291C60.044 0.673291 68.053 2.24289 74.8949 5.3821C81.777 8.52131 87.1297 12.888 90.9531 18.4822C94.7765 24.0765 96.7486 30.5561 96.8693 37.9212H71.8161ZM142.282 2.36363V126H116.142V2.36363H142.282ZM163.789 2.36363H196.026L230.074 85.4318H231.523L265.571 2.36363H297.809V126H272.453V45.5277H271.427L239.431 125.396H222.166L190.17 45.2258H189.144V126H163.789V2.36363ZM319.345 126V2.36363H401.206V23.9155H345.485V53.3757H395.773V74.9276H345.485V126H319.345ZM443.585 127.751C437.669 127.751 432.397 126.724 427.769 124.672C423.14 122.579 419.478 119.5 416.781 115.435C414.125 111.33 412.797 106.219 412.797 100.102C412.797 94.95 413.743 90.6236 415.634 87.1222C417.526 83.6207 420.102 80.8035 423.362 78.6705C426.622 76.5374 430.324 74.9276 434.47 73.8409C438.655 72.7543 443.042 71.9896 447.63 71.5469C453.023 70.9834 457.37 70.4602 460.67 69.9773C463.97 69.4541 466.365 68.6894 467.854 67.6832C469.343 66.6771 470.088 65.188 470.088 63.2159V62.8537C470.088 59.0303 468.88 56.0722 466.465 53.9794C464.091 51.8866 460.71 50.8402 456.323 50.8402C451.695 50.8402 448.012 51.8665 445.276 53.919C442.539 55.9313 440.728 58.4669 439.843 61.5256L416.057 59.5938C417.264 53.9593 419.639 49.0895 423.181 44.9844C426.722 40.839 431.29 37.6596 436.884 35.446C442.519 33.1922 449.039 32.0653 456.444 32.0653C461.596 32.0653 466.526 32.669 471.235 33.8764C475.984 35.0838 480.189 36.9553 483.852 39.4908C487.554 42.0263 490.472 45.2862 492.605 49.2706C494.738 53.2147 495.805 57.9437 495.805 63.4574V126H471.416V113.141H470.691C469.202 116.039 467.21 118.595 464.715 120.808C462.219 122.982 459.221 124.692 455.72 125.94C452.218 127.147 448.173 127.751 443.585 127.751ZM450.95 110.002C454.734 110.002 458.074 109.258 460.972 107.768C463.869 106.239 466.143 104.187 467.794 101.611C469.444 99.035 470.269 96.1172 470.269 92.8572V83.017C469.464 83.5402 468.357 84.0232 466.948 84.4659C465.58 84.8684 464.03 85.2507 462.3 85.6129C460.569 85.9349 458.839 86.2367 457.108 86.5185C455.378 86.7599 453.808 86.9813 452.399 87.1825C449.381 87.6252 446.745 88.3295 444.491 89.2955C442.237 90.2614 440.486 91.5694 439.239 93.2195C437.991 94.8293 437.367 96.8416 437.367 99.2564C437.367 102.758 438.635 105.434 441.171 107.286C443.746 109.097 447.006 110.002 450.95 110.002ZM557.653 127.811C548.155 127.811 539.985 125.799 533.143 121.774C526.342 117.709 521.11 112.075 517.447 104.871C513.825 97.6667 512.014 89.3759 512.014 79.9986C512.014 70.5005 513.845 62.1695 517.508 55.0057C521.21 47.8016 526.462 42.1873 533.264 38.1626C540.066 34.0978 548.155 32.0653 557.532 32.0653C565.622 32.0653 572.705 33.5343 578.782 36.4723C584.86 39.4103 589.669 43.5355 593.211 48.848C596.752 54.1605 598.704 60.3987 599.067 67.5625H574.798C574.114 62.9342 572.303 59.2114 569.365 56.3942C566.467 53.5367 562.664 52.108 557.955 52.108C553.971 52.108 550.489 53.1946 547.511 55.3679C544.573 57.5009 542.279 60.62 540.629 64.7251C538.979 68.8303 538.154 73.8007 538.154 79.6364C538.154 85.5526 538.959 90.5833 540.569 94.7287C542.219 98.8741 544.533 102.033 547.511 104.207C550.489 106.38 553.971 107.467 557.955 107.467C560.893 107.467 563.529 106.863 565.863 105.656C568.238 104.448 570.19 102.697 571.719 100.403C573.289 98.0691 574.315 95.272 574.798 92.0121H599.067C598.664 99.0954 596.732 105.334 593.271 110.727C589.85 116.079 585.121 120.265 579.084 123.283C573.047 126.302 565.904 127.811 557.653 127.811ZM664.854 33.2727V52.5909H609.012V33.2727H664.854ZM621.69 11.0568H647.407V97.5057C647.407 99.8802 647.77 101.732 648.494 103.06C649.218 104.348 650.225 105.253 651.512 105.776C652.841 106.299 654.37 106.561 656.1 106.561C657.308 106.561 658.515 106.46 659.723 106.259C660.93 106.018 661.856 105.837 662.5 105.716L666.544 124.853C665.257 125.255 663.445 125.718 661.111 126.241C658.777 126.805 655.94 127.147 652.599 127.268C646.401 127.509 640.968 126.684 636.299 124.793C631.671 122.901 628.069 119.963 625.493 115.979C622.917 111.994 621.65 106.964 621.69 100.886V11.0568ZM722.507 127.811C713.129 127.811 705.02 125.819 698.178 121.835C691.376 117.81 686.124 112.216 682.422 105.052C678.719 97.8478 676.868 89.4967 676.868 79.9986C676.868 70.42 678.719 62.0488 682.422 54.8849C686.124 47.6809 691.376 42.0866 698.178 38.1023C705.02 34.0776 713.129 32.0653 722.507 32.0653C731.884 32.0653 739.974 34.0776 746.775 38.1023C753.617 42.0866 758.889 47.6809 762.592 54.8849C766.295 62.0488 768.146 70.42 768.146 79.9986C768.146 89.4967 766.295 97.8478 762.592 105.052C758.889 112.216 753.617 117.81 746.775 121.835C739.974 125.819 731.884 127.811 722.507 127.811ZM722.627 107.889C726.894 107.889 730.455 106.682 733.313 104.267C736.17 101.812 738.324 98.4716 739.772 94.2457C741.261 90.0199 742.006 85.2105 742.006 79.8175C742.006 74.4245 741.261 69.6151 739.772 65.3892C738.324 61.1634 736.17 57.8229 733.313 55.3679C730.455 52.9129 726.894 51.6854 722.627 51.6854C718.321 51.6854 714.699 52.9129 711.761 55.3679C708.863 57.8229 706.67 61.1634 705.181 65.3892C703.732 69.6151 703.007 74.4245 703.007 79.8175C703.007 85.2105 703.732 90.0199 705.181 94.2457C706.67 98.4716 708.863 101.812 711.761 104.267C714.699 106.682 718.321 107.889 722.627 107.889ZM784.868 126V33.2727H809.801V49.4517H810.767C812.457 43.6965 815.294 39.3499 819.279 36.4119C823.263 33.4337 827.851 31.9446 833.043 31.9446C834.331 31.9446 835.719 32.0251 837.208 32.1861C838.698 32.3471 840.006 32.5684 841.132 32.8501V55.6697C839.925 55.3075 838.255 54.9856 836.122 54.7038C833.989 54.4221 832.037 54.2812 830.266 54.2812C826.483 54.2812 823.102 55.1063 820.124 56.7564C817.186 58.3662 814.852 60.62 813.121 63.5178C811.431 66.4155 810.586 69.7559 810.586 73.5391V126H784.868ZM873.128 160.773C869.868 160.773 866.81 160.511 863.952 159.988C861.135 159.505 858.801 158.881 856.949 158.116L862.745 138.919C865.763 139.845 868.48 140.348 870.895 140.428C873.35 140.509 875.462 139.945 877.233 138.738C879.044 137.531 880.513 135.478 881.64 132.58L883.15 128.656L849.886 33.2727H876.931L896.129 101.369H897.095L916.473 33.2727H943.7L907.659 136.021C905.929 141.012 903.574 145.358 900.596 149.061C897.658 152.804 893.935 155.682 889.428 157.694C884.92 159.746 879.487 160.773 873.128 160.773Z" fill="black"/>
</svg>
