<svg width="490" height="26" viewBox="0 0 490 26" fill="none" xmlns="http://www.w3.org/2000/svg">
<path d="M3.648 24.32V21.824H7.368C8.072 21.824 8.616 21.632 9 21.248C9.384 20.88 9.576 20.376 9.576 19.736V18.944L9.624 16.28H8.976L9.912 15.128C9.912 16.392 9.568 17.392 8.88 18.128C8.192 18.848 7.272 19.208 6.12 19.208C4.776 19.208 3.704 18.76 2.904 17.864C2.12 16.952 1.728 15.72 1.728 14.168V11.6C1.728 10.064 2.12 8.84 2.904 7.928C3.704 7.016 4.776 6.56 6.12 6.56C7.272 6.56 8.192 6.928 8.88 7.664C9.568 8.4 9.912 9.4 9.912 10.664L8.976 9.08H9.624V6.8H12.552V19.808C12.552 21.2 12.088 22.296 11.16 23.096C10.248 23.912 9 24.32 7.416 24.32H3.648ZM7.128 16.64C7.896 16.64 8.488 16.416 8.904 15.968C9.336 15.504 9.552 14.864 9.552 14.048V11.744C9.552 10.928 9.336 10.296 8.904 9.848C8.488 9.384 7.896 9.152 7.128 9.152C6.36 9.152 5.768 9.376 5.352 9.824C4.936 10.256 4.728 10.864 4.728 11.648V14.144C4.728 14.928 4.936 15.544 5.352 15.992C5.768 16.424 6.36 16.64 7.128 16.64ZM16.2146 20V17.288H20.7266V9.512H16.6946V6.8H23.7266V17.288H27.7826V20H16.2146ZM22.0226 4.592C21.4146 4.592 20.9346 4.44 20.5826 4.136C20.2306 3.816 20.0546 3.392 20.0546 2.864C20.0546 2.336 20.2306 1.92 20.5826 1.616C20.9346 1.296 21.4146 1.136 22.0226 1.136C22.6306 1.136 23.1106 1.296 23.4626 1.616C23.8146 1.92 23.9906 2.336 23.9906 2.864C23.9906 3.392 23.8146 3.816 23.4626 4.136C23.1106 4.44 22.6306 4.592 22.0226 4.592ZM37.3013 20C36.0693 20 35.0853 19.648 34.3493 18.944C33.6293 18.224 33.2693 17.256 33.2693 16.04V9.512H29.6213V6.8H33.2693V3.08H36.2933V6.8H41.5493V9.512H36.2933V15.968C36.2933 16.352 36.3973 16.672 36.6053 16.928C36.8293 17.168 37.1333 17.288 37.5173 17.288H41.4293V20H37.3013ZM45.0199 20V2.48H48.0199V6.8L47.9479 9.32H48.7639L47.8759 10.016C47.8919 8.96 48.2279 8.12 48.8839 7.496C49.5399 6.872 50.4119 6.56 51.4999 6.56C52.7959 6.56 53.8279 6.992 54.5959 7.856C55.3799 8.72 55.7719 9.88 55.7719 11.336V20H52.7719V11.696C52.7719 10.88 52.5639 10.256 52.1479 9.824C51.7319 9.376 51.1559 9.152 50.4199 9.152C49.6679 9.152 49.0759 9.376 48.6439 9.824C48.2279 10.272 48.0199 10.912 48.0199 11.744V20H45.0199ZM64.7625 20.24C63.0825 20.24 61.7625 19.776 60.8025 18.848C59.8425 17.904 59.3625 16.624 59.3625 15.008V6.8H62.3625V14.984C62.3625 15.816 62.5705 16.464 62.9865 16.928C63.4025 17.392 63.9945 17.624 64.7625 17.624C65.5145 17.624 66.0985 17.392 66.5145 16.928C66.9465 16.464 67.1625 15.816 67.1625 14.984V6.8H70.1625V15.008C70.1625 16.624 69.6745 17.904 68.6985 18.848C67.7225 19.776 66.4105 20.24 64.7625 20.24ZM80.3531 20.24C79.1851 20.24 78.2571 19.872 77.5691 19.136C76.8811 18.384 76.5371 17.368 76.5371 16.088L77.4011 17.336H76.7291V20H73.8011V2.48H76.8011V6.176L76.7051 9.464H77.4011L76.5131 10.712C76.5131 9.432 76.8571 8.424 77.5451 7.688C78.2491 6.936 79.1851 6.56 80.3531 6.56C81.6491 6.56 82.6891 7.016 83.4731 7.928C84.2571 8.84 84.6491 10.072 84.6491 11.624V15.2C84.6491 16.736 84.2571 17.96 83.4731 18.872C82.6891 19.784 81.6491 20.24 80.3531 20.24ZM79.2251 17.648C79.9931 17.648 80.5851 17.44 81.0011 17.024C81.4331 16.592 81.6491 15.952 81.6491 15.104V11.696C81.6491 10.832 81.4331 10.192 81.0011 9.776C80.5851 9.36 79.9931 9.152 79.2251 9.152C78.4571 9.152 77.8571 9.384 77.4251 9.848C77.0091 10.312 76.8011 10.968 76.8011 11.816V14.984C76.8011 15.832 77.0091 16.488 77.4251 16.952C77.8571 17.416 78.4571 17.648 79.2251 17.648ZM93.5438 20.24C92.8718 20.24 92.3278 20.04 91.9118 19.64C91.5118 19.224 91.3118 18.688 91.3118 18.032C91.3118 17.36 91.5118 16.824 91.9118 16.424C92.3278 16.008 92.8718 15.8 93.5438 15.8C94.2158 15.8 94.7518 16.008 95.1518 16.424C95.5678 16.824 95.7758 17.36 95.7758 18.032C95.7758 18.688 95.5678 19.224 95.1518 19.64C94.7518 20.04 94.2158 20.24 93.5438 20.24ZM108.15 20.24C107.014 20.24 106.022 20.032 105.174 19.616C104.342 19.184 103.694 18.584 103.23 17.816C102.766 17.032 102.534 16.112 102.534 15.056V11.744C102.534 10.672 102.766 9.752 103.23 8.984C103.694 8.216 104.342 7.624 105.174 7.208C106.022 6.776 107.014 6.56 108.15 6.56C109.798 6.56 111.118 6.992 112.11 7.856C113.102 8.704 113.63 9.864 113.694 11.336H110.742C110.694 10.648 110.438 10.12 109.974 9.752C109.51 9.368 108.902 9.176 108.15 9.176C107.334 9.176 106.694 9.4 106.23 9.848C105.766 10.28 105.534 10.904 105.534 11.72V15.056C105.534 15.872 105.766 16.504 106.23 16.952C106.694 17.4 107.334 17.624 108.15 17.624C108.902 17.624 109.51 17.44 109.974 17.072C110.438 16.688 110.694 16.152 110.742 15.464H113.694C113.63 16.936 113.102 18.104 112.11 18.968C111.118 19.816 109.798 20.24 108.15 20.24ZM122.325 20.216C121.205 20.216 120.229 20 119.397 19.568C118.565 19.136 117.925 18.528 117.477 17.744C117.029 16.944 116.805 16.008 116.805 14.936V11.864C116.805 10.776 117.029 9.84 117.477 9.056C117.925 8.272 118.565 7.664 119.397 7.232C120.229 6.8 121.205 6.584 122.325 6.584C123.461 6.584 124.437 6.8 125.253 7.232C126.085 7.664 126.725 8.272 127.173 9.056C127.621 9.84 127.845 10.776 127.845 11.864V14.936C127.845 16.008 127.621 16.944 127.173 17.744C126.725 18.528 126.085 19.136 125.253 19.568C124.437 20 123.461 20.216 122.325 20.216ZM122.325 17.6C123.125 17.6 123.741 17.384 124.173 16.952C124.621 16.504 124.845 15.864 124.845 15.032V11.768C124.845 10.92 124.621 10.28 124.173 9.848C123.741 9.416 123.125 9.2 122.325 9.2C121.541 9.2 120.925 9.416 120.477 9.848C120.029 10.28 119.805 10.92 119.805 11.768V15.032C119.805 15.864 120.029 16.504 120.477 16.952C120.925 17.384 121.541 17.6 122.325 17.6ZM130.644 20V6.8H133.14V8.72H133.644L133.188 9.056C133.188 8.32 133.388 7.72 133.788 7.256C134.188 6.792 134.724 6.56 135.396 6.56C136.116 6.56 136.7 6.84 137.148 7.4C137.612 7.944 137.844 8.656 137.844 9.536L137.268 8.672H138.084L137.7 9.056C137.716 8.288 137.932 7.68 138.348 7.232C138.764 6.784 139.316 6.56 140.004 6.56C140.82 6.56 141.484 6.872 141.996 7.496C142.524 8.12 142.788 8.936 142.788 9.944V20H140.148V10.16C140.148 9.728 140.044 9.392 139.836 9.152C139.644 8.896 139.364 8.768 138.996 8.768C138.644 8.768 138.372 8.896 138.18 9.152C138.004 9.392 137.916 9.728 137.916 10.16V20H135.516V10.16C135.516 9.728 135.42 9.392 135.228 9.152C135.052 8.896 134.788 8.768 134.436 8.768C134.068 8.768 133.78 8.896 133.572 9.152C133.38 9.392 133.284 9.728 133.284 10.16V20H130.644ZM145.346 22.64L153.746 0.079999H156.866L148.466 22.64H145.346ZM164.297 20.24C163.017 20.24 161.977 19.784 161.177 18.872C160.393 17.96 160.001 16.736 160.001 15.2V11.624C160.001 10.072 160.393 8.84 161.177 7.928C161.977 7.016 163.017 6.56 164.297 6.56C165.481 6.56 166.417 6.936 167.105 7.688C167.793 8.424 168.137 9.432 168.137 10.712L167.249 9.464H167.945L167.849 6.176V2.48H170.849V20H167.921V17.336H167.249L168.113 16.088C168.113 17.368 167.769 18.384 167.081 19.136C166.409 19.872 165.481 20.24 164.297 20.24ZM165.425 17.648C166.193 17.648 166.785 17.416 167.201 16.952C167.633 16.488 167.849 15.832 167.849 14.984V11.816C167.849 10.968 167.633 10.312 167.201 9.848C166.785 9.384 166.193 9.152 165.425 9.152C164.657 9.152 164.057 9.36 163.625 9.776C163.209 10.192 163.001 10.832 163.001 11.696V15.104C163.001 15.952 163.209 16.592 163.625 17.024C164.057 17.44 164.657 17.648 165.425 17.648ZM174.536 20V2.48H177.536V6.8L177.464 9.32H178.28L177.392 10.016C177.408 8.96 177.744 8.12 178.4 7.496C179.056 6.872 179.928 6.56 181.016 6.56C182.312 6.56 183.344 6.992 184.112 7.856C184.896 8.72 185.288 9.88 185.288 11.336V20H182.288V11.696C182.288 10.88 182.08 10.256 181.664 9.824C181.248 9.376 180.672 9.152 179.936 9.152C179.184 9.152 178.592 9.376 178.16 9.824C177.744 10.272 177.536 10.912 177.536 11.744V20H174.536ZM188.902 20V17.288H193.414V9.512H189.382V6.8H196.414V17.288H200.47V20H188.902ZM194.71 4.592C194.102 4.592 193.622 4.44 193.27 4.136C192.918 3.816 192.742 3.392 192.742 2.864C192.742 2.336 192.918 1.92 193.27 1.616C193.622 1.296 194.102 1.136 194.71 1.136C195.318 1.136 195.798 1.296 196.15 1.616C196.502 1.92 196.678 2.336 196.678 2.864C196.678 3.392 196.502 3.816 196.15 4.136C195.798 4.44 195.318 4.592 194.71 4.592ZM202.597 20V6.8H205.093V8.72H205.597L205.141 9.056C205.141 8.32 205.341 7.72 205.741 7.256C206.141 6.792 206.677 6.56 207.349 6.56C208.069 6.56 208.653 6.84 209.101 7.4C209.565 7.944 209.797 8.656 209.797 9.536L209.221 8.672H210.037L209.653 9.056C209.669 8.288 209.885 7.68 210.301 7.232C210.717 6.784 211.269 6.56 211.957 6.56C212.773 6.56 213.437 6.872 213.949 7.496C214.477 8.12 214.741 8.936 214.741 9.944V20H212.101V10.16C212.101 9.728 211.997 9.392 211.789 9.152C211.597 8.896 211.317 8.768 210.949 8.768C210.597 8.768 210.325 8.896 210.133 9.152C209.957 9.392 209.869 9.728 209.869 10.16V20H207.469V10.16C207.469 9.728 207.373 9.392 207.181 9.152C207.005 8.896 206.741 8.768 206.389 8.768C206.021 8.768 205.733 8.896 205.525 9.152C205.333 9.392 205.237 9.728 205.237 10.16V20H202.597ZM221.595 20.24C220.251 20.24 219.187 19.864 218.403 19.112C217.635 18.344 217.251 17.344 217.251 16.112C217.251 15.248 217.451 14.504 217.851 13.88C218.251 13.256 218.819 12.776 219.555 12.44C220.307 12.088 221.187 11.912 222.195 11.912H225.411V10.976C225.411 10.336 225.211 9.848 224.811 9.512C224.427 9.16 223.851 8.984 223.083 8.984C222.379 8.984 221.811 9.12 221.379 9.392C220.963 9.664 220.739 10.048 220.707 10.544H217.827C217.891 9.344 218.387 8.384 219.315 7.664C220.259 6.928 221.523 6.56 223.107 6.56C224.787 6.56 226.091 6.952 227.019 7.736C227.947 8.52 228.411 9.624 228.411 11.048V20H225.483V17.48H225.003L225.531 17.048C225.531 17.704 225.371 18.272 225.051 18.752C224.731 19.216 224.275 19.584 223.683 19.856C223.091 20.112 222.395 20.24 221.595 20.24ZM222.555 17.792C223.435 17.792 224.131 17.576 224.643 17.144C225.155 16.712 225.411 16.136 225.411 15.416V13.856H222.339C221.683 13.856 221.163 14.04 220.779 14.408C220.395 14.76 220.203 15.232 220.203 15.824C220.203 16.416 220.403 16.896 220.803 17.264C221.219 17.616 221.803 17.792 222.555 17.792ZM236.898 20.216C235.858 20.216 234.954 20.056 234.186 19.736C233.434 19.416 232.85 18.96 232.434 18.368C232.018 17.776 231.81 17.072 231.81 16.256H234.762C234.762 16.768 234.946 17.16 235.314 17.432C235.698 17.704 236.226 17.84 236.898 17.84H237.954C238.674 17.84 239.226 17.704 239.61 17.432C240.01 17.144 240.21 16.752 240.21 16.256C240.21 15.776 240.074 15.416 239.802 15.176C239.53 14.936 239.114 14.784 238.554 14.72L235.266 14.288C234.21 14.16 233.394 13.752 232.818 13.064C232.258 12.376 231.978 11.504 231.978 10.448C231.978 9.2 232.394 8.248 233.226 7.592C234.058 6.92 235.258 6.584 236.826 6.584H237.93C239.402 6.584 240.586 6.92 241.482 7.592C242.378 8.264 242.842 9.16 242.874 10.28H239.898C239.882 9.864 239.698 9.536 239.346 9.296C238.994 9.04 238.522 8.912 237.93 8.912H236.826C236.186 8.912 235.698 9.048 235.362 9.32C235.026 9.576 234.858 9.928 234.858 10.376C234.858 10.776 234.978 11.072 235.218 11.264C235.474 11.44 235.842 11.56 236.322 11.624L239.418 12.056C240.634 12.216 241.546 12.656 242.154 13.376C242.778 14.08 243.09 15.024 243.09 16.208C243.09 17.488 242.65 18.48 241.77 19.184C240.906 19.872 239.634 20.216 237.954 20.216H236.898ZM250.377 20.24C249.033 20.24 247.969 19.864 247.185 19.112C246.417 18.344 246.033 17.344 246.033 16.112C246.033 15.248 246.233 14.504 246.633 13.88C247.033 13.256 247.601 12.776 248.337 12.44C249.089 12.088 249.969 11.912 250.977 11.912H254.193V10.976C254.193 10.336 253.993 9.848 253.593 9.512C253.209 9.16 252.633 8.984 251.865 8.984C251.161 8.984 250.593 9.12 250.161 9.392C249.745 9.664 249.521 10.048 249.489 10.544H246.609C246.673 9.344 247.169 8.384 248.097 7.664C249.041 6.928 250.305 6.56 251.889 6.56C253.569 6.56 254.873 6.952 255.801 7.736C256.729 8.52 257.193 9.624 257.193 11.048V20H254.265V17.48H253.785L254.313 17.048C254.313 17.704 254.153 18.272 253.833 18.752C253.513 19.216 253.057 19.584 252.465 19.856C251.873 20.112 251.177 20.24 250.377 20.24ZM251.337 17.792C252.217 17.792 252.913 17.576 253.425 17.144C253.937 16.712 254.193 16.136 254.193 15.416V13.856H251.121C250.465 13.856 249.945 14.04 249.561 14.408C249.177 14.76 248.985 15.232 248.985 15.824C248.985 16.416 249.185 16.896 249.585 17.264C250.001 17.616 250.585 17.792 251.337 17.792ZM261.359 20V6.8H264.287V9.464H265.103L264.215 10.184C264.215 9.064 264.543 8.184 265.199 7.544C265.871 6.888 266.783 6.56 267.935 6.56C269.279 6.56 270.327 6.992 271.079 7.856C271.831 8.72 272.207 9.928 272.207 11.48V12.728H269.207V11.624C269.207 10.808 268.999 10.192 268.583 9.776C268.167 9.36 267.575 9.152 266.807 9.152C266.023 9.152 265.415 9.392 264.983 9.872C264.567 10.352 264.359 11.032 264.359 11.912V20H261.359ZM275.246 20V17.288H279.758V9.512H275.726V6.8H282.758V17.288H286.814V20H275.246ZM281.054 4.592C280.446 4.592 279.966 4.44 279.614 4.136C279.262 3.816 279.086 3.392 279.086 2.864C279.086 2.336 279.262 1.92 279.614 1.616C279.966 1.296 280.446 1.136 281.054 1.136C281.662 1.136 282.142 1.296 282.494 1.616C282.846 1.92 283.022 2.336 283.022 2.864C283.022 3.392 282.846 3.816 282.494 4.136C282.142 4.44 281.662 4.592 281.054 4.592ZM294.461 20.216C293.421 20.216 292.517 20.056 291.749 19.736C290.997 19.416 290.413 18.96 289.997 18.368C289.581 17.776 289.373 17.072 289.373 16.256H292.325C292.325 16.768 292.509 17.16 292.877 17.432C293.261 17.704 293.789 17.84 294.461 17.84H295.517C296.237 17.84 296.789 17.704 297.173 17.432C297.573 17.144 297.773 16.752 297.773 16.256C297.773 15.776 297.637 15.416 297.365 15.176C297.093 14.936 296.677 14.784 296.117 14.72L292.829 14.288C291.773 14.16 290.957 13.752 290.381 13.064C289.821 12.376 289.541 11.504 289.541 10.448C289.541 9.2 289.957 8.248 290.789 7.592C291.621 6.92 292.821 6.584 294.389 6.584H295.493C296.965 6.584 298.149 6.92 299.045 7.592C299.941 8.264 300.405 9.16 300.437 10.28H297.461C297.445 9.864 297.261 9.536 296.909 9.296C296.557 9.04 296.085 8.912 295.493 8.912H294.389C293.749 8.912 293.261 9.048 292.925 9.32C292.589 9.576 292.421 9.928 292.421 10.376C292.421 10.776 292.541 11.072 292.781 11.264C293.037 11.44 293.405 11.56 293.885 11.624L296.981 12.056C298.197 12.216 299.109 12.656 299.717 13.376C300.341 14.08 300.653 15.024 300.653 16.208C300.653 17.488 300.213 18.48 299.333 19.184C298.469 19.872 297.197 20.216 295.517 20.216H294.461ZM310.723 20C309.491 20 308.507 19.648 307.771 18.944C307.051 18.224 306.691 17.256 306.691 16.04V9.512H303.043V6.8H306.691V3.08H309.715V6.8H314.971V9.512H309.715V15.968C309.715 16.352 309.819 16.672 310.027 16.928C310.251 17.168 310.555 17.288 310.939 17.288H314.851V20H310.723ZM322.33 20.24C320.986 20.24 319.922 19.864 319.138 19.112C318.37 18.344 317.986 17.344 317.986 16.112C317.986 15.248 318.186 14.504 318.586 13.88C318.986 13.256 319.554 12.776 320.29 12.44C321.042 12.088 321.922 11.912 322.93 11.912H326.146V10.976C326.146 10.336 325.946 9.848 325.546 9.512C325.162 9.16 324.586 8.984 323.818 8.984C323.114 8.984 322.546 9.12 322.114 9.392C321.698 9.664 321.474 10.048 321.442 10.544H318.562C318.626 9.344 319.122 8.384 320.05 7.664C320.994 6.928 322.258 6.56 323.842 6.56C325.522 6.56 326.826 6.952 327.754 7.736C328.682 8.52 329.146 9.624 329.146 11.048V20H326.218V17.48H325.738L326.266 17.048C326.266 17.704 326.106 18.272 325.786 18.752C325.466 19.216 325.01 19.584 324.418 19.856C323.826 20.112 323.13 20.24 322.33 20.24ZM323.29 17.792C324.17 17.792 324.866 17.576 325.378 17.144C325.89 16.712 326.146 16.136 326.146 15.416V13.856H323.074C322.418 13.856 321.898 14.04 321.514 14.408C321.13 14.76 320.938 15.232 320.938 15.824C320.938 16.416 321.138 16.896 321.538 17.264C321.954 17.616 322.538 17.792 323.29 17.792ZM332.424 22.64L340.824 0.079999H343.944L335.544 22.64H332.424ZM352.647 20.24C351.463 20.24 350.423 20.032 349.527 19.616C348.647 19.2 347.959 18.6 347.463 17.816C346.983 17.032 346.743 16.112 346.743 15.056H349.695C349.695 15.84 349.959 16.464 350.487 16.928C351.031 17.392 351.751 17.624 352.647 17.624C353.511 17.624 354.191 17.392 354.687 16.928C355.199 16.464 355.455 15.856 355.455 15.104C355.455 14.528 355.295 14.016 354.975 13.568C354.655 13.12 354.183 12.824 353.559 12.68L351.207 12.08C349.943 11.76 348.943 11.16 348.207 10.28C347.471 9.4 347.103 8.352 347.103 7.136C347.103 6.144 347.319 5.28 347.751 4.544C348.199 3.808 348.823 3.24 349.623 2.84C350.439 2.44 351.391 2.24 352.479 2.24C353.583 2.24 354.543 2.44 355.359 2.84C356.175 3.24 356.807 3.808 357.255 4.544C357.719 5.264 357.951 6.112 357.951 7.088H355.023C355.023 6.4 354.791 5.856 354.327 5.456C353.863 5.04 353.247 4.832 352.479 4.832C351.727 4.832 351.127 5.04 350.679 5.456C350.247 5.856 350.031 6.384 350.031 7.04C350.031 7.584 350.183 8.032 350.487 8.384C350.807 8.736 351.247 8.992 351.807 9.152L354.231 9.752C355.527 10.072 356.543 10.712 357.279 11.672C358.031 12.632 358.407 13.776 358.407 15.104C358.407 16.144 358.167 17.048 357.687 17.816C357.223 18.584 356.559 19.184 355.695 19.616C354.831 20.032 353.815 20.24 352.647 20.24ZM361.926 20V17.288H365.454V5.192H361.926V2.48H372.006V5.192H368.478V17.288H372.006V20H361.926ZM375.452 20V2.48H379.364L381.332 10.016L383.324 2.48H387.26V20H384.452V12.632C384.452 11.624 384.476 10.584 384.524 9.512C384.588 8.424 384.66 7.376 384.74 6.368C384.82 5.344 384.908 4.416 385.004 3.584L382.532 12.392H380.06L377.684 3.8C377.78 4.536 377.868 5.368 377.948 6.296C378.044 7.224 378.116 8.224 378.164 9.296C378.228 10.368 378.26 11.48 378.26 12.632V20H375.452ZM390.467 20V2.48H401.363V5.264H393.419V9.944H400.739V12.728H393.467V20H390.467ZM408.674 20.24C407.33 20.24 406.266 19.864 405.482 19.112C404.714 18.344 404.33 17.344 404.33 16.112C404.33 15.248 404.53 14.504 404.93 13.88C405.33 13.256 405.898 12.776 406.634 12.44C407.386 12.088 408.266 11.912 409.273 11.912H412.49V10.976C412.49 10.336 412.29 9.848 411.89 9.512C411.506 9.16 410.93 8.984 410.162 8.984C409.458 8.984 408.89 9.12 408.458 9.392C408.042 9.664 407.818 10.048 407.786 10.544H404.906C404.97 9.344 405.466 8.384 406.394 7.664C407.338 6.928 408.602 6.56 410.186 6.56C411.866 6.56 413.17 6.952 414.098 7.736C415.026 8.52 415.49 9.624 415.49 11.048V20H412.562V17.48H412.082L412.61 17.048C412.61 17.704 412.45 18.272 412.13 18.752C411.81 19.216 411.354 19.584 410.762 19.856C410.17 20.112 409.474 20.24 408.674 20.24ZM409.634 17.792C410.514 17.792 411.21 17.576 411.722 17.144C412.234 16.712 412.49 16.136 412.49 15.416V13.856H409.418C408.762 13.856 408.242 14.04 407.858 14.408C407.474 14.76 407.282 15.232 407.282 15.824C407.282 16.416 407.482 16.896 407.882 17.264C408.298 17.616 408.882 17.792 409.634 17.792ZM424.744 20.24C423.608 20.24 422.616 20.032 421.768 19.616C420.936 19.184 420.288 18.584 419.824 17.816C419.36 17.032 419.128 16.112 419.128 15.056V11.744C419.128 10.672 419.36 9.752 419.824 8.984C420.288 8.216 420.936 7.624 421.768 7.208C422.616 6.776 423.608 6.56 424.744 6.56C426.392 6.56 427.712 6.992 428.704 7.856C429.696 8.704 430.224 9.864 430.288 11.336H427.336C427.288 10.648 427.032 10.12 426.568 9.752C426.104 9.368 425.496 9.176 424.744 9.176C423.928 9.176 423.288 9.4 422.824 9.848C422.36 10.28 422.128 10.904 422.128 11.72V15.056C422.128 15.872 422.36 16.504 422.824 16.952C423.288 17.4 423.928 17.624 424.744 17.624C425.496 17.624 426.104 17.44 426.568 17.072C427.032 16.688 427.288 16.152 427.336 15.464H430.288C430.224 16.936 429.696 18.104 428.704 18.968C427.712 19.816 426.392 20.24 424.744 20.24ZM440.239 20C439.007 20 438.023 19.648 437.287 18.944C436.567 18.224 436.207 17.256 436.207 16.04V9.512H432.559V6.8H436.207V3.08H439.231V6.8H444.487V9.512H439.231V15.968C439.231 16.352 439.335 16.672 439.543 16.928C439.767 17.168 440.071 17.288 440.455 17.288H444.367V20H440.239ZM453.309 20.216C452.189 20.216 451.213 20 450.381 19.568C449.549 19.136 448.909 18.528 448.461 17.744C448.013 16.944 447.789 16.008 447.789 14.936V11.864C447.789 10.776 448.013 9.84 448.461 9.056C448.909 8.272 449.549 7.664 450.381 7.232C451.213 6.8 452.189 6.584 453.309 6.584C454.445 6.584 455.421 6.8 456.237 7.232C457.069 7.664 457.709 8.272 458.157 9.056C458.605 9.84 458.829 10.776 458.829 11.864V14.936C458.829 16.008 458.605 16.944 458.157 17.744C457.709 18.528 457.069 19.136 456.237 19.568C455.421 20 454.445 20.216 453.309 20.216ZM453.309 17.6C454.109 17.6 454.725 17.384 455.157 16.952C455.605 16.504 455.829 15.864 455.829 15.032V11.768C455.829 10.92 455.605 10.28 455.157 9.848C454.725 9.416 454.109 9.2 453.309 9.2C452.525 9.2 451.909 9.416 451.461 9.848C451.013 10.28 450.789 10.92 450.789 11.768V15.032C450.789 15.864 451.013 16.504 451.461 16.952C451.909 17.384 452.525 17.6 453.309 17.6ZM462.828 20V6.8H465.756V9.464H466.572L465.684 10.184C465.684 9.064 466.012 8.184 466.668 7.544C467.34 6.888 468.252 6.56 469.404 6.56C470.748 6.56 471.796 6.992 472.548 7.856C473.3 8.72 473.676 9.928 473.676 11.48V12.728H470.676V11.624C470.676 10.808 470.468 10.192 470.052 9.776C469.636 9.36 469.044 9.152 468.276 9.152C467.492 9.152 466.884 9.392 466.452 9.872C466.036 10.352 465.828 11.032 465.828 11.912V20H462.828ZM478.851 24.32L480.723 19.28L475.755 6.8H478.923L481.467 13.544C481.611 13.944 481.755 14.384 481.899 14.864C482.043 15.328 482.147 15.76 482.211 16.16C482.259 15.76 482.347 15.328 482.475 14.864C482.619 14.384 482.763 13.944 482.907 13.544L485.259 6.8H488.427L481.995 24.32H478.851Z" fill="black"/>
<path d="M0 24.32H489.291V25.52H0V24.32Z" fill="black"/>
</svg>
